JosefinSans-Bold.ufo
<glyph name="exclam" format="2">
  <advance width="202"/>
  <unicode hex="0021"/>
  <outline>
    <contour>
      <point x="36" y="765" type="line"/>
      <point x="36" y="199" type="line"/>
      <point x="161" y="199" type="line"/>
      <point x="161" y="765" type="line"/>
    </contour>
    <contour>
      <point x="102" y="-14" type="curve"/>
      <point x="150" y="-14"/>
      <point x="182" y="14"/>
      <point x="182" y="57" type="curve"/>
      <point x="182" y="98"/>
      <point x="149" y="130"/>
      <point x="102" y="130" type="curve"/>
      <point x="55" y="130"/>
      <point x="20" y="98"/>
      <point x="20" y="57" type="curve"/>
      <point x="20" y="14"/>
      <point x="54" y="-14"/>
    </contour>
  </outline>
</glyph>
<glyph name="quotedbl" format="2">
  <advance width="366"/>
  <unicode hex="0022"/>
  <outline>
    <contour>
      <point x="186" y="734" type="curve"/>
      <point x="64" y="734" type="line"/>
      <point x="64" y="481" type="line"/>
      <point x="182" y="481" type="line"/>
      <point x="183" y="566"/>
      <point x="185" y="650"/>
    </contour>
    <contour>
      <point x="322" y="734" type="curve"/>
      <point x="200" y="734" type="line"/>
      <point x="200" y="481" type="line"/>
      <point x="318" y="481" type="line"/>
      <point x="319" y="566"/>
      <point x="321" y="650"/>
    </contour>
  </outline>
</glyph>
<glyph name="numbersign" format="2">
  <advance width="582"/>
  <unicode hex="0023"/>
  <outline>
    <contour>
      <point x="287" y="656" type="curve"/>
      <point x="161" y="656" type="line"/>
      <point x="153" y="596"/>
      <point x="146" y="539"/>
      <point x="138" y="479" type="curve"/>
      <point x="59" y="479" type="line"/>
      <point x="54" y="439"/>
      <point x="51" y="398"/>
      <point x="46" y="358" type="curve"/>
      <point x="125" y="358" type="line"/>
      <point x="122" y="336"/>
      <point x="120" y="314"/>
      <point x="117" y="292" type="curve"/>
      <point x="38" y="292" type="line"/>
      <point x="34" y="251"/>
      <point x="28" y="211"/>
      <point x="23" y="170" type="curve"/>
      <point x="102" y="170" type="line"/>
      <point x="96" y="113"/>
      <point x="88" y="57"/>
      <point x="82" y="0" type="curve"/>
      <point x="209" y="0" type="line"/>
      <point x="214" y="57"/>
      <point x="223" y="113"/>
      <point x="229" y="170" type="curve"/>
      <point x="290" y="170" type="line"/>
      <point x="284" y="113"/>
      <point x="276" y="57"/>
      <point x="270" y="0" type="curve"/>
      <point x="396" y="0" type="line"/>
      <point x="402" y="57"/>
      <point x="410" y="113"/>
      <point x="416" y="170" type="curve"/>
      <point x="501" y="170" type="line"/>
      <point x="505" y="211"/>
      <point x="511" y="251"/>
      <point x="516" y="292" type="curve"/>
      <point x="431" y="292" type="line"/>
      <point x="433" y="314"/>
      <point x="436" y="336"/>
      <point x="439" y="358" type="curve"/>
      <point x="524" y="358" type="line"/>
      <point x="529" y="398"/>
      <point x="532" y="439"/>
      <point x="536" y="479" type="curve"/>
      <point x="452" y="479" type="line"/>
      <point x="460" y="539"/>
      <point x="467" y="596"/>
      <point x="475" y="656" type="curve"/>
      <point x="348" y="656" type="line"/>
      <point x="341" y="596"/>
      <point x="333" y="539"/>
      <point x="326" y="479" type="curve"/>
      <point x="264" y="479" type="line"/>
      <point x="272" y="539"/>
      <point x="279" y="596"/>
    </contour>
    <contour>
      <point x="251" y="358" type="curve"/>
      <point x="312" y="358" type="line"/>
      <point x="310" y="336"/>
      <point x="307" y="314"/>
      <point x="305" y="292" type="curve"/>
      <point x="243" y="292" type="line"/>
      <point x="246" y="314"/>
      <point x="249" y="336"/>
    </contour>
  </outline>
</glyph>
<glyph name="dollar" format="2">
  <advance width="567"/>
  <unicode hex="0024"/>
  <outline>
    <contour>
      <point x="232" y="-68" type="line"/>
      <point x="316" y="-68" type="line"/>
      <point x="316" y="324" type="line"/>
      <point x="356" y="385" type="line"/>
      <point x="356" y="804" type="line"/>
      <point x="272" y="804" type="line"/>
      <point x="272" y="413" type="line"/>
      <point x="232" y="366" type="line"/>
    </contour>
    <component base="S"/>
  </outline>
</glyph>
<glyph name="percent" format="2">
  <advance width="810"/>
  <unicode hex="0025"/>
  <outline>
    <contour>
      <point x="196" y="294" type="curve"/>
      <point x="306" y="294"/>
      <point x="357" y="376"/>
      <point x="357" y="484" type="curve"/>
      <point x="357" y="591"/>
      <point x="306" y="673"/>
      <point x="196" y="673" type="curve"/>
      <point x="85" y="673"/>
      <point x="35" y="591"/>
      <point x="35" y="484" type="curve"/>
      <point x="35" y="376"/>
      <point x="85" y="294"/>
    </contour>
    <contour>
      <point x="157" y="484" type="curve"/>
      <point x="157" y="547"/>
      <point x="165" y="574"/>
      <point x="196" y="574" type="curve"/>
      <point x="227" y="574"/>
      <point x="234" y="547"/>
      <point x="234" y="484" type="curve"/>
      <point x="234" y="429"/>
      <point x="227" y="392"/>
      <point x="196" y="392" type="curve"/>
      <point x="165" y="392"/>
      <point x="157" y="429"/>
    </contour>
    <contour>
      <point x="614" y="-28" type="curve"/>
      <point x="724" y="-28"/>
      <point x="775" y="54"/>
      <point x="775" y="162" type="curve"/>
      <point x="775" y="269"/>
      <point x="724" y="351"/>
      <point x="614" y="351" type="curve"/>
      <point x="503" y="351"/>
      <point x="453" y="269"/>
      <point x="453" y="162" type="curve"/>
      <point x="453" y="54"/>
      <point x="503" y="-28"/>
    </contour>
    <contour>
      <point x="575" y="162" type="curve"/>
      <point x="575" y="225"/>
      <point x="583" y="252"/>
      <point x="614" y="252" type="curve"/>
      <point x="645" y="252"/>
      <point x="652" y="225"/>
      <point x="652" y="162" type="curve"/>
      <point x="652" y="107"/>
      <point x="645" y="70"/>
      <point x="614" y="70" type="curve"/>
      <point x="583" y="70"/>
      <point x="575" y="107"/>
    </contour>
    <contour>
      <point x="728" y="673" type="line"/>
      <point x="589" y="673" type="line"/>
      <point x="105" y="0" type="line"/>
      <point x="242" y="-2" type="line"/>
    </contour>
  </outline>
</glyph>
<glyph name="ampersand" format="2">
  <advance width="740"/>
  <unicode hex="0026"/>
  <outline>
    <contour>
      <point x="715" y="0" type="curve"/>
      <point x="345" y="498" type="line" smooth="yes"/>
      <point x="339" y="507"/>
      <point x="311" y="549"/>
      <point x="311" y="577" type="curve" smooth="yes"/>
      <point x="311" y="609"/>
      <point x="330" y="641"/>
      <point x="375" y="641" type="curve" smooth="yes"/>
      <point x="411" y="641"/>
      <point x="448" y="612"/>
      <point x="490" y="567" type="curve"/>
      <point x="563" y="664" type="line"/>
      <point x="520" y="718"/>
      <point x="446" y="763"/>
      <point x="352" y="763" type="curve" smooth="yes"/>
      <point x="222" y="763"/>
      <point x="161" y="670"/>
      <point x="161" y="591" type="curve" smooth="yes"/>
      <point x="161" y="529"/>
      <point x="202" y="464"/>
      <point x="223" y="436" type="curve"/>
      <point x="547" y="0" type="line"/>
      <point x="547" y="0"/>
      <point x="678" y="0"/>
    </contour>
    <contour>
      <point x="310" y="335" type="curve"/>
      <point x="309" y="448" type="line"/>
      <point x="179" y="444"/>
      <point x="45" y="346"/>
      <point x="45" y="214" type="curve" smooth="yes"/>
      <point x="45" y="81"/>
      <point x="153" y="-12"/>
      <point x="292" y="-12" type="curve" smooth="yes"/>
      <point x="410" y="-12"/>
      <point x="483" y="43"/>
      <point x="519" y="111" type="curve"/>
      <point x="426" y="188" type="line"/>
      <point x="407" y="149"/>
      <point x="377" y="118"/>
      <point x="312" y="118" type="curve" smooth="yes"/>
      <point x="247" y="118"/>
      <point x="195" y="160"/>
      <point x="195" y="222" type="curve" smooth="yes"/>
      <point x="195" y="280"/>
      <point x="245" y="335"/>
    </contour>
    <contour>
      <point x="528" y="448" type="line"/>
      <point x="431" y="198" type="line"/>
      <point x="536" y="136" type="line"/>
      <point x="660" y="448" type="line"/>
    </contour>
  </outline>
</glyph>
<glyph name="quotesingle" format="2">
  <advance width="175"/>
  <unicode hex="0027"/>
  <outline>
    <contour>
      <point x="152" y="734" type="curve"/>
      <point x="28" y="734" type="line"/>
      <point x="28" y="481" type="line"/>
      <point x="148" y="481" type="line"/>
      <point x="149" y="566"/>
      <point x="151" y="650"/>
    </contour>
  </outline>
</glyph>
<glyph name="parenleft" format="2">
  <advance width="408"/>
  <unicode hex="0028"/>
  <outline>
    <contour>
      <point x="75" y="296" type="curve" smooth="yes"/>
      <point x="75" y="296" type="line" smooth="yes"/>
      <point x="75" y="92"/>
      <point x="158" y="-77"/>
      <point x="243" y="-168" type="curve"/>
      <point x="358" y="-114" type="line"/>
      <point x="280" y="-25"/>
      <point x="221" y="112"/>
      <point x="221" y="296" type="curve" smooth="yes"/>
      <point x="221" y="480"/>
      <point x="280" y="617"/>
      <point x="358" y="707" type="curve"/>
      <point x="243" y="760" type="line"/>
      <point x="158" y="670"/>
      <point x="75" y="500"/>
    </contour>
  </outline>
</glyph>
<glyph name="parenright" format="2">
  <advance width="408"/>
  <unicode hex="0029"/>
  <outline>
    <contour>
      <point x="333" y="296" type="curve" smooth="yes"/>
      <point x="333" y="296" type="line" smooth="yes"/>
      <point x="333" y="500"/>
      <point x="250" y="669"/>
      <point x="165" y="760" type="curve"/>
      <point x="50" y="706" type="line"/>
      <point x="128" y="617"/>
      <point x="187" y="480"/>
      <point x="187" y="296" type="curve" smooth="yes"/>
      <point x="187" y="112"/>
      <point x="128" y="-25"/>
      <point x="50" y="-115" type="curve"/>
      <point x="165" y="-168" type="line"/>
      <point x="250" y="-78"/>
      <point x="333" y="92"/>
    </contour>
  </outline>
</glyph>
<glyph name="asterisk" format="2">
  <advance width="335"/>
  <unicode hex="002A"/>
  <outline>
    <contour>
      <point x="128" y="504" type="curve"/>
      <point x="128" y="434" type="line"/>
      <point x="208" y="434" type="line"/>
      <point x="208" y="457"/>
      <point x="209" y="480"/>
      <point x="209" y="503" type="curve"/>
      <point x="230" y="491"/>
      <point x="250" y="478"/>
      <point x="271" y="466" type="curve"/>
      <point x="285" y="490"/>
      <point x="299" y="515"/>
      <point x="313" y="539" type="curve"/>
      <point x="292" y="551"/>
      <point x="271" y="563"/>
      <point x="250" y="575" type="curve"/>
      <point x="250" y="575" type="line"/>
      <point x="272" y="587"/>
      <point x="293" y="600"/>
      <point x="315" y="612" type="curve"/>
      <point x="302" y="635"/>
      <point x="288" y="658"/>
      <point x="275" y="681" type="curve"/>
      <point x="254" y="669"/>
      <point x="232" y="657"/>
      <point x="211" y="645" type="curve"/>
      <point x="211" y="670"/>
      <point x="212" y="695"/>
      <point x="212" y="720" type="curve"/>
      <point x="128" y="720" type="line"/>
      <point x="128" y="645" type="line"/>
      <point x="107" y="657"/>
      <point x="86" y="670"/>
      <point x="65" y="682" type="curve"/>
      <point x="52" y="659"/>
      <point x="39" y="636"/>
      <point x="26" y="613" type="curve"/>
      <point x="46" y="601"/>
      <point x="67" y="588"/>
      <point x="87" y="576" type="curve"/>
      <point x="66" y="565"/>
      <point x="46" y="553"/>
      <point x="25" y="542" type="curve"/>
      <point x="39" y="518"/>
      <point x="53" y="493"/>
      <point x="67" y="469" type="curve"/>
      <point x="87" y="481"/>
      <point x="108" y="492"/>
    </contour>
  </outline>
</glyph>
<glyph name="plus" format="2">
  <advance width="554"/>
  <unicode hex="002B"/>
  <outline>
    <contour>
      <point x="208" y="419" type="line"/>
      <point x="208" y="295" type="line"/>
      <point x="88" y="295" type="line"/>
      <point x="88" y="174" type="line"/>
      <point x="208" y="174" type="line"/>
      <point x="208" y="52" type="line"/>
      <point x="335" y="52" type="line"/>
      <point x="335" y="174" type="line"/>
      <point x="455" y="174" type="line"/>
      <point x="455" y="295" type="line"/>
      <point x="335" y="295" type="line"/>
      <point x="335" y="419" type="line"/>
    </contour>
  </outline>
</glyph>
<glyph name="comma" format="2">
  <advance width="205"/>
  <unicode hex="002C"/>
  <outline>
    <contour>
      <point x="188" y="88" type="curve"/>
      <point x="67" y="88" type="line"/>
      <point x="40" y="17"/>
      <point x="15" y="-52"/>
      <point x="-12" y="-122" type="curve"/>
      <point x="100" y="-122" type="line"/>
      <point x="129" y="-52"/>
      <point x="158" y="17"/>
    </contour>
  </outline>
</glyph>
<glyph name="hyphen" format="2">
  <advance width="306"/>
  <unicode hex="002D"/>
  <outline>
    <contour>
      <point x="54" y="290" type="line"/>
      <point x="54" y="168" type="line"/>
      <point x="242" y="168" type="line"/>
      <point x="242" y="290" type="line"/>
    </contour>
  </outline>
</glyph>
<glyph name="period" format="2">
  <advance width="172"/>
  <unicode hex="002E"/>
  <outline>
    <contour>
      <point x="15" y="72" type="curve" smooth="yes"/>
      <point x="15" y="72" type="line" smooth="yes"/>
      <point x="15" y="28"/>
      <point x="51" y="0"/>
      <point x="87" y="0" type="curve" smooth="yes"/>
      <point x="120" y="0"/>
      <point x="157" y="28"/>
      <point x="157" y="72" type="curve" smooth="yes"/>
      <point x="157" y="113"/>
      <point x="120" y="145"/>
      <point x="87" y="145" type="curve" smooth="yes"/>
      <point x="51" y="145"/>
      <point x="15" y="113"/>
    </contour>
  </outline>
</glyph>
<glyph name="slash" format="2">
  <advance width="421"/>
  <unicode hex="002F"/>
  <outline>
    <contour>
      <point x="427" y="751" type="curve"/>
      <point x="301" y="751" type="line"/>
      <point x="206" y="494"/>
      <point x="112" y="238"/>
      <point x="17" y="-19" type="curve"/>
      <point x="143" y="-19" type="line"/>
      <point x="238" y="238"/>
      <point x="332" y="494"/>
    </contour>
  </outline>
</glyph>
<glyph name="zero" format="2">
  <advance width="628"/>
  <unicode hex="0030"/>
  <outline>
    <contour>
      <point x="314" y="-1" type="curve"/>
      <point x="465" y="-2"/>
      <point x="593" y="97"/>
      <point x="593" y="335" type="curve"/>
      <point x="593" y="564"/>
      <point x="467" y="672"/>
      <point x="314" y="671" type="curve"/>
      <point x="154" y="672"/>
      <point x="35" y="590"/>
      <point x="35" y="335" type="curve" smooth="yes"/>
      <point x="35" y="106"/>
      <point x="161" y="-2"/>
    </contour>
    <contour>
      <point x="313" y="138" type="curve"/>
      <point x="214" y="138"/>
      <point x="186" y="226"/>
      <point x="186" y="336" type="curve"/>
      <point x="186" y="445"/>
      <point x="214" y="531"/>
      <point x="313" y="531" type="curve"/>
      <point x="412" y="531"/>
      <point x="442" y="448"/>
      <point x="442" y="339" type="curve"/>
      <point x="442" y="226"/>
      <point x="413" y="138"/>
    </contour>
  </outline>
</glyph>
<glyph name="one" format="2">
  <advance width="344"/>
  <unicode hex="0031"/>
  <outline>
    <contour>
      <point x="50" y="663" type="line"/>
      <point x="50" y="523" type="line"/>
      <point x="103" y="523" type="line"/>
      <point x="103" y="0" type="line"/>
      <point x="249" y="0" type="line"/>
      <point x="249" y="663" type="line"/>
    </contour>
  </outline>
</glyph>
<glyph name="two" format="2">
  <advance width="583"/>
  <unicode hex="0032"/>
  <outline>
    <contour>
      <point x="54" y="0" type="curve"/>
      <point x="533" y="0" type="line"/>
      <point x="533" y="140" type="line"/>
      <point x="287" y="140" type="line"/>
      <point x="353" y="121" type="line"/>
      <point x="442" y="230"/>
      <point x="525" y="330"/>
      <point x="525" y="451" type="curve" smooth="yes"/>
      <point x="525" y="565"/>
      <point x="434" y="671"/>
      <point x="297" y="671" type="curve" smooth="yes"/>
      <point x="128" y="671"/>
      <point x="35" y="561"/>
      <point x="35" y="452" type="curve" smooth="yes"/>
      <point x="35" y="403"/>
      <point x="68" y="303"/>
      <point x="126" y="275" type="curve"/>
      <point x="215" y="356" type="line"/>
      <point x="191" y="381"/>
      <point x="176" y="413"/>
      <point x="176" y="456" type="curve" smooth="yes"/>
      <point x="176" y="492"/>
      <point x="210" y="531"/>
      <point x="272" y="531" type="curve" smooth="yes"/>
      <point x="333" y="531"/>
      <point x="374" y="496"/>
      <point x="374" y="439" type="curve" smooth="yes"/>
      <point x="374" y="310"/>
      <point x="218" y="168"/>
    </contour>
  </outline>
</glyph>
<glyph name="three" format="2">
  <advance width="527"/>
  <unicode hex="0033"/>
  <outline>
    <contour>
      <point x="456" y="663" type="line"/>
      <point x="95" y="663" type="line"/>
      <point x="95" y="523" type="line"/>
      <point x="304" y="523" type="line"/>
      <point x="262" y="540" type="line"/>
      <point x="145" y="321" type="line"/>
      <point x="148" y="317" type="line"/>
      <point x="168" y="322"/>
      <point x="184" y="326"/>
      <point x="224" y="326" type="curve" smooth="yes"/>
      <point x="282" y="326"/>
      <point x="317" y="288"/>
      <point x="317" y="230" type="curve" smooth="yes"/>
      <point x="317" y="166"/>
      <point x="269" y="132"/>
      <point x="225" y="132" type="curve" smooth="yes"/>
      <point x="179" y="132"/>
      <point x="134" y="162"/>
      <point x="114" y="187" type="curve"/>
      <point x="40" y="67" type="line"/>
      <point x="83" y="22"/>
      <point x="163" y="-8"/>
      <point x="229" y="-8" type="curve" smooth="yes"/>
      <point x="354" y="-8"/>
      <point x="467" y="76"/>
      <point x="467" y="221" type="curve" smooth="yes"/>
      <point x="467" y="386"/>
      <point x="363" y="428"/>
      <point x="270" y="426" type="curve" smooth="yes"/>
      <point x="257" y="426"/>
      <point x="240" y="423"/>
      <point x="227" y="418" type="curve"/>
      <point x="306" y="375" type="line"/>
    </contour>
  </outline>
</glyph>
<glyph name="four" format="2">
  <advance width="553"/>
  <unicode hex="0034"/>
  <outline>
    <contour>
      <point x="10" y="145" type="line"/>
      <point x="288" y="145" type="line"/>
      <point x="288" y="0" type="line"/>
      <point x="434" y="0" type="line"/>
      <point x="434" y="145" type="line"/>
      <point x="513" y="145" type="line"/>
      <point x="513" y="255" type="line"/>
      <point x="434" y="255" type="line"/>
      <point x="434" y="671" type="line"/>
      <point x="433" y="671" type="line"/>
      <point x="10" y="146" type="line"/>
    </contour>
    <contour>
      <point x="295" y="352" type="line"/>
      <point x="288" y="359" type="line"/>
      <point x="288" y="255" type="line"/>
      <point x="204" y="255" type="line"/>
      <point x="218" y="249" type="line"/>
    </contour>
  </outline>
</glyph>
<glyph name="five" format="2">
  <advance width="518"/>
  <unicode hex="0035"/>
  <outline>
    <contour>
      <point x="242" y="-8" type="curve" smooth="yes"/>
      <point x="368" y="-8"/>
      <point x="468" y="93"/>
      <point x="468" y="226" type="curve" smooth="yes"/>
      <point x="468" y="346"/>
      <point x="388" y="449"/>
      <point x="249" y="450" type="curve" smooth="yes"/>
      <point x="232" y="450"/>
      <point x="214" y="449"/>
      <point x="196" y="446" type="curve"/>
      <point x="213" y="416" type="line"/>
      <point x="213" y="523" type="line"/>
      <point x="419" y="523" type="line"/>
      <point x="419" y="663" type="line"/>
      <point x="88" y="663" type="line"/>
      <point x="88" y="291" type="line"/>
      <point x="89" y="291" type="line"/>
      <point x="140" y="318"/>
      <point x="173" y="328"/>
      <point x="214" y="328" type="curve" smooth="yes"/>
      <point x="278" y="328"/>
      <point x="318" y="285"/>
      <point x="318" y="221" type="curve" smooth="yes"/>
      <point x="318" y="162"/>
      <point x="277" y="132"/>
      <point x="231" y="132" type="curve" smooth="yes"/>
      <point x="189" y="132"/>
      <point x="139" y="154"/>
      <point x="115" y="183" type="curve"/>
      <point x="40" y="67" type="line"/>
      <point x="81" y="26"/>
      <point x="163" y="-8"/>
    </contour>
  </outline>
</glyph>
<glyph name="six" format="2">
  <advance width="561"/>
  <unicode hex="0036"/>
  <outline>
    <contour>
      <point x="286" y="-8" type="curve" smooth="yes"/>
      <point x="410" y="-8"/>
      <point x="531" y="75"/>
      <point x="531" y="223" type="curve" smooth="yes"/>
      <point x="531" y="350"/>
      <point x="432" y="437"/>
      <point x="336" y="437" type="curve" smooth="yes"/>
      <point x="234" y="437"/>
      <point x="184" y="388"/>
      <point x="148" y="304" type="curve"/>
      <point x="184" y="300" type="line"/>
      <point x="184" y="388"/>
      <point x="254" y="513"/>
      <point x="414" y="576" type="curve"/>
      <point x="317" y="681" type="line"/>
      <point x="159" y="587"/>
      <point x="30" y="444"/>
      <point x="30" y="287" type="curve" smooth="yes"/>
      <point x="30" y="96"/>
      <point x="141" y="-8"/>
    </contour>
    <contour>
      <point x="280" y="122" type="curve" smooth="yes"/>
      <point x="223" y="122"/>
      <point x="180" y="167"/>
      <point x="180" y="215" type="curve" smooth="yes"/>
      <point x="180" y="239" type="line" smooth="yes"/>
      <point x="180" y="279"/>
      <point x="224" y="315"/>
      <point x="280" y="315" type="curve" smooth="yes"/>
      <point x="336" y="315"/>
      <point x="380" y="284"/>
      <point x="380" y="222" type="curve" smooth="yes"/>
      <point x="380" y="157"/>
      <point x="337" y="122"/>
    </contour>
  </outline>
</glyph>
<glyph name="seven" format="2">
  <advance width="503"/>
  <unicode hex="0037"/>
  <outline>
    <contour>
      <point x="488" y="663" type="line"/>
      <point x="40" y="663" type="line"/>
      <point x="40" y="523" type="line"/>
      <point x="331" y="523" type="line"/>
      <point x="284" y="540" type="line"/>
      <point x="79" y="0" type="line"/>
      <point x="241" y="0" type="line"/>
    </contour>
  </outline>
</glyph>
<glyph name="eight" format="2">
  <advance width="532"/>
  <unicode hex="0038"/>
  <outline>
    <contour>
      <point x="15" y="215" type="curve" smooth="yes"/>
      <point x="15" y="215" type="line" smooth="yes"/>
      <point x="15" y="99"/>
      <point x="119" y="-8"/>
      <point x="265" y="-8" type="curve" smooth="yes"/>
      <point x="410" y="-8"/>
      <point x="517" y="99"/>
      <point x="517" y="215" type="curve" smooth="yes"/>
      <point x="517" y="316"/>
      <point x="449" y="369"/>
      <point x="402" y="400" type="curve"/>
      <point x="434" y="432"/>
      <point x="459" y="457"/>
      <point x="459" y="524" type="curve" smooth="yes"/>
      <point x="459" y="607"/>
      <point x="371" y="671"/>
      <point x="267" y="671" type="curve" smooth="yes"/>
      <point x="163" y="671"/>
      <point x="78" y="607"/>
      <point x="78" y="517" type="curve" smooth="yes"/>
      <point x="78" y="457"/>
      <point x="101" y="431"/>
      <point x="131" y="400" type="curve"/>
      <point x="84" y="372"/>
      <point x="15" y="318"/>
    </contour>
    <contour>
      <point x="164" y="221" type="curve" smooth="yes"/>
      <point x="164" y="221" type="line" smooth="yes"/>
      <point x="164" y="283"/>
      <point x="216" y="330"/>
      <point x="272" y="328" type="curve" smooth="yes"/>
      <point x="328" y="326"/>
      <point x="372" y="278"/>
      <point x="372" y="221" type="curve" smooth="yes"/>
      <point x="372" y="162"/>
      <point x="323" y="114"/>
      <point x="266" y="114" type="curve" smooth="yes"/>
      <point x="210" y="114"/>
      <point x="164" y="162"/>
    </contour>
    <contour>
      <point x="219" y="499" type="curve" smooth="yes"/>
      <point x="219" y="499" type="line" smooth="yes"/>
      <point x="219" y="526"/>
      <point x="245" y="550"/>
      <point x="270" y="550" type="curve" smooth="yes"/>
      <point x="295" y="550"/>
      <point x="320" y="526"/>
      <point x="320" y="499" type="curve" smooth="yes"/>
      <point x="320" y="472"/>
      <point x="294" y="449"/>
      <point x="270" y="449" type="curve" smooth="yes"/>
      <point x="246" y="449"/>
      <point x="219" y="472"/>
    </contour>
  </outline>
</glyph>
<glyph name="nine" format="2">
  <advance width="546"/>
  <unicode hex="0039"/>
  <outline>
    <contour>
      <point x="225" y="207" type="curve" smooth="yes"/>
      <point x="327" y="207"/>
      <point x="377" y="256"/>
      <point x="413" y="340" type="curve"/>
      <point x="377" y="344" type="line"/>
      <point x="377" y="254"/>
      <point x="267" y="153"/>
      <point x="107" y="88" type="curve"/>
      <point x="204" y="-17" type="line"/>
      <point x="362" y="81"/>
      <point x="531" y="202"/>
      <point x="531" y="422" type="curve" smooth="yes"/>
      <point x="531" y="564"/>
      <point x="420" y="671"/>
      <point x="275" y="671" type="curve" smooth="yes"/>
      <point x="151" y="671"/>
      <point x="30" y="581"/>
      <point x="30" y="421" type="curve" smooth="yes"/>
      <point x="30" y="294"/>
      <point x="129" y="207"/>
    </contour>
    <contour>
      <point x="281" y="329" type="curve" smooth="yes"/>
      <point x="225" y="329"/>
      <point x="181" y="364"/>
      <point x="181" y="433" type="curve" smooth="yes"/>
      <point x="181" y="503"/>
      <point x="224" y="541"/>
      <point x="281" y="541" type="curve" smooth="yes"/>
      <point x="338" y="541"/>
      <point x="381" y="492"/>
      <point x="381" y="440" type="curve" smooth="yes"/>
      <point x="381" y="417" type="line" smooth="yes"/>
      <point x="381" y="372"/>
      <point x="337" y="329"/>
    </contour>
  </outline>
</glyph>
<glyph name="colon" format="2">
  <advance width="179"/>
  <unicode hex="003A"/>
  <outline>
    <contour>
      <point x="15" y="357" type="curve" smooth="yes"/>
      <point x="15" y="357" type="line" smooth="yes"/>
      <point x="15" y="313"/>
      <point x="51" y="285"/>
      <point x="87" y="285" type="curve" smooth="yes"/>
      <point x="120" y="285"/>
      <point x="157" y="313"/>
      <point x="157" y="357" type="curve" smooth="yes"/>
      <point x="157" y="398"/>
      <point x="120" y="430"/>
      <point x="87" y="430" type="curve" smooth="yes"/>
      <point x="51" y="430"/>
      <point x="15" y="398"/>
    </contour>
    <contour>
      <point x="15" y="72" type="curve" smooth="yes"/>
      <point x="15" y="72" type="line" smooth="yes"/>
      <point x="15" y="28"/>
      <point x="51" y="0"/>
      <point x="87" y="0" type="curve" smooth="yes"/>
      <point x="120" y="0"/>
      <point x="157" y="28"/>
      <point x="157" y="72" type="curve" smooth="yes"/>
      <point x="157" y="113"/>
      <point x="120" y="145"/>
      <point x="87" y="145" type="curve" smooth="yes"/>
      <point x="51" y="145"/>
      <point x="15" y="113"/>
    </contour>
  </outline>
</glyph>
<glyph name="semicolon" format="2">
  <advance width="205"/>
  <unicode hex="003B"/>
  <outline>
    <contour>
      <point x="52" y="327" type="curve" smooth="yes"/>
      <point x="52" y="327" type="line" smooth="yes"/>
      <point x="52" y="283"/>
      <point x="88" y="255"/>
      <point x="123" y="255" type="curve" smooth="yes"/>
      <point x="157" y="255"/>
      <point x="193" y="283"/>
      <point x="193" y="327" type="curve" smooth="yes"/>
      <point x="193" y="368"/>
      <point x="157" y="400"/>
      <point x="123" y="400" type="curve" smooth="yes"/>
      <point x="88" y="400"/>
      <point x="52" y="368"/>
    </contour>
    <contour>
      <point x="174" y="88" type="curve"/>
      <point x="53" y="88" type="line"/>
      <point x="26" y="17"/>
      <point x="1" y="-52"/>
      <point x="-26" y="-122" type="curve"/>
      <point x="86" y="-122" type="line"/>
      <point x="115" y="-52"/>
      <point x="144" y="17"/>
    </contour>
  </outline>
</glyph>
<glyph name="less" format="2">
  <advance width="555"/>
  <unicode hex="003C"/>
  <outline>
    <contour>
      <point x="475" y="347" type="line"/>
      <point x="475" y="499" type="line"/>
      <point x="30" y="242" type="line"/>
      <point x="475" y="-14" type="line"/>
      <point x="475" y="137" type="line"/>
      <point x="298" y="242" type="line"/>
    </contour>
  </outline>
</glyph>
<glyph name="equal" format="2">
  <advance width="722"/>
  <unicode hex="003D"/>
  <outline>
    <contour>
      <point x="102" y="412" type="line"/>
      <point x="102" y="290" type="line"/>
      <point x="618" y="290" type="line"/>
      <point x="618" y="412" type="line"/>
    </contour>
    <contour>
      <point x="102" y="214" type="line"/>
      <point x="102" y="92" type="line"/>
      <point x="618" y="92" type="line"/>
      <point x="618" y="214" type="line"/>
    </contour>
  </outline>
</glyph>
<glyph name="greater" format="2">
  <advance width="555"/>
  <unicode hex="003E"/>
  <outline>
    <contour>
      <point x="80" y="138" type="line"/>
      <point x="80" y="-14" type="line"/>
      <point x="80" y="-14" type="line"/>
      <point x="525" y="243" type="line"/>
      <point x="80" y="499" type="line"/>
      <point x="80" y="348" type="line"/>
      <point x="257" y="243" type="line"/>
    </contour>
  </outline>
</glyph>
<glyph name="question" format="2">
  <advance width="464"/>
  <unicode hex="003F"/>
  <outline>
    <contour>
      <point x="142" y="197" type="line"/>
      <point x="282" y="197" type="line"/>
      <point x="282" y="218" type="line"/>
      <point x="282" y="294"/>
      <point x="313" y="333"/>
      <point x="348" y="368" type="curve" smooth="yes"/>
      <point x="392" y="413"/>
      <point x="444" y="452"/>
      <point x="444" y="561" type="curve"/>
      <point x="444" y="692"/>
      <point x="355" y="746"/>
      <point x="242" y="747" type="curve"/>
      <point x="87" y="748"/>
      <point x="25" y="627"/>
      <point x="10" y="579" type="curve"/>
      <point x="125" y="525" type="line"/>
      <point x="143" y="570"/>
      <point x="169" y="617"/>
      <point x="227" y="617" type="curve"/>
      <point x="257" y="617"/>
      <point x="295" y="591"/>
      <point x="295" y="548" type="curve"/>
      <point x="295" y="495"/>
      <point x="262" y="467"/>
      <point x="226" y="434" type="curve" smooth="yes"/>
      <point x="186" y="395"/>
      <point x="142" y="349"/>
      <point x="142" y="250" type="curve"/>
    </contour>
    <contour>
      <point x="212" y="-14" type="curve"/>
      <point x="260" y="-14"/>
      <point x="292" y="14"/>
      <point x="292" y="57" type="curve"/>
      <point x="292" y="98"/>
      <point x="259" y="130"/>
      <point x="212" y="130" type="curve"/>
      <point x="165" y="130"/>
      <point x="130" y="98"/>
      <point x="130" y="57" type="curve"/>
      <point x="130" y="14"/>
      <point x="164" y="-14"/>
    </contour>
  </outline>
</glyph>
<glyph name="at" format="2">
  <advance width="1061"/>
  <unicode hex="0040"/>
  <outline>
    <contour>
      <point x="460" y="-226" type="curve" smooth="yes"/>
      <point x="552" y="-226"/>
      <point x="674" y="-197"/>
      <point x="755" y="-131" type="curve"/>
      <point x="699" y="-52" type="line"/>
      <point x="634" y="-93"/>
      <point x="557" y="-118"/>
      <point x="481" y="-118" type="curve" smooth="yes"/>
      <point x="312" y="-118"/>
      <point x="164" y="-33"/>
      <point x="164" y="182" type="curve" smooth="yes"/>
      <point x="164" y="294"/>
      <point x="237" y="571"/>
      <point x="595" y="571" type="curve" smooth="yes"/>
      <point x="800" y="571"/>
      <point x="894" y="451"/>
      <point x="894" y="312" type="curve" smooth="yes"/>
      <point x="894" y="196"/>
      <point x="838" y="120"/>
      <point x="789" y="120" type="curve" smooth="yes"/>
      <point x="766" y="120"/>
      <point x="757" y="137"/>
      <point x="762" y="172" type="curve" smooth="yes"/>
      <point x="799" y="437" type="line"/>
      <point x="665" y="437" type="line"/>
      <point x="649" y="390" type="line"/>
      <point x="625" y="425"/>
      <point x="594" y="459"/>
      <point x="507" y="459" type="curve" smooth="yes"/>
      <point x="355" y="459"/>
      <point x="253" y="343"/>
      <point x="253" y="191" type="curve" smooth="yes"/>
      <point x="253" y="61"/>
      <point x="337" y="-12"/>
      <point x="448" y="-12" type="curve" smooth="yes"/>
      <point x="529" y="-12"/>
      <point x="611" y="48"/>
      <point x="641" y="90" type="curve"/>
      <point x="617" y="152" type="line"/>
      <point x="602" y="60"/>
      <point x="667" y="-8"/>
      <point x="753" y="-8" type="curve"/>
      <point x="915" y="-8"/>
      <point x="1023" y="139"/>
      <point x="1023" y="312" type="curve" smooth="yes"/>
      <point x="1023" y="516"/>
      <point x="881" y="680"/>
      <point x="615" y="680" type="curve" smooth="yes"/>
      <point x="199" y="680"/>
      <point x="38" y="401"/>
      <point x="38" y="178" type="curve" smooth="yes"/>
      <point x="38" y="-100"/>
      <point x="241" y="-226"/>
    </contour>
    <contour>
      <point x="504" y="102" type="curve"/>
      <point x="444" y="102"/>
      <point x="402" y="149"/>
      <point x="402" y="210" type="curve" smooth="yes"/>
      <point x="402" y="279"/>
      <point x="456" y="345"/>
      <point x="531" y="345" type="curve"/>
      <point x="584" y="345"/>
      <point x="622" y="318"/>
      <point x="632" y="275" type="curve"/>
      <point x="617" y="168" type="line"/>
      <point x="588" y="124"/>
      <point x="557" y="102"/>
    </contour>
  </outline>
</glyph>
<glyph name="A" format="2">
  <advance width="696"/>
  <unicode hex="0041"/>
  <anchor x="348" y="0" name="bottom"/>
  <anchor x="620" y="10" name="ogonek"/>
  <anchor x="348" y="776" name="top"/>
  <outline>
    <contour>
      <point x="12" y="0" type="line"/>
      <point x="155" y="0" type="line"/>
      <point x="409" y="610" type="line"/>
      <point x="304" y="538" type="line"/>
      <point x="516" y="0" type="line"/>
      <point x="684" y="0" type="line"/>
      <point x="352" y="765" type="line"/>
      <point x="344" y="765" type="line"/>
    </contour>
    <contour>
      <point x="239" y="266" type="line"/>
      <point x="194" y="144" type="line"/>
      <point x="511" y="144" type="line"/>
      <point x="460" y="266" type="line"/>
    </contour>
  </outline>
</glyph>
<glyph name="B" format="2">
  <advance width="647"/>
  <unicode hex="0042"/>
  <anchor x="336" y="0" name="bottom"/>
  <anchor x="336" y="736" name="top"/>
  <outline>
    <contour>
      <point x="311" y="736" type="curve"/>
      <point x="95" y="736" type="line"/>
      <point x="95" y="0" type="line"/>
      <point x="340" y="0" type="line"/>
      <point x="471" y="0"/>
      <point x="597" y="57"/>
      <point x="597" y="217" type="curve"/>
      <point x="597" y="346"/>
      <point x="464" y="425"/>
      <point x="283" y="425" type="curve"/>
      <point x="306" y="347" type="line"/>
      <point x="453" y="347"/>
      <point x="562" y="415"/>
      <point x="562" y="551" type="curve"/>
      <point x="562" y="673"/>
      <point x="464" y="736"/>
    </contour>
    <contour>
      <point x="328" y="435" type="curve"/>
      <point x="240" y="435" type="line"/>
      <point x="240" y="596" type="line"/>
      <point x="318" y="596" type="line"/>
      <point x="375" y="596"/>
      <point x="412" y="571"/>
      <point x="412" y="520" type="curve"/>
      <point x="412" y="476"/>
      <point x="385" y="435"/>
    </contour>
    <contour>
      <point x="333" y="135" type="curve"/>
      <point x="240" y="135" type="line"/>
      <point x="240" y="295" type="line"/>
      <point x="323" y="295" type="line"/>
      <point x="385" y="295"/>
      <point x="447" y="280"/>
      <point x="447" y="217" type="curve"/>
      <point x="447" y="160"/>
      <point x="397" y="135"/>
    </contour>
  </outline>
</glyph>
<glyph name="C" format="2">
  <advance width="697"/>
  <unicode hex="0043"/>
  <anchor x="399" y="0" name="bottom"/>
  <anchor x="389" y="756" name="top"/>
  <outline>
    <contour>
      <point x="647" y="61" type="curve"/>
      <point x="587" y="191" type="line"/>
      <point x="558" y="163"/>
      <point x="501" y="132"/>
      <point x="422" y="132" type="curve" smooth="yes"/>
      <point x="287" y="132"/>
      <point x="201" y="228"/>
      <point x="201" y="370" type="curve" smooth="yes"/>
      <point x="201" y="503"/>
      <point x="300" y="604"/>
      <point x="413" y="604" type="curve"/>
      <point x="485" y="604"/>
      <point x="542" y="569"/>
      <point x="575" y="544" type="curve"/>
      <point x="632" y="681" type="line"/>
      <point x="584" y="711"/>
      <point x="506" y="744"/>
      <point x="408" y="744" type="curve" smooth="yes"/>
      <point x="194" y="744"/>
      <point x="50" y="586"/>
      <point x="50" y="362" type="curve" smooth="yes"/>
      <point x="50" y="163"/>
      <point x="186" y="-4"/>
      <point x="419" y="-8" type="curve" smooth="yes"/>
      <point x="532" y="-10"/>
      <point x="622" y="41"/>
    </contour>
  </outline>
</glyph>
<glyph name="D" format="2">
  <advance width="771"/>
  <unicode hex="0044"/>
  <anchor x="398" y="0" name="bottom"/>
  <anchor x="167" y="368" name="center"/>
  <anchor x="318" y="736" name="top"/>
  <outline>
    <contour>
      <point x="95" y="0" type="line"/>
      <point x="351" y="0" type="line"/>
      <point x="551" y="0"/>
      <point x="721" y="136"/>
      <point x="721" y="355" type="curve"/>
      <point x="721" y="540"/>
      <point x="612" y="736"/>
      <point x="315" y="736" type="curve"/>
      <point x="95" y="736" type="line"/>
    </contour>
    <contour>
      <point x="240" y="140" type="line"/>
      <point x="240" y="597" type="line"/>
      <point x="358" y="597" type="line"/>
      <point x="425" y="597"/>
      <point x="571" y="557"/>
      <point x="571" y="365" type="curve"/>
      <point x="571" y="217"/>
      <point x="473" y="140"/>
      <point x="326" y="140" type="curve"/>
    </contour>
  </outline>
</glyph>
<glyph name="E" format="2">
  <advance width="666"/>
  <unicode hex="0045"/>
  <anchor x="346" y="0" name="bottom"/>
  <anchor x="547" y="10" name="ogonek"/>
  <anchor x="346" y="756" name="top"/>
  <anchor x="45" y="736" name="topleft"/>
  <outline>
    <contour>
      <point x="95" y="736" type="line"/>
      <point x="95" y="0" type="line"/>
      <point x="611" y="0" type="line"/>
      <point x="611" y="140" type="line"/>
      <point x="240" y="140" type="line"/>
      <point x="240" y="299" type="line"/>
      <point x="556" y="299" type="line"/>
      <point x="556" y="439" type="line"/>
      <point x="240" y="439" type="line"/>
      <point x="240" y="596" type="line"/>
      <point x="597" y="596" type="line"/>
      <point x="597" y="736" type="line"/>
    </contour>
  </outline>
</glyph>
<glyph name="F" format="2">
  <advance width="600"/>
  <unicode hex="0046"/>
  <anchor x="313" y="0" name="bottom"/>
  <anchor x="313" y="736" name="top"/>
  <outline>
    <contour>
      <point x="95" y="736" type="line"/>
      <point x="95" y="0" type="line"/>
      <point x="240" y="0" type="line"/>
      <point x="240" y="289" type="line"/>
      <point x="513" y="289" type="line"/>
      <point x="513" y="429" type="line"/>
      <point x="240" y="429" type="line"/>
      <point x="240" y="596" type="line"/>
      <point x="555" y="596" type="line"/>
      <point x="555" y="736" type="line"/>
    </contour>
  </outline>
</glyph>
<glyph name="G" format="2">
  <advance width="762"/>
  <unicode hex="0047"/>
  <anchor x="381" y="0" name="bottom"/>
  <anchor x="411" y="736" name="top"/>
  <outline>
    <contour>
      <point x="692" y="74" type="curve"/>
      <point x="692" y="385" type="line"/>
      <point x="418" y="385" type="line"/>
      <point x="418" y="245" type="line"/>
      <point x="545" y="245" type="line"/>
      <point x="545" y="156" type="line"/>
      <point x="521" y="142"/>
      <point x="485" y="137"/>
      <point x="444" y="137" type="curve"/>
      <point x="301" y="137"/>
      <point x="200" y="221"/>
      <point x="200" y="360" type="curve"/>
      <point x="200" y="518"/>
      <point x="288" y="598"/>
      <point x="447" y="598" type="curve"/>
      <point x="494" y="598"/>
      <point x="574" y="575"/>
      <point x="611" y="555" type="curve"/>
      <point x="658" y="690" type="line"/>
      <point x="603" y="720"/>
      <point x="523" y="744"/>
      <point x="428" y="744" type="curve"/>
      <point x="227" y="744"/>
      <point x="50" y="616"/>
      <point x="50" y="347" type="curve"/>
      <point x="50" y="141"/>
      <point x="201" y="-8"/>
      <point x="440" y="-8" type="curve"/>
      <point x="530" y="-8"/>
      <point x="657" y="37"/>
    </contour>
  </outline>
</glyph>
<glyph name="H" format="2">
  <advance width="809"/>
  <unicode hex="0048"/>
  <anchor x="405" y="0" name="bottom"/>
  <anchor x="405" y="368" name="center"/>
  <anchor x="405" y="736" name="top"/>
  <anchor x="45" y="736" name="topleft"/>
  <outline>
    <contour>
      <point x="714" y="736" type="line"/>
      <point x="569" y="736" type="line"/>
      <point x="569" y="439" type="line"/>
      <point x="240" y="439" type="line"/>
      <point x="240" y="736" type="line"/>
      <point x="95" y="736" type="line"/>
      <point x="95" y="0" type="line"/>
      <point x="240" y="0" type="line"/>
      <point x="240" y="299" type="line"/>
      <point x="569" y="299" type="line"/>
      <point x="569" y="0" type="line"/>
      <point x="714" y="0" type="line"/>
    </contour>
  </outline>
</glyph>
<glyph name="J" format="2">
  <advance width="400"/>
  <unicode hex="004A"/>
  <anchor x="168" y="0" name="bottom"/>
  <anchor x="238" y="756" name="top"/>
  <outline>
    <contour>
      <point x="305" y="155" type="curve" smooth="yes"/>
      <point x="305" y="736" type="line"/>
      <point x="159" y="736" type="line"/>
      <point x="159" y="158" type="line" smooth="yes"/>
      <point x="159" y="38"/>
      <point x="96" y="-7"/>
      <point x="5" y="-12" type="curve"/>
      <point x="5" y="-153" type="line"/>
      <point x="5" y="-153" type="line"/>
      <point x="182" y="-148"/>
      <point x="305" y="-37"/>
    </contour>
  </outline>
</glyph>
<glyph name="K" format="2">
  <advance width="704"/>
  <unicode hex="004B"/>
  <anchor x="330" y="0" name="bottom"/>
  <anchor x="380" y="736" name="top"/>
  <outline>
    <contour>
      <point x="242" y="474" type="line"/>
      <point x="242" y="736" type="line"/>
      <point x="95" y="736" type="line"/>
      <point x="95" y="0" type="line"/>
      <point x="242" y="0" type="line"/>
      <point x="242" y="278" type="line"/>
      <point x="278" y="314" type="line"/>
      <point x="505" y="0" type="line"/>
      <point x="689" y="0" type="line"/>
      <point x="384" y="406" type="line"/>
      <point x="688" y="736" type="line"/>
      <point x="500" y="736" type="line"/>
      <point x="260" y="465" type="line"/>
      <point x="238" y="437" type="line"/>
    </contour>
  </outline>
</glyph>
<glyph name="L" format="2">
  <advance width="641"/>
  <unicode hex="004C"/>
  <anchor x="328" y="0" name="bottom"/>
  <anchor x="328" y="368" name="center"/>
  <anchor x="165" y="756" name="top"/>
  <anchor x="611" y="736" name="topright"/>
  <outline>
    <contour>
      <point x="95" y="736" type="line"/>
      <point x="95" y="0" type="line"/>
      <point x="586" y="0" type="line"/>
      <point x="586" y="140" type="line"/>
      <point x="240" y="140" type="line"/>
      <point x="240" y="736" type="line"/>
    </contour>
  </outline>
</glyph>
<glyph name="M" format="2">
  <advance width="948"/>
  <unicode hex="004D"/>
  <anchor x="474" y="0" name="bottom"/>
  <anchor x="474" y="736" name="top"/>
  <outline>
    <contour>
      <point x="95" y="0" type="line"/>
      <point x="235" y="0" type="line"/>
      <point x="235" y="433" type="line"/>
      <point x="210" y="364" type="line"/>
      <point x="466" y="10" type="line"/>
      <point x="468" y="10" type="line"/>
      <point x="717" y="364" type="line"/>
      <point x="708" y="439" type="line"/>
      <point x="708" y="0" type="line"/>
      <point x="853" y="0" type="line"/>
      <point x="853" y="766" type="line"/>
      <point x="851" y="766" type="line"/>
      <point x="443" y="200" type="line"/>
      <point x="505" y="186" type="line"/>
      <point x="96" y="766" type="line"/>
      <point x="95" y="766" type="line"/>
    </contour>
  </outline>
</glyph>
<glyph name="N" format="2">
  <advance width="853"/>
  <unicode hex="004E"/>
  <anchor x="427" y="0" name="bottom"/>
  <anchor x="407" y="736" name="top"/>
  <outline>
    <contour>
      <point x="754" y="-30" type="line"/>
      <point x="758" y="-30" type="line"/>
      <point x="758" y="736" type="line"/>
      <point x="612" y="736" type="line"/>
      <point x="615" y="277" type="line"/>
      <point x="647" y="263" type="line"/>
      <point x="101" y="765" type="line"/>
      <point x="95" y="765" type="line"/>
      <point x="95" y="0" type="line"/>
      <point x="242" y="0" type="line"/>
      <point x="239" y="450" type="line"/>
      <point x="196" y="474" type="line"/>
    </contour>
  </outline>
</glyph>
<glyph name="O" format="2">
  <advance width="852"/>
  <unicode hex="004F"/>
  <anchor x="426" y="0" name="bottom"/>
  <anchor x="426" y="368" name="center"/>
  <anchor x="597" y="10" name="ogonek"/>
  <anchor x="426" y="746" name="top"/>
  <anchor x="20" y="736" name="topleft"/>
  <anchor x="503" y="840" name="topright"/>
  <outline>
    <contour>
      <point x="50" y="367" type="curve"/>
      <point x="50" y="159"/>
      <point x="218" y="-8"/>
      <point x="425" y="-8" type="curve"/>
      <point x="630" y="-8"/>
      <point x="802" y="160"/>
      <point x="802" y="367" type="curve"/>
      <point x="802" y="570"/>
      <point x="630" y="744"/>
      <point x="425" y="744" type="curve"/>
      <point x="218" y="744"/>
      <point x="50" y="570"/>
    </contour>
    <contour>
      <point x="200" y="367" type="curve"/>
      <point x="200" y="500"/>
      <point x="298" y="604"/>
      <point x="426" y="604" type="curve"/>
      <point x="553" y="604"/>
      <point x="652" y="500"/>
      <point x="652" y="367" type="curve"/>
      <point x="652" y="236"/>
      <point x="556" y="132"/>
      <point x="430" y="132" type="curve"/>
      <point x="300" y="132"/>
      <point x="200" y="237"/>
    </contour>
  </outline>
</glyph>
<glyph name="P" format="2">
  <advance width="636"/>
  <unicode hex="0050"/>
  <anchor x="331" y="0" name="bottom"/>
  <anchor x="331" y="736" name="top"/>
  <outline>
    <contour>
      <point x="318" y="736" type="curve" smooth="yes"/>
      <point x="95" y="736" type="line"/>
      <point x="95" y="0" type="line"/>
      <point x="240" y="0" type="line"/>
      <point x="240" y="233" type="line"/>
      <point x="344" y="233" type="line" smooth="yes"/>
      <point x="536" y="233"/>
      <point x="601" y="367"/>
      <point x="601" y="488" type="curve" smooth="yes"/>
      <point x="601" y="639"/>
      <point x="500" y="736"/>
    </contour>
    <contour>
      <point x="343" y="374" type="curve" smooth="yes"/>
      <point x="240" y="374" type="line"/>
      <point x="240" y="596" type="line"/>
      <point x="344" y="596" type="line" smooth="yes"/>
      <point x="446" y="596"/>
      <point x="456" y="513"/>
      <point x="456" y="484" type="curve" smooth="yes"/>
      <point x="456" y="446"/>
      <point x="431" y="374"/>
    </contour>
  </outline>
</glyph>
<glyph name="Q" format="2">
  <advance width="893"/>
  <unicode hex="0051"/>
  <anchor x="435" y="0" name="bottom"/>
  <anchor x="435" y="736" name="top"/>
  <outline>
    <contour>
      <point x="615" y="142" type="line"/>
      <point x="425" y="0" type="line"/>
      <point x="843" y="0" type="line"/>
      <point x="843" y="142" type="line"/>
    </contour>
    <contour>
      <point x="50" y="367" type="curve"/>
      <point x="50" y="160"/>
      <point x="218" y="-8"/>
      <point x="425" y="-8" type="curve"/>
      <point x="630" y="-8"/>
      <point x="802" y="160"/>
      <point x="802" y="367" type="curve"/>
      <point x="802" y="570"/>
      <point x="630" y="744"/>
      <point x="425" y="744" type="curve"/>
      <point x="218" y="744"/>
      <point x="50" y="570"/>
    </contour>
    <contour>
      <point x="200" y="367" type="curve"/>
      <point x="200" y="496"/>
      <point x="298" y="600"/>
      <point x="426" y="600" type="curve"/>
      <point x="553" y="600"/>
      <point x="652" y="496"/>
      <point x="652" y="367" type="curve"/>
      <point x="652" y="237"/>
      <point x="556" y="133"/>
      <point x="430" y="133" type="curve"/>
      <point x="300" y="133"/>
      <point x="200" y="238"/>
    </contour>
  </outline>
</glyph>
<glyph name="R" format="2">
  <advance width="686"/>
  <unicode hex="0052"/>
  <anchor x="361" y="0" name="bottom"/>
  <anchor x="321" y="756" name="top"/>
  <outline>
    <contour>
      <point x="318" y="736" type="curve"/>
      <point x="95" y="736" type="line"/>
      <point x="95" y="0" type="line"/>
      <point x="240" y="0" type="line"/>
      <point x="240" y="234" type="line"/>
      <point x="344" y="234" type="line"/>
      <point x="540" y="234"/>
      <point x="606" y="367"/>
      <point x="606" y="488" type="curve"/>
      <point x="606" y="639"/>
      <point x="503" y="736"/>
    </contour>
    <contour>
      <point x="343" y="374" type="curve"/>
      <point x="240" y="374" type="line"/>
      <point x="240" y="596" type="line"/>
      <point x="344" y="596" type="line"/>
      <point x="446" y="596"/>
      <point x="456" y="514"/>
      <point x="456" y="483" type="curve"/>
      <point x="456" y="441"/>
      <point x="431" y="374"/>
    </contour>
    <contour>
      <point x="479" y="284" type="line"/>
      <point x="306" y="280" type="line"/>
      <point x="492" y="0" type="line"/>
      <point x="661" y="0" type="line"/>
    </contour>
  </outline>
</glyph>
<glyph name="S" format="2">
  <advance width="583"/>
  <unicode hex="0053"/>
  <anchor x="289" y="-10" name="bottom"/>
  <anchor x="289" y="736" name="top"/>
  <outline>
    <contour>
      <point x="488" y="558" type="curve"/>
      <point x="543" y="669" type="line"/>
      <point x="484" y="708"/>
      <point x="418" y="740"/>
      <point x="299" y="740" type="curve"/>
      <point x="162" y="733"/>
      <point x="70" y="652"/>
      <point x="70" y="524" type="curve"/>
      <point x="70" y="383"/>
      <point x="188" y="337"/>
      <point x="278" y="302" type="curve" smooth="yes"/>
      <point x="336" y="279"/>
      <point x="385" y="247"/>
      <point x="385" y="203" type="curve"/>
      <point x="385" y="139"/>
      <point x="323" y="120"/>
      <point x="271" y="120" type="curve"/>
      <point x="219" y="120"/>
      <point x="147" y="146"/>
      <point x="96" y="184" type="curve"/>
      <point x="32" y="71" type="line"/>
      <point x="109" y="16"/>
      <point x="200" y="-8"/>
      <point x="284" y="-8" type="curve"/>
      <point x="448" y="-8"/>
      <point x="536" y="91"/>
      <point x="536" y="203" type="curve"/>
      <point x="536" y="343"/>
      <point x="447" y="391"/>
      <point x="361" y="423" type="curve" smooth="yes"/>
      <point x="290" y="449"/>
      <point x="220" y="483"/>
      <point x="220" y="535" type="curve"/>
      <point x="220" y="586"/>
      <point x="258" y="611"/>
      <point x="321" y="611" type="curve"/>
      <point x="372" y="611"/>
      <point x="432" y="589"/>
    </contour>
  </outline>
</glyph>
<glyph name="T" format="2">
  <advance width="586"/>
  <unicode hex="0054"/>
  <anchor x="293" y="0" name="bottom"/>
  <anchor x="293" y="368" name="center"/>
  <anchor x="293" y="736" name="top"/>
  <outline>
    <contour>
      <point x="45" y="736" type="line"/>
      <point x="45" y="596" type="line"/>
      <point x="217" y="596" type="line"/>
      <point x="217" y="0" type="line"/>
      <point x="362" y="0" type="line"/>
      <point x="362" y="596" type="line"/>
      <point x="541" y="596" type="line"/>
      <point x="541" y="736" type="line"/>
    </contour>
  </outline>
</glyph>
<glyph name="U" format="2">
  <advance width="756"/>
  <unicode hex="0055"/>
  <anchor x="378" y="0" name="bottom"/>
  <anchor x="542" y="10" name="ogonek"/>
  <anchor x="378" y="756" name="top"/>
  <anchor x="660" y="769" name="topright"/>
  <outline>
    <contour>
      <point x="225" y="272" type="curve" smooth="yes"/>
      <point x="225" y="736" type="line"/>
      <point x="80" y="736" type="line"/>
      <point x="80" y="269" type="line" smooth="yes"/>
      <point x="80" y="107"/>
      <point x="212" y="-8"/>
      <point x="377" y="-8" type="curve" smooth="yes"/>
      <point x="377" y="-8" type="line" smooth="yes"/>
      <point x="543" y="-8"/>
      <point x="676" y="107"/>
      <point x="676" y="269" type="curve" smooth="yes"/>
      <point x="676" y="736" type="line"/>
      <point x="533" y="736" type="line"/>
      <point x="533" y="272" type="line" smooth="yes"/>
      <point x="533" y="202"/>
      <point x="466" y="133"/>
      <point x="377" y="133" type="curve" smooth="yes"/>
      <point x="295" y="133"/>
      <point x="225" y="202"/>
    </contour>
  </outline>
</glyph>
<glyph name="V" format="2">
  <advance width="736"/>
  <unicode hex="0056"/>
  <anchor x="368" y="0" name="bottom"/>
  <anchor x="368" y="736" name="top"/>
  <outline>
    <contour>
      <point x="206" y="736" type="line"/>
      <point x="32" y="736" type="line"/>
      <point x="368" y="-34" type="line"/>
      <point x="704" y="736" type="line"/>
      <point x="532" y="736" type="line"/>
      <point x="337" y="223" type="line"/>
      <point x="421" y="206" type="line"/>
    </contour>
  </outline>
</glyph>
<glyph name="W" format="2">
  <advance width="1023"/>
  <unicode hex="0057"/>
  <anchor x="512" y="0" name="bottom"/>
  <anchor x="512" y="746" name="top"/>
  <outline>
    <contour>
      <point x="32" y="731" type="line"/>
      <point x="328" y="-34" type="line"/>
      <point x="540" y="421" type="line"/>
      <point x="473" y="620" type="line"/>
      <point x="336" y="279" type="line"/>
      <point x="359" y="269" type="line"/>
      <point x="202" y="731" type="line"/>
    </contour>
    <contour>
      <point x="401" y="731" type="line"/>
      <point x="707" y="-32" type="line"/>
      <point x="991" y="731" type="line"/>
      <point x="835" y="731" type="line"/>
      <point x="700" y="288" type="line"/>
      <point x="726" y="284" type="line"/>
      <point x="545" y="731" type="line"/>
    </contour>
  </outline>
</glyph>
<glyph name="X" format="2">
  <advance width="725"/>
  <unicode hex="0058"/>
  <anchor x="363" y="0" name="bottom"/>
  <anchor x="363" y="736" name="top"/>
  <outline>
    <contour>
      <point x="35" y="736" type="line"/>
      <point x="513" y="0" type="line"/>
      <point x="700" y="0" type="line"/>
      <point x="220" y="736" type="line"/>
    </contour>
    <contour>
      <point x="25" y="0" type="line"/>
      <point x="205" y="0" type="line"/>
      <point x="355" y="266" type="line"/>
      <point x="287" y="412" type="line"/>
    </contour>
    <contour>
      <point x="365" y="466" type="line"/>
      <point x="440" y="341" type="line"/>
      <point x="693" y="736" type="line"/>
      <point x="517" y="736" type="line"/>
    </contour>
  </outline>
</glyph>
<glyph name="Y" format="2">
  <advance width="722"/>
  <unicode hex="0059"/>
  <anchor x="361" y="0" name="bottom"/>
  <anchor x="381" y="756" name="top"/>
  <anchor x="10" y="736" name="topleft"/>
  <outline>
    <contour>
      <point x="286" y="229" type="line"/>
      <point x="286" y="0" type="line"/>
      <point x="431" y="0" type="line"/>
      <point x="431" y="229" type="line"/>
      <point x="707" y="736" type="line"/>
      <point x="528" y="736" type="line"/>
      <point x="341" y="351" type="line"/>
      <point x="384" y="354" type="line"/>
      <point x="194" y="736" type="line"/>
      <point x="15" y="736" type="line"/>
    </contour>
  </outline>
</glyph>
<glyph name="Z" format="2">
  <advance width="722"/>
  <unicode hex="005A"/>
  <anchor x="361" y="0" name="bottom"/>
  <anchor x="361" y="736" name="top"/>
  <outline>
    <contour>
      <point x="45" y="0" type="curve"/>
      <point x="671" y="0" type="line"/>
      <point x="671" y="140" type="line"/>
      <point x="276" y="140" type="line"/>
      <point x="284" y="124" type="line"/>
      <point x="672" y="736" type="line"/>
      <point x="263" y="736" type="line"/>
      <point x="239" y="736"/>
      <point x="231" y="730"/>
      <point x="231" y="759" type="curve" smooth="yes"/>
      <point x="231" y="773" type="line"/>
      <point x="98" y="773" type="line"/>
      <point x="98" y="668" type="line" smooth="yes"/>
      <point x="98" y="627"/>
      <point x="152" y="596"/>
      <point x="195" y="596" type="curve" smooth="yes"/>
      <point x="460" y="596" type="line"/>
      <point x="444" y="636" type="line"/>
      <point x="444" y="636"/>
      <point x="45" y="0"/>
    </contour>
  </outline>
</glyph>
<glyph name="bracketleft" format="2">
  <advance width="374"/>
  <unicode hex="005B"/>
  <outline>
    <contour>
      <point x="95" y="761" type="line"/>
      <point x="95" y="-152" type="line"/>
      <point x="329" y="-152" type="line"/>
      <point x="329" y="-23" type="line"/>
      <point x="240" y="-23" type="line"/>
      <point x="240" y="631" type="line"/>
      <point x="329" y="631" type="line"/>
      <point x="329" y="761" type="line"/>
    </contour>
  </outline>
</glyph>
<glyph name="backslash" format="2">
  <advance width="430"/>
  <unicode hex="005C"/>
  <outline>
    <contour>
      <point x="132" y="751" type="curve"/>
      <point x="-10" y="751" type="line"/>
      <point x="85" y="494"/>
      <point x="179" y="238"/>
      <point x="274" y="-19" type="curve"/>
      <point x="416" y="-19" type="line"/>
      <point x="321" y="238"/>
      <point x="227" y="494"/>
    </contour>
  </outline>
</glyph>
<glyph name="bracketright" format="2">
  <advance width="374"/>
  <unicode hex="005D"/>
  <outline>
    <contour>
      <point x="279" y="-152" type="line"/>
      <point x="279" y="761" type="line"/>
      <point x="45" y="761" type="line"/>
      <point x="45" y="632" type="line"/>
      <point x="134" y="632" type="line"/>
      <point x="134" y="-22" type="line"/>
      <point x="45" y="-22" type="line"/>
      <point x="45" y="-152" type="line"/>
    </contour>
  </outline>
</glyph>
<glyph name="asciicircum" format="2">
  <advance width="479"/>
  <unicode hex="005E"/>
  <outline>
    <contour>
      <point x="274" y="489" type="curve"/>
      <point x="359" y="489" type="line"/>
      <point x="318" y="550"/>
      <point x="277" y="612"/>
      <point x="236" y="673" type="curve"/>
      <point x="236" y="673" type="line"/>
      <point x="196" y="612"/>
      <point x="155" y="550"/>
      <point x="114" y="489" type="curve"/>
      <point x="199" y="489" type="line"/>
      <point x="199" y="489"/>
      <point x="236" y="534"/>
      <point x="236" y="534" type="curve"/>
      <point x="236" y="534"/>
      <point x="274" y="489"/>
    </contour>
  </outline>
</glyph>
<glyph name="grave" format="2">
  <advance width="317"/>
  <unicode hex="0060"/>
  <outline>
    <contour>
      <point x="30" y="624" type="line"/>
      <point x="162" y="489" type="line"/>
      <point x="247" y="489" type="line"/>
      <point x="185" y="624" type="line"/>
    </contour>
  </outline>
</glyph>
<glyph name="a" format="2">
  <advance width="614"/>
  <unicode hex="0061"/>
  <anchor x="307" y="0" name="bottom"/>
  <anchor x="629" y="10" name="ogonek"/>
  <anchor x="327" y="457" name="top"/>
  <outline>
    <contour>
      <point x="256" y="-12" type="curve"/>
      <point x="359" y="-12"/>
      <point x="408" y="65"/>
      <point x="413" y="65" type="curve"/>
      <point x="402" y="95" type="line"/>
      <point x="402" y="0" type="line"/>
      <point x="542" y="0" type="line"/>
      <point x="542" y="437" type="line"/>
      <point x="412" y="437" type="line"/>
      <point x="399" y="373" type="line"/>
      <point x="405" y="390" type="line"/>
      <point x="376" y="425"/>
      <point x="338" y="459"/>
      <point x="251" y="459" type="curve"/>
      <point x="140" y="459"/>
      <point x="38" y="366"/>
      <point x="38" y="218" type="curve"/>
      <point x="38" y="59"/>
      <point x="134" y="-12"/>
    </contour>
    <contour>
      <point x="296" y="102" type="curve"/>
      <point x="234" y="102"/>
      <point x="180" y="155"/>
      <point x="180" y="225" type="curve"/>
      <point x="180" y="295"/>
      <point x="231" y="345"/>
      <point x="291" y="345" type="curve"/>
      <point x="344" y="345"/>
      <point x="386" y="318"/>
      <point x="402" y="275" type="curve"/>
      <point x="402" y="168" type="line"/>
      <point x="380" y="124"/>
      <point x="346" y="102"/>
    </contour>
  </outline>
</glyph>
<glyph name="b" format="2">
  <advance width="624"/>
  <unicode hex="0062"/>
  <anchor x="313" y="0" name="bottom"/>
  <anchor x="313" y="437" name="top"/>
  <outline>
    <contour>
      <point x="359" y="-12" type="curve"/>
      <point x="479" y="-12"/>
      <point x="586" y="79"/>
      <point x="586" y="228" type="curve"/>
      <point x="586" y="376"/>
      <point x="491" y="459"/>
      <point x="378" y="459" type="curve"/>
      <point x="304" y="459"/>
      <point x="246" y="436"/>
      <point x="211" y="407" type="curve"/>
      <point x="211" y="362" type="line"/>
      <point x="211" y="789" type="line"/>
      <point x="72" y="789" type="line"/>
      <point x="72" y="0" type="line"/>
      <point x="212" y="0" type="line"/>
      <point x="212" y="85" type="line"/>
      <point x="201" y="55" type="line"/>
      <point x="238" y="15"/>
      <point x="285" y="-12"/>
    </contour>
    <contour>
      <point x="328" y="106" type="curve"/>
      <point x="273" y="106"/>
      <point x="236" y="128"/>
      <point x="212" y="172" type="curve"/>
      <point x="212" y="279" type="line"/>
      <point x="229" y="322"/>
      <point x="273" y="349"/>
      <point x="328" y="349" type="curve"/>
      <point x="390" y="349"/>
      <point x="444" y="299"/>
      <point x="444" y="229" type="curve"/>
      <point x="444" y="159"/>
      <point x="390" y="106"/>
    </contour>
  </outline>
</glyph>
<glyph name="c" format="2">
  <advance width="479"/>
  <unicode hex="0063"/>
  <anchor x="238" y="0" name="bottom"/>
  <anchor x="256" y="447" name="top"/>
  <outline>
    <contour>
      <point x="443" y="39" type="curve"/>
      <point x="373" y="127" type="line"/>
      <point x="354" y="111"/>
      <point x="328" y="102"/>
      <point x="297" y="102" type="curve" smooth="yes"/>
      <point x="225" y="102"/>
      <point x="178" y="154"/>
      <point x="178" y="219" type="curve" smooth="yes"/>
      <point x="178" y="287"/>
      <point x="225" y="335"/>
      <point x="283" y="335" type="curve" smooth="yes"/>
      <point x="327" y="335"/>
      <point x="360" y="316"/>
      <point x="379" y="301" type="curve"/>
      <point x="447" y="391" type="line"/>
      <point x="406" y="426"/>
      <point x="349" y="449"/>
      <point x="270" y="449" type="curve" smooth="yes"/>
      <point x="151" y="449"/>
      <point x="38" y="365"/>
      <point x="38" y="219" type="curve" smooth="yes"/>
      <point x="38" y="73"/>
      <point x="135" y="-12"/>
      <point x="285" y="-12" type="curve" smooth="yes"/>
      <point x="341" y="-12"/>
      <point x="404" y="8"/>
    </contour>
  </outline>
</glyph>
<glyph name="d" format="2">
  <advance width="624"/>
  <unicode hex="0064"/>
  <anchor x="312" y="0" name="bottom"/>
  <anchor x="479" y="642" name="center"/>
  <anchor x="312" y="437" name="top"/>
  <anchor x="607" y="437" name="topright"/>
  <outline>
    <contour>
      <point x="250" y="-12" type="curve"/>
      <point x="323" y="-12"/>
      <point x="378" y="17"/>
      <point x="423" y="55" type="curve"/>
      <point x="412" y="85" type="line"/>
      <point x="412" y="0" type="line"/>
      <point x="552" y="0" type="line"/>
      <point x="552" y="789" type="line"/>
      <point x="413" y="789" type="line"/>
      <point x="413" y="362" type="line"/>
      <point x="413" y="406" type="line"/>
      <point x="378" y="442"/>
      <point x="324" y="459"/>
      <point x="268" y="459" type="curve"/>
      <point x="135" y="459"/>
      <point x="38" y="375"/>
      <point x="38" y="227" type="curve"/>
      <point x="38" y="78"/>
      <point x="128" y="-12"/>
    </contour>
    <contour>
      <point x="296" y="106" type="curve"/>
      <point x="234" y="106"/>
      <point x="180" y="159"/>
      <point x="180" y="229" type="curve"/>
      <point x="180" y="299"/>
      <point x="234" y="349"/>
      <point x="296" y="349" type="curve"/>
      <point x="352" y="349"/>
      <point x="396" y="322"/>
      <point x="412" y="279" type="curve"/>
      <point x="412" y="172" type="line"/>
      <point x="388" y="128"/>
      <point x="352" y="106"/>
    </contour>
  </outline>
</glyph>
<glyph name="e" format="2">
  <advance width="553"/>
  <unicode hex="0065"/>
  <anchor x="278" y="0" name="bottom"/>
  <anchor x="475" y="10" name="ogonek"/>
  <anchor x="290" y="458" name="top"/>
  <outline>
    <contour>
      <point x="287" y="-12" type="curve"/>
      <point x="335" y="-12"/>
      <point x="392" y="5"/>
      <point x="439" y="32" type="curve"/>
      <point x="377" y="136" type="line"/>
      <point x="349" y="118"/>
      <point x="321" y="107"/>
      <point x="290" y="107" type="curve"/>
      <point x="226" y="107"/>
      <point x="176" y="149"/>
      <point x="176" y="231" type="curve"/>
      <point x="176" y="303"/>
      <point x="216" y="349"/>
      <point x="279" y="349" type="curve"/>
      <point x="334" y="349"/>
      <point x="358" y="318"/>
      <point x="369" y="284" type="curve"/>
      <point x="398" y="297" type="line"/>
      <point x="152" y="214" type="line"/>
      <point x="183" y="138" type="line"/>
      <point x="523" y="246" type="line"/>
      <point x="499" y="383"/>
      <point x="415" y="458"/>
      <point x="290" y="458" type="curve"/>
      <point x="150" y="458"/>
      <point x="38" y="354"/>
      <point x="38" y="223" type="curve"/>
      <point x="38" y="85"/>
      <point x="127" y="-12"/>
    </contour>
  </outline>
</glyph>
<glyph name="f" format="2">
  <advance width="435"/>
  <unicode hex="0066"/>
  <anchor x="218" y="0" name="bottom"/>
  <anchor x="218" y="437" name="top"/>
  <outline>
    <contour>
      <point x="114" y="0" type="line"/>
      <point x="254" y="0" type="line"/>
      <point x="254" y="315" type="line"/>
      <point x="386" y="315" type="line"/>
      <point x="386" y="439" type="line"/>
      <point x="254" y="439" type="line"/>
      <point x="254" y="587" type="line"/>
      <point x="254" y="645"/>
      <point x="282" y="671"/>
      <point x="322" y="671" type="curve"/>
      <point x="338" y="671"/>
      <point x="357" y="666"/>
      <point x="371" y="649" type="curve"/>
      <point x="430" y="750" type="line"/>
      <point x="395" y="775"/>
      <point x="344" y="786"/>
      <point x="307" y="786" type="curve"/>
      <point x="182" y="786"/>
      <point x="114" y="705"/>
      <point x="114" y="591" type="curve"/>
      <point x="114" y="439" type="line"/>
      <point x="40" y="439" type="line"/>
      <point x="40" y="315" type="line"/>
      <point x="114" y="315" type="line"/>
    </contour>
  </outline>
</glyph>
<glyph name="g" format="2">
  <advance width="633"/>
  <unicode hex="0067"/>
  <anchor x="316" y="0" name="bottom"/>
  <anchor x="316" y="457" name="top"/>
  <outline>
    <contour>
      <point x="298" y="-220" type="curve"/>
      <point x="441" y="-220"/>
      <point x="561" y="-128"/>
      <point x="561" y="0" type="curve"/>
      <point x="561" y="437" type="line"/>
      <point x="432" y="437" type="line"/>
      <point x="417" y="389" type="line"/>
      <point x="422" y="402" type="line"/>
      <point x="394" y="434"/>
      <point x="337" y="459"/>
      <point x="261" y="459" type="curve"/>
      <point x="147" y="459"/>
      <point x="38" y="358"/>
      <point x="38" y="221" type="curve"/>
      <point x="38" y="87"/>
      <point x="139" y="-12"/>
      <point x="258" y="-12" type="curve"/>
      <point x="349" y="-12"/>
      <point x="404" y="28"/>
      <point x="426" y="73" type="curve"/>
      <point x="421" y="98" type="line"/>
      <point x="421" y="2" type="line"/>
      <point x="421" y="-64"/>
      <point x="362" y="-98"/>
      <point x="296" y="-98" type="curve"/>
      <point x="229" y="-98"/>
      <point x="192" y="-66"/>
      <point x="162" y="-38" type="curve"/>
      <point x="80" y="-134" type="line"/>
      <point x="124" y="-170"/>
      <point x="180" y="-220"/>
    </contour>
    <contour>
      <point x="179" y="225" type="curve"/>
      <point x="179" y="295"/>
      <point x="232" y="345"/>
      <point x="300" y="345" type="curve"/>
      <point x="357" y="345"/>
      <point x="402" y="318"/>
      <point x="421" y="275" type="curve"/>
      <point x="421" y="168" type="line"/>
      <point x="396" y="124"/>
      <point x="357" y="102"/>
      <point x="300" y="102" type="curve"/>
      <point x="232" y="102"/>
      <point x="179" y="155"/>
    </contour>
  </outline>
</glyph>
<glyph name="h" format="2">
  <advance width="594"/>
  <unicode hex="0068"/>
  <anchor x="297" y="0" name="bottom"/>
  <anchor x="156" y="625" name="center"/>
  <anchor x="141" y="789" name="top"/>
  <outline>
    <contour>
      <point x="72" y="0" type="line"/>
      <point x="212" y="0" type="line"/>
      <point x="212" y="178" type="line"/>
      <point x="212" y="271"/>
      <point x="253" y="339"/>
      <point x="318" y="339" type="curve"/>
      <point x="363" y="339"/>
      <point x="380" y="314"/>
      <point x="382" y="275" type="curve"/>
      <point x="382" y="0" type="line"/>
      <point x="522" y="0" type="line"/>
      <point x="522" y="327" type="line"/>
      <point x="520" y="404"/>
      <point x="458" y="458"/>
      <point x="376" y="458" type="curve"/>
      <point x="295" y="458"/>
      <point x="239" y="421"/>
      <point x="208" y="366" type="curve"/>
      <point x="209" y="349" type="line"/>
      <point x="209" y="789" type="line"/>
      <point x="72" y="789" type="line"/>
    </contour>
  </outline>
</glyph>
<glyph name="k" format="2">
  <advance width="546"/>
  <unicode hex="006B"/>
  <anchor x="272" y="0" name="bottom"/>
  <anchor x="272" y="437" name="top"/>
  <outline>
    <contour>
      <point x="72" y="0" type="line"/>
      <point x="212" y="0" type="line"/>
      <point x="212" y="789" type="line"/>
      <point x="72" y="789" type="line"/>
    </contour>
    <contour>
      <point x="323" y="297" type="line"/>
      <point x="231" y="217" type="line"/>
      <point x="358" y="0" type="line"/>
      <point x="521" y="0" type="line"/>
    </contour>
    <contour>
      <point x="170" y="121" type="line"/>
      <point x="505" y="373" type="line"/>
      <point x="420" y="448" type="line"/>
      <point x="156" y="254" type="line"/>
    </contour>
  </outline>
</glyph>
<glyph name="l" format="2">
  <advance width="284"/>
  <unicode hex="006C"/>
  <anchor x="142" y="0" name="bottom"/>
  <anchor x="142" y="219" name="center"/>
  <anchor x="142" y="807" name="top"/>
  <anchor x="267" y="437" name="topright"/>
  <outline>
    <contour>
      <point x="72" y="789" type="line"/>
      <point x="72" y="0" type="line"/>
      <point x="212" y="0" type="line"/>
      <point x="212" y="789" type="line"/>
    </contour>
  </outline>
</glyph>
<glyph name="m" format="2">
  <advance width="863"/>
  <unicode hex="006D"/>
  <anchor x="432" y="0" name="bottom"/>
  <anchor x="432" y="437" name="top"/>
  <outline>
    <contour>
      <point x="199" y="437" type="line"/>
      <point x="72" y="437" type="line"/>
      <point x="72" y="0" type="line"/>
      <point x="212" y="0" type="line"/>
      <point x="212" y="181" type="line"/>
      <point x="212" y="257"/>
      <point x="247" y="338"/>
      <point x="313" y="338" type="curve"/>
      <point x="352" y="335"/>
      <point x="360" y="309"/>
      <point x="362" y="270" type="curve"/>
      <point x="362" y="0" type="line"/>
      <point x="502" y="0" type="line"/>
      <point x="502" y="179" type="line"/>
      <point x="502" y="257"/>
      <point x="537" y="338"/>
      <point x="606" y="338" type="curve"/>
      <point x="644" y="335"/>
      <point x="650" y="309"/>
      <point x="652" y="270" type="curve"/>
      <point x="652" y="0" type="line"/>
      <point x="791" y="0" type="line"/>
      <point x="791" y="328" type="line"/>
      <point x="789" y="405"/>
      <point x="735" y="459"/>
      <point x="648" y="459" type="curve"/>
      <point x="590" y="459"/>
      <point x="535" y="423"/>
      <point x="498" y="368" type="curve"/>
      <point x="503" y="369" type="line"/>
      <point x="488" y="430"/>
      <point x="438" y="459"/>
      <point x="367" y="459" type="curve"/>
      <point x="294" y="459"/>
      <point x="242" y="425"/>
      <point x="208" y="366" type="curve"/>
      <point x="210" y="360" type="line"/>
    </contour>
  </outline>
</glyph>
<glyph name="n" format="2">
  <advance width="594"/>
  <unicode hex="006E"/>
  <anchor x="297" y="0" name="bottom"/>
  <anchor x="297" y="447" name="top"/>
  <outline>
    <contour>
      <point x="199" y="437" type="line"/>
      <point x="72" y="437" type="line"/>
      <point x="72" y="0" type="line"/>
      <point x="212" y="0" type="line"/>
      <point x="212" y="178" type="line"/>
      <point x="212" y="271"/>
      <point x="253" y="339"/>
      <point x="318" y="339" type="curve"/>
      <point x="363" y="339"/>
      <point x="380" y="314"/>
      <point x="382" y="275" type="curve"/>
      <point x="382" y="0" type="line"/>
      <point x="522" y="0" type="line"/>
      <point x="522" y="327" type="line"/>
      <point x="520" y="404"/>
      <point x="458" y="458"/>
      <point x="376" y="458" type="curve"/>
      <point x="295" y="458"/>
      <point x="239" y="421"/>
      <point x="208" y="366" type="curve"/>
      <point x="210" y="359" type="line"/>
    </contour>
  </outline>
</glyph>
<glyph name="o" format="2">
  <advance width="571"/>
  <unicode hex="006F"/>
  <anchor x="286" y="0" name="bottom"/>
  <anchor x="286" y="219" name="center"/>
  <anchor x="517" y="10" name="ogonek"/>
  <anchor x="286" y="457" name="top"/>
  <anchor x="450" y="437" name="topright"/>
  <outline>
    <contour>
      <point x="38" y="224" type="curve"/>
      <point x="38" y="76"/>
      <point x="142" y="-12"/>
      <point x="287" y="-12" type="curve"/>
      <point x="440" y="-12"/>
      <point x="533" y="90"/>
      <point x="533" y="224" type="curve"/>
      <point x="533" y="358"/>
      <point x="439" y="458"/>
      <point x="289" y="458" type="curve"/>
      <point x="140" y="458"/>
      <point x="38" y="358"/>
    </contour>
    <contour>
      <point x="179" y="223" type="curve"/>
      <point x="179" y="292"/>
      <point x="224" y="344"/>
      <point x="285" y="344" type="curve"/>
      <point x="350" y="344"/>
      <point x="392" y="292"/>
      <point x="392" y="223" type="curve"/>
      <point x="392" y="154"/>
      <point x="350" y="102"/>
      <point x="285" y="102" type="curve"/>
      <point x="224" y="102"/>
      <point x="179" y="154"/>
    </contour>
  </outline>
</glyph>
<glyph name="p" format="2">
  <advance width="624"/>
  <unicode hex="0070"/>
  <anchor x="313" y="0" name="bottom"/>
  <anchor x="313" y="437" name="top"/>
  <outline>
    <contour>
      <point x="346" y="-12" type="curve"/>
      <point x="485" y="-12"/>
      <point x="586" y="72"/>
      <point x="586" y="220" type="curve"/>
      <point x="586" y="369"/>
      <point x="496" y="459"/>
      <point x="374" y="459" type="curve"/>
      <point x="301" y="459"/>
      <point x="246" y="430"/>
      <point x="201" y="392" type="curve"/>
      <point x="212" y="362" type="line"/>
      <point x="192" y="447" type="line"/>
      <point x="72" y="447" type="line"/>
      <point x="72" y="-210" type="line"/>
      <point x="211" y="-210" type="line"/>
      <point x="211" y="85" type="line"/>
      <point x="207" y="44" type="line"/>
      <point x="240" y="8"/>
      <point x="294" y="-12"/>
    </contour>
    <contour>
      <point x="318" y="98" type="curve"/>
      <point x="267" y="98"/>
      <point x="227" y="125"/>
      <point x="212" y="168" type="curve"/>
      <point x="212" y="275" type="line"/>
      <point x="236" y="319"/>
      <point x="272" y="341"/>
      <point x="328" y="341" type="curve"/>
      <point x="392" y="341"/>
      <point x="444" y="292"/>
      <point x="444" y="218" type="curve"/>
      <point x="444" y="147"/>
      <point x="385" y="98"/>
    </contour>
  </outline>
</glyph>
<glyph name="q" format="2">
  <advance width="624"/>
  <unicode hex="0071"/>
  <anchor x="312" y="0" name="bottom"/>
  <anchor x="312" y="437" name="top"/>
  <outline>
    <contour>
      <point x="246" y="-12" type="curve"/>
      <point x="320" y="-12"/>
      <point x="380" y="11"/>
      <point x="415" y="40" type="curve"/>
      <point x="413" y="85" type="line"/>
      <point x="413" y="-210" type="line"/>
      <point x="552" y="-210" type="line"/>
      <point x="552" y="447" type="line"/>
      <point x="412" y="447" type="line"/>
      <point x="412" y="362" type="line"/>
      <point x="423" y="392" type="line"/>
      <point x="386" y="432"/>
      <point x="340" y="459"/>
      <point x="265" y="459" type="curve"/>
      <point x="145" y="459"/>
      <point x="38" y="368"/>
      <point x="38" y="219" type="curve"/>
      <point x="38" y="71"/>
      <point x="133" y="-12"/>
    </contour>
    <contour>
      <point x="296" y="98" type="curve"/>
      <point x="234" y="98"/>
      <point x="180" y="148"/>
      <point x="180" y="218" type="curve"/>
      <point x="180" y="288"/>
      <point x="234" y="341"/>
      <point x="296" y="341" type="curve"/>
      <point x="352" y="341"/>
      <point x="388" y="319"/>
      <point x="412" y="275" type="curve"/>
      <point x="412" y="168" type="line"/>
      <point x="396" y="125"/>
      <point x="352" y="98"/>
    </contour>
  </outline>
</glyph>
<glyph name="r" format="2">
  <advance width="410"/>
  <unicode hex="0072"/>
  <anchor x="127" y="0" name="bottom"/>
  <anchor x="194" y="437" name="top"/>
  <outline>
    <contour>
      <point x="198" y="437" type="line"/>
      <point x="72" y="437" type="line"/>
      <point x="72" y="0" type="line"/>
      <point x="211" y="0" type="line"/>
      <point x="211" y="171" type="line"/>
      <point x="211" y="247"/>
      <point x="270" y="330"/>
      <point x="368" y="319" type="curve"/>
      <point x="375" y="459" type="line"/>
      <point x="340" y="459"/>
      <point x="246" y="412"/>
      <point x="208" y="335" type="curve"/>
      <point x="211" y="317" type="line"/>
    </contour>
  </outline>
</glyph>
<glyph name="s" format="2">
  <advance width="447"/>
  <unicode hex="0073"/>
  <anchor x="219" y="-10" name="bottom"/>
  <anchor x="225" y="447" name="top"/>
  <outline>
    <contour>
      <point x="214" y="-9" type="curve"/>
      <point x="341" y="-9"/>
      <point x="402" y="65"/>
      <point x="402" y="146" type="curve"/>
      <point x="402" y="211"/>
      <point x="362" y="249"/>
      <point x="299" y="270" type="curve"/>
      <point x="252" y="285"/>
      <point x="196" y="292"/>
      <point x="198" y="331" type="curve"/>
      <point x="198" y="349"/>
      <point x="219" y="366"/>
      <point x="255" y="365" type="curve"/>
      <point x="282" y="364"/>
      <point x="316" y="348"/>
      <point x="341" y="328" type="curve"/>
      <point x="394" y="410" type="line"/>
      <point x="348" y="443"/>
      <point x="302" y="457"/>
      <point x="229" y="457" type="curve"/>
      <point x="106" y="457"/>
      <point x="56" y="378"/>
      <point x="56" y="312" type="curve"/>
      <point x="56" y="254"/>
      <point x="89" y="202"/>
      <point x="169" y="177" type="curve"/>
      <point x="216" y="163"/>
      <point x="262" y="154"/>
      <point x="262" y="120" type="curve"/>
      <point x="262" y="96"/>
      <point x="236" y="86"/>
      <point x="202" y="86" type="curve"/>
      <point x="173" y="86"/>
      <point x="135" y="101"/>
      <point x="93" y="140" type="curve"/>
      <point x="35" y="63" type="line"/>
      <point x="77" y="17"/>
      <point x="142" y="-9"/>
    </contour>
  </outline>
</glyph>
<glyph name="t" format="2">
  <advance width="394"/>
  <unicode hex="0074"/>
  <anchor x="176" y="0" name="bottom"/>
  <anchor x="187" y="190" name="center"/>
  <anchor x="187" y="437" name="top"/>
  <anchor x="374" y="437" name="topright"/>
  <outline>
    <contour>
      <point x="113" y="629" type="line"/>
      <point x="113" y="439" type="line"/>
      <point x="45" y="439" type="line"/>
      <point x="45" y="330" type="line"/>
      <point x="113" y="330" type="line"/>
      <point x="113" y="0" type="line"/>
      <point x="253" y="0" type="line"/>
      <point x="253" y="330" type="line"/>
      <point x="359" y="330" type="line"/>
      <point x="359" y="439" type="line"/>
      <point x="253" y="439" type="line"/>
      <point x="253" y="629" type="line"/>
    </contour>
  </outline>
</glyph>
<glyph name="u" format="2">
  <advance width="584"/>
  <unicode hex="0075"/>
  <anchor x="292" y="0" name="bottom"/>
  <anchor x="608" y="10" name="ogonek"/>
  <anchor x="294" y="457" name="top"/>
  <anchor x="507" y="437" name="topright"/>
  <outline>
    <contour>
      <point x="213" y="-21" type="curve"/>
      <point x="291" y="-21"/>
      <point x="346" y="16"/>
      <point x="376" y="71" type="curve"/>
      <point x="374" y="80" type="line"/>
      <point x="385" y="0" type="line"/>
      <point x="512" y="0" type="line"/>
      <point x="512" y="437" type="line"/>
      <point x="372" y="437" type="line"/>
      <point x="372" y="259" type="line"/>
      <point x="372" y="166"/>
      <point x="333" y="98"/>
      <point x="271" y="98" type="curve"/>
      <point x="230" y="98"/>
      <point x="214" y="123"/>
      <point x="212" y="162" type="curve"/>
      <point x="212" y="437" type="line"/>
      <point x="72" y="437" type="line"/>
      <point x="72" y="110" type="line"/>
      <point x="74" y="33"/>
      <point x="134" y="-21"/>
    </contour>
  </outline>
</glyph>
<glyph name="v" format="2">
  <advance width="534"/>
  <unicode hex="0076"/>
  <anchor x="267" y="0" name="bottom"/>
  <anchor x="267" y="437" name="top"/>
  <outline>
    <contour>
      <point x="272" y="-9" type="line"/>
      <point x="276" y="-9" type="line"/>
      <point x="524" y="437" type="line"/>
      <point x="368" y="437" type="line"/>
      <point x="239" y="138" type="line"/>
      <point x="325" y="135" type="line"/>
      <point x="176" y="437" type="line"/>
      <point x="10" y="437" type="line"/>
    </contour>
  </outline>
</glyph>
<glyph name="w" format="2">
  <advance width="684"/>
  <unicode hex="0077"/>
  <anchor x="342" y="0" name="bottom"/>
  <anchor x="342" y="437" name="top"/>
  <outline>
    <contour>
      <point x="384" y="437" type="line"/>
      <point x="265" y="437" type="line"/>
      <point x="288" y="387" type="line"/>
      <point x="204" y="201" type="line"/>
      <point x="252" y="194" type="line"/>
      <point x="146" y="437" type="line"/>
      <point x="10" y="437" type="line"/>
      <point x="209" y="-26" type="line"/>
      <point x="337" y="264" type="line"/>
      <point x="477" y="-26" type="line"/>
      <point x="674" y="437" type="line"/>
      <point x="538" y="437" type="line"/>
      <point x="454" y="210" type="line"/>
      <point x="480" y="212" type="line"/>
    </contour>
  </outline>
</glyph>
<glyph name="x" format="2">
  <advance width="526"/>
  <unicode hex="0078"/>
  <anchor x="256" y="0" name="bottom"/>
  <anchor x="256" y="437" name="top"/>
  <outline>
    <contour>
      <point x="270" y="298" type="line"/>
      <point x="319" y="197" type="line"/>
      <point x="492" y="437" type="line"/>
      <point x="353" y="437" type="line"/>
    </contour>
    <contour>
      <point x="516" y="0" type="line"/>
      <point x="182" y="437" type="line"/>
      <point x="10" y="437" type="line"/>
      <point x="347" y="0" type="line"/>
    </contour>
    <contour>
      <point x="252" y="140" type="line"/>
      <point x="188" y="234" type="line"/>
      <point x="15" y="0" type="line"/>
      <point x="154" y="0" type="line"/>
    </contour>
  </outline>
</glyph>
<glyph name="y" format="2">
  <advance width="534"/>
  <unicode hex="0079"/>
  <anchor x="437" y="-10" name="bottom"/>
  <anchor x="277" y="437" name="top"/>
  <outline>
    <contour>
      <point x="107" y="-210" type="line"/>
      <point x="242" y="-210" type="line"/>
      <point x="524" y="437" type="line"/>
      <point x="398" y="437" type="line"/>
    </contour>
    <contour>
      <point x="224" y="-2" type="line"/>
      <point x="332" y="68" type="line"/>
      <point x="167" y="437" type="line"/>
      <point x="10" y="437" type="line"/>
    </contour>
  </outline>
</glyph>
<glyph name="z" format="2">
  <advance width="522"/>
  <unicode hex="007A"/>
  <anchor x="261" y="0" name="bottom"/>
  <anchor x="261" y="437" name="top"/>
  <outline>
    <contour>
      <point x="140" y="323" type="curve" smooth="yes"/>
      <point x="290" y="323" type="line"/>
      <point x="269" y="363" type="line"/>
      <point x="20" y="0" type="line"/>
      <point x="463" y="0" type="line"/>
      <point x="463" y="114" type="line"/>
      <point x="198" y="114" type="line"/>
      <point x="224" y="85" type="line"/>
      <point x="466" y="437" type="line"/>
      <point x="189" y="437" type="line" smooth="yes"/>
      <point x="164" y="437"/>
      <point x="155" y="437"/>
      <point x="155" y="465" type="curve" smooth="yes"/>
      <point x="155" y="479" type="line"/>
      <point x="50" y="479" type="line"/>
      <point x="50" y="419" type="line" smooth="yes"/>
      <point x="50" y="360"/>
      <point x="92" y="323"/>
    </contour>
  </outline>
</glyph>
<glyph name="braceleft" format="2">
  <advance width="401"/>
  <unicode hex="007B"/>
  <outline>
    <contour>
      <point x="314" y="639" type="curve" smooth="yes"/>
      <point x="351" y="639" type="line"/>
      <point x="351" y="761" type="line"/>
      <point x="272" y="761" type="line" smooth="yes"/>
      <point x="194" y="761"/>
      <point x="116" y="767"/>
      <point x="116" y="640" type="curve" smooth="yes"/>
      <point x="116" y="482" type="line" smooth="yes"/>
      <point x="116" y="421"/>
      <point x="89" y="366"/>
      <point x="35" y="365" type="curve"/>
      <point x="35" y="249" type="line"/>
      <point x="35" y="249" type="line"/>
      <point x="89" y="248"/>
      <point x="116" y="192"/>
      <point x="116" y="132" type="curve" smooth="yes"/>
      <point x="116" y="-33" type="line" smooth="yes"/>
      <point x="116" y="-162"/>
      <point x="198" y="-153"/>
      <point x="272" y="-153" type="curve" smooth="yes"/>
      <point x="351" y="-153" type="line"/>
      <point x="351" y="-31" type="line"/>
      <point x="314" y="-31" type="line" smooth="yes"/>
      <point x="272" y="-31"/>
      <point x="261" y="-23"/>
      <point x="261" y="68" type="curve" smooth="yes"/>
      <point x="261" y="188" type="line" smooth="yes"/>
      <point x="261" y="246"/>
      <point x="216" y="288"/>
      <point x="195" y="305" type="curve"/>
      <point x="220" y="322"/>
      <point x="261" y="364"/>
      <point x="261" y="441" type="curve" smooth="yes"/>
      <point x="261" y="539" type="line" smooth="yes"/>
      <point x="261" y="630"/>
      <point x="272" y="639"/>
    </contour>
  </outline>
</glyph>
<glyph name="bar" format="2">
  <advance width="306"/>
  <unicode hex="007C"/>
  <outline>
    <contour>
      <point x="88" y="714" type="line"/>
      <point x="88" y="-237" type="line"/>
      <point x="214" y="-237" type="line"/>
      <point x="214" y="714" type="line"/>
    </contour>
  </outline>
</glyph>
<glyph name="braceright" format="2">
  <advance width="401"/>
  <unicode hex="007D"/>
  <outline>
    <contour>
      <point x="87" y="-31" type="curve" smooth="yes"/>
      <point x="50" y="-31" type="line"/>
      <point x="50" y="-153" type="line"/>
      <point x="129" y="-153" type="line" smooth="yes"/>
      <point x="207" y="-153"/>
      <point x="285" y="-159"/>
      <point x="285" y="-32" type="curve" smooth="yes"/>
      <point x="285" y="126" type="line" smooth="yes"/>
      <point x="285" y="187"/>
      <point x="312" y="242"/>
      <point x="366" y="243" type="curve"/>
      <point x="366" y="359" type="line"/>
      <point x="366" y="359" type="line"/>
      <point x="312" y="360"/>
      <point x="285" y="416"/>
      <point x="285" y="476" type="curve" smooth="yes"/>
      <point x="285" y="641" type="line" smooth="yes"/>
      <point x="285" y="770"/>
      <point x="203" y="761"/>
      <point x="129" y="761" type="curve" smooth="yes"/>
      <point x="50" y="761" type="line"/>
      <point x="50" y="639" type="line"/>
      <point x="87" y="639" type="line" smooth="yes"/>
      <point x="129" y="639"/>
      <point x="140" y="631"/>
      <point x="140" y="540" type="curve" smooth="yes"/>
      <point x="140" y="420" type="line" smooth="yes"/>
      <point x="140" y="362"/>
      <point x="185" y="320"/>
      <point x="206" y="303" type="curve"/>
      <point x="181" y="286"/>
      <point x="140" y="244"/>
      <point x="140" y="167" type="curve" smooth="yes"/>
      <point x="140" y="69" type="line" smooth="yes"/>
      <point x="140" y="-22"/>
      <point x="129" y="-31"/>
    </contour>
  </outline>
</glyph>
<glyph name="asciitilde" format="2">
  <advance width="451"/>
  <unicode hex="007E"/>
  <outline>
    <contour>
      <point x="317" y="422" type="curve"/>
      <point x="389" y="422"/>
      <point x="446" y="501"/>
      <point x="428" y="606" type="curve"/>
      <point x="343" y="606" type="line"/>
      <point x="346" y="567"/>
      <point x="344" y="522"/>
      <point x="313" y="522" type="curve"/>
      <point x="294" y="522"/>
      <point x="275" y="539"/>
      <point x="253" y="558" type="curve"/>
      <point x="225" y="582"/>
      <point x="193" y="609"/>
      <point x="153" y="609" type="curve"/>
      <point x="59" y="609"/>
      <point x="11" y="518"/>
      <point x="22" y="424" type="curve"/>
      <point x="107" y="424" type="line"/>
      <point x="103" y="460"/>
      <point x="111" y="503"/>
      <point x="144" y="503" type="curve"/>
      <point x="162" y="503"/>
      <point x="179" y="490"/>
      <point x="197" y="475" type="curve"/>
      <point x="227" y="451"/>
      <point x="261" y="422"/>
    </contour>
  </outline>
</glyph>
<glyph name="exclamdown" format="2">
  <advance width="204"/>
  <unicode hex="00A1"/>
  <outline>
    <contour>
      <point x="36" y="-214" type="line"/>
      <point x="36" y="352" type="line"/>
      <point x="161" y="352" type="line"/>
      <point x="161" y="-214" type="line"/>
    </contour>
    <contour>
      <point x="102" y="565" type="curve"/>
      <point x="150" y="565"/>
      <point x="182" y="537"/>
      <point x="182" y="494" type="curve"/>
      <point x="182" y="453"/>
      <point x="149" y="421"/>
      <point x="102" y="421" type="curve"/>
      <point x="55" y="421"/>
      <point x="20" y="453"/>
      <point x="20" y="494" type="curve"/>
      <point x="20" y="537"/>
      <point x="54" y="565"/>
    </contour>
  </outline>
</glyph>
<glyph name="cent" format="2">
  <advance width="479"/>
  <unicode hex="00A2"/>
  <outline>
    <contour>
      <point x="239" y="506" type="line"/>
      <point x="239" y="-68" type="line"/>
      <point x="323" y="-68" type="line"/>
      <point x="323" y="506" type="line"/>
    </contour>
    <component base="c"/>
  </outline>
</glyph>
<glyph name="sterling" format="2">
  <advance width="672"/>
  <unicode hex="00A3"/>
  <outline>
    <contour>
      <point x="462" y="418" type="line"/>
      <point x="107" y="418" type="line"/>
      <point x="107" y="278" type="line"/>
      <point x="462" y="278" type="line"/>
    </contour>
    <contour>
      <point x="173" y="560" type="curve" smooth="yes"/>
      <point x="173" y="213" type="line" smooth="yes"/>
      <point x="173" y="144"/>
      <point x="159" y="140"/>
      <point x="120" y="140" type="curve" smooth="yes"/>
      <point x="75" y="140" type="line"/>
      <point x="75" y="0" type="line"/>
      <point x="495" y="0" type="line" smooth="yes"/>
      <point x="589" y="0"/>
      <point x="637" y="53"/>
      <point x="637" y="132" type="curve" smooth="yes"/>
      <point x="637" y="213" type="line"/>
      <point x="511" y="212" type="line"/>
      <point x="511" y="179" type="line" smooth="yes"/>
      <point x="511" y="152"/>
      <point x="496" y="140"/>
      <point x="467" y="140" type="curve" smooth="yes"/>
      <point x="270" y="140" type="line"/>
      <point x="290" y="127" type="line"/>
      <point x="313" y="146"/>
      <point x="318" y="178"/>
      <point x="318" y="217" type="curve" smooth="yes"/>
      <point x="318" y="237" type="line"/>
      <point x="318" y="504" type="line" smooth="yes"/>
      <point x="318" y="570"/>
      <point x="349" y="597"/>
      <point x="414" y="597" type="curve" smooth="yes"/>
      <point x="475" y="597"/>
      <point x="502" y="570"/>
      <point x="516" y="555" type="curve"/>
      <point x="621" y="627" type="line"/>
      <point x="585" y="696"/>
      <point x="510" y="737"/>
      <point x="411" y="737" type="curve" smooth="yes"/>
      <point x="269" y="737"/>
      <point x="173" y="656"/>
    </contour>
  </outline>
</glyph>
<glyph name="currency" format="2">
  <advance width="506"/>
  <unicode hex="00A4"/>
  <outline>
    <contour>
      <point x="393" y="441" type="curve"/>
      <point x="415" y="463" type="line"/>
      <point x="356" y="522" type="line"/>
      <point x="332" y="498" type="line"/>
      <point x="332" y="498" type="line"/>
      <point x="308" y="511"/>
      <point x="281" y="519"/>
      <point x="252" y="519" type="curve" smooth="yes"/>
      <point x="223" y="519"/>
      <point x="198" y="510"/>
      <point x="173" y="498" type="curve"/>
      <point x="149" y="522" type="line"/>
      <point x="90" y="463" type="line"/>
      <point x="98" y="455"/>
      <point x="105" y="447"/>
      <point x="113" y="439" type="curve"/>
      <point x="100" y="416"/>
      <point x="92" y="390"/>
      <point x="92" y="361" type="curve" smooth="yes"/>
      <point x="92" y="361" type="line" smooth="yes"/>
      <point x="92" y="331"/>
      <point x="100" y="303"/>
      <point x="114" y="279" type="curve"/>
      <point x="90" y="255" type="line"/>
      <point x="149" y="196" type="line"/>
      <point x="174" y="221" type="line"/>
      <point x="174" y="221" type="line"/>
      <point x="197" y="209"/>
      <point x="223" y="202"/>
      <point x="252" y="202" type="curve" smooth="yes"/>
      <point x="281" y="202"/>
      <point x="308" y="209"/>
      <point x="331" y="222" type="curve"/>
      <point x="340" y="214"/>
      <point x="348" y="205"/>
      <point x="357" y="197" type="curve"/>
      <point x="416" y="256" type="line"/>
      <point x="392" y="280" type="line"/>
      <point x="407" y="304"/>
      <point x="415" y="331"/>
      <point x="415" y="361" type="curve" smooth="yes"/>
      <point x="415" y="389"/>
      <point x="407" y="417"/>
    </contour>
    <contour>
      <point x="176" y="360" type="curve" smooth="yes"/>
      <point x="176" y="360" type="line" smooth="yes"/>
      <point x="176" y="403"/>
      <point x="211" y="438"/>
      <point x="253" y="438" type="curve" smooth="yes"/>
      <point x="296" y="438"/>
      <point x="331" y="403"/>
      <point x="331" y="360" type="curve" smooth="yes"/>
      <point x="331" y="318"/>
      <point x="296" y="283"/>
      <point x="253" y="283" type="curve" smooth="yes"/>
      <point x="211" y="283"/>
      <point x="176" y="318"/>
    </contour>
  </outline>
</glyph>
<glyph name="yen" format="2">
  <advance width="722"/>
  <unicode hex="00A5"/>
  <anchor x="358" y="0" name="bottom"/>
  <anchor x="378" y="736" name="top"/>
  <anchor x="7" y="736" name="topleft"/>
  <outline>
    <contour>
      <point x="174" y="315" type="line"/>
      <point x="174" y="202" type="line"/>
      <point x="563" y="202" type="line"/>
      <point x="563" y="315" type="line"/>
    </contour>
    <contour>
      <point x="175" y="177" type="line"/>
      <point x="175" y="64" type="line"/>
      <point x="563" y="64" type="line"/>
      <point x="563" y="177" type="line"/>
    </contour>
    <contour>
      <point x="286" y="309" type="line"/>
      <point x="286" y="0" type="line"/>
      <point x="431" y="0" type="line"/>
      <point x="431" y="309" type="line"/>
      <point x="707" y="736" type="line"/>
      <point x="528" y="736" type="line"/>
      <point x="341" y="431" type="line"/>
      <point x="384" y="434" type="line"/>
      <point x="194" y="736" type="line"/>
      <point x="15" y="736" type="line"/>
    </contour>
  </outline>
</glyph>
<glyph name="brokenbar" format="2">
  <advance width="219"/>
  <unicode hex="00A6"/>
  <outline>
    <contour>
      <point x="51" y="714" type="line"/>
      <point x="51" y="357" type="line"/>
      <point x="177" y="357" type="line"/>
      <point x="177" y="714" type="line"/>
    </contour>
    <contour>
      <point x="51" y="119" type="line"/>
      <point x="51" y="-238" type="line"/>
      <point x="177" y="-238" type="line"/>
      <point x="177" y="119" type="line"/>
    </contour>
  </outline>
</glyph>
<glyph name="section" format="2">
  <advance width="579"/>
  <unicode hex="00A7"/>
  <outline>
    <contour>
      <point x="384" y="139" type="line"/>
      <point x="482" y="160"/>
      <point x="529" y="231"/>
      <point x="529" y="306" type="curve" smooth="yes"/>
      <point x="529" y="423"/>
      <point x="428" y="458"/>
      <point x="347" y="480" type="curve"/>
      <point x="286" y="496"/>
      <point x="231" y="515"/>
      <point x="231" y="557" type="curve" smooth="yes"/>
      <point x="231" y="586"/>
      <point x="253" y="610"/>
      <point x="315" y="610" type="curve"/>
      <point x="353" y="608"/>
      <point x="390" y="596"/>
      <point x="443" y="551" type="curve"/>
      <point x="506" y="658" type="line"/>
      <point x="454" y="704"/>
      <point x="388" y="735"/>
      <point x="300" y="736" type="curve"/>
      <point x="136" y="736"/>
      <point x="79" y="630"/>
      <point x="79" y="536" type="curve" smooth="yes"/>
      <point x="79" y="468"/>
      <point x="108" y="397"/>
      <point x="225" y="360" type="curve"/>
      <point x="236" y="412" type="line"/>
      <point x="155" y="418"/>
      <point x="61" y="375"/>
      <point x="61" y="261" type="curve" smooth="yes"/>
      <point x="61" y="156"/>
      <point x="166" y="108"/>
      <point x="249" y="88" type="curve"/>
      <point x="306" y="74"/>
      <point x="358" y="55"/>
      <point x="358" y="12" type="curve" smooth="yes"/>
      <point x="358" y="-31"/>
      <point x="324" y="-56"/>
      <point x="275" y="-56" type="curve" smooth="yes"/>
      <point x="231" y="-56"/>
      <point x="186" y="-39"/>
      <point x="122" y="11" type="curve"/>
      <point x="50" y="-109" type="line"/>
      <point x="121" y="-169"/>
      <point x="208" y="-185"/>
      <point x="283" y="-185" type="curve" smooth="yes"/>
      <point x="417" y="-185"/>
      <point x="510" y="-86"/>
      <point x="510" y="34" type="curve" smooth="yes"/>
      <point x="510" y="136"/>
      <point x="429" y="191"/>
      <point x="329" y="192" type="curve"/>
    </contour>
    <contour>
      <point x="387" y="279" type="curve"/>
      <point x="385" y="240"/>
      <point x="336" y="216"/>
      <point x="291" y="213" type="curve"/>
      <point x="248" y="224"/>
      <point x="200" y="255"/>
      <point x="203" y="298" type="curve"/>
      <point x="205" y="326"/>
      <point x="241" y="351"/>
      <point x="293" y="347" type="curve"/>
      <point x="332" y="345"/>
      <point x="390" y="314"/>
    </contour>
  </outline>
</glyph>
<glyph name="dieresis" format="2">
  <advance width="442"/>
  <unicode hex="00A8"/>
  <outline>
    <contour>
      <point x="50" y="542" type="curve" smooth="yes"/>
      <point x="50" y="542" type="line" smooth="yes"/>
      <point x="50" y="499"/>
      <point x="86" y="470"/>
      <point x="122" y="470" type="curve" smooth="yes"/>
      <point x="155" y="470"/>
      <point x="192" y="499"/>
      <point x="192" y="542" type="curve" smooth="yes"/>
      <point x="192" y="584"/>
      <point x="155" y="615"/>
      <point x="122" y="615" type="curve" smooth="yes"/>
      <point x="86" y="615"/>
      <point x="50" y="584"/>
    </contour>
    <contour>
      <point x="250" y="542" type="curve" smooth="yes"/>
      <point x="250" y="542" type="line" smooth="yes"/>
      <point x="250" y="499"/>
      <point x="286" y="470"/>
      <point x="322" y="470" type="curve" smooth="yes"/>
      <point x="355" y="470"/>
      <point x="392" y="499"/>
      <point x="392" y="542" type="curve" smooth="yes"/>
      <point x="392" y="584"/>
      <point x="355" y="615"/>
      <point x="322" y="615" type="curve" smooth="yes"/>
      <point x="286" y="615"/>
      <point x="250" y="584"/>
    </contour>
  </outline>
</glyph>
<glyph name="copyright" format="2">
  <advance width="880"/>
  <unicode hex="00A9"/>
  <outline>
    <contour>
      <point x="612" y="182" type="curve"/>
      <point x="548" y="277" type="line"/>
      <point x="525" y="248"/>
      <point x="492" y="235"/>
      <point x="463" y="235" type="curve"/>
      <point x="415" y="235"/>
      <point x="389" y="273"/>
      <point x="389" y="317" type="curve"/>
      <point x="389" y="358"/>
      <point x="414" y="399"/>
      <point x="461" y="399" type="curve"/>
      <point x="486" y="399"/>
      <point x="511" y="394"/>
      <point x="532" y="372" type="curve"/>
      <point x="588" y="479" type="line"/>
      <point x="557" y="509"/>
      <point x="493" y="521"/>
      <point x="450" y="521" type="curve"/>
      <point x="322" y="521"/>
      <point x="244" y="434"/>
      <point x="244" y="312" type="curve"/>
      <point x="244" y="203"/>
      <point x="330" y="111"/>
      <point x="439" y="108" type="curve"/>
      <point x="518" y="107"/>
      <point x="579" y="146"/>
    </contour>
    <contour>
      <point x="440" y="-71" type="curve"/>
      <point x="653" y="-71"/>
      <point x="830" y="94"/>
      <point x="830" y="312" type="curve"/>
      <point x="830" y="533"/>
      <point x="653" y="696"/>
      <point x="440" y="696" type="curve"/>
      <point x="227" y="696"/>
      <point x="50" y="533"/>
      <point x="50" y="312" type="curve"/>
      <point x="50" y="94"/>
      <point x="227" y="-71"/>
    </contour>
    <contour>
      <point x="440" y="41" type="curve"/>
      <point x="287" y="41"/>
      <point x="170" y="156"/>
      <point x="170" y="312" type="curve"/>
      <point x="170" y="469"/>
      <point x="287" y="584"/>
      <point x="440" y="584" type="curve"/>
      <point x="593" y="584"/>
      <point x="709" y="469"/>
      <point x="709" y="312" type="curve"/>
      <point x="709" y="156"/>
      <point x="593" y="41"/>
    </contour>
  </outline>
</glyph>
<glyph name="ordfeminine" format="2">
  <advance width="389"/>
  <unicode hex="00AA"/>
  <outline>
    <contour>
      <point x="150" y="427" type="curve"/>
      <point x="208" y="427"/>
      <point x="236" y="471"/>
      <point x="239" y="471" type="curve"/>
      <point x="233" y="488" type="line"/>
      <point x="233" y="434" type="line"/>
      <point x="339" y="434" type="line"/>
      <point x="339" y="724" type="line"/>
      <point x="239" y="724" type="line"/>
      <point x="232" y="683" type="line"/>
      <point x="235" y="697" type="line"/>
      <point x="218" y="717"/>
      <point x="196" y="736"/>
      <point x="147" y="736" type="curve"/>
      <point x="83" y="736"/>
      <point x="25" y="675"/>
      <point x="25" y="579" type="curve"/>
      <point x="25" y="474"/>
      <point x="80" y="427"/>
    </contour>
    <contour>
      <point x="185" y="512" type="curve"/>
      <point x="155" y="512"/>
      <point x="132" y="543"/>
      <point x="132" y="583" type="curve"/>
      <point x="132" y="623"/>
      <point x="154" y="651"/>
      <point x="183" y="651" type="curve"/>
      <point x="208" y="651"/>
      <point x="225" y="636"/>
      <point x="233" y="611" type="curve"/>
      <point x="233" y="550" type="line"/>
      <point x="222" y="526"/>
      <point x="209" y="512"/>
    </contour>
  </outline>
</glyph>
<glyph name="guillemetleft" format="2">
  <advance width="609"/>
  <unicode hex="00AB"/>
  <outline>
    <contour>
      <point x="15" y="244" type="curve"/>
      <point x="269" y="39" type="line"/>
      <point x="269" y="163" type="line"/>
      <point x="269" y="163"/>
      <point x="175" y="244"/>
      <point x="175" y="244" type="curve"/>
      <point x="175" y="244"/>
      <point x="269" y="323"/>
      <point x="269" y="323" type="curve"/>
      <point x="269" y="448" type="line"/>
      <point x="269" y="448"/>
      <point x="15" y="244"/>
    </contour>
    <contour>
      <point x="265" y="244" type="curve"/>
      <point x="519" y="39" type="line"/>
      <point x="519" y="163" type="line"/>
      <point x="519" y="163"/>
      <point x="425" y="244"/>
      <point x="425" y="244" type="curve"/>
      <point x="425" y="244"/>
      <point x="519" y="323"/>
      <point x="519" y="323" type="curve"/>
      <point x="519" y="448" type="line"/>
      <point x="519" y="448"/>
      <point x="265" y="244"/>
    </contour>
  </outline>
</glyph>
<glyph name="logicalnot" format="2">
  <advance width="467"/>
  <unicode hex="00AC"/>
  <outline>
    <contour>
      <point x="50" y="329" type="line"/>
      <point x="50" y="189" type="line"/>
      <point x="272" y="189" type="line"/>
      <point x="272" y="91" type="line"/>
      <point x="417" y="91" type="line"/>
      <point x="417" y="329" type="line"/>
    </contour>
  </outline>
</glyph>
<glyph name="registered" format="2">
  <advance width="566"/>
  <unicode hex="00AE"/>
  <outline>
    <contour>
      <point x="283" y="230" type="curve"/>
      <point x="424" y="230"/>
      <point x="541" y="338"/>
      <point x="541" y="482" type="curve"/>
      <point x="541" y="628"/>
      <point x="424" y="735"/>
      <point x="283" y="735" type="curve"/>
      <point x="142" y="735"/>
      <point x="25" y="628"/>
      <point x="25" y="482" type="curve"/>
      <point x="25" y="338"/>
      <point x="142" y="230"/>
    </contour>
    <contour>
      <point x="283" y="305" type="curve"/>
      <point x="183" y="305"/>
      <point x="107" y="380"/>
      <point x="107" y="482" type="curve"/>
      <point x="107" y="585"/>
      <point x="183" y="660"/>
      <point x="283" y="660" type="curve"/>
      <point x="383" y="660"/>
      <point x="459" y="585"/>
      <point x="459" y="482" type="curve"/>
      <point x="459" y="380"/>
      <point x="383" y="305"/>
    </contour>
    <contour>
      <point x="192" y="606" type="line"/>
      <point x="192" y="363" type="line"/>
      <point x="267" y="363" type="line"/>
      <point x="267" y="440" type="line"/>
      <point x="306" y="440" type="line"/>
      <point x="362" y="440"/>
      <point x="389" y="485"/>
      <point x="389" y="524" type="curve"/>
      <point x="389" y="574"/>
      <point x="362" y="606"/>
      <point x="298" y="606" type="curve"/>
    </contour>
    <contour>
      <point x="284" y="497" type="curve"/>
      <point x="267" y="497" type="line"/>
      <point x="267" y="550" type="line"/>
      <point x="284" y="550" type="line"/>
      <point x="305" y="550"/>
      <point x="309" y="534"/>
      <point x="309" y="522" type="curve"/>
      <point x="309" y="507"/>
      <point x="304" y="497"/>
    </contour>
    <contour>
      <point x="347" y="457" type="line"/>
      <point x="270" y="455" type="line"/>
      <point x="301" y="363" type="line"/>
      <point x="387" y="363" type="line"/>
    </contour>
  </outline>
</glyph>
<glyph name="macron" format="2">
  <advance width="355"/>
  <unicode hex="00AF"/>
  <outline>
    <contour>
      <point x="50" y="556" type="line"/>
      <point x="50" y="459" type="line"/>
      <point x="305" y="459" type="line"/>
      <point x="305" y="556" type="line"/>
    </contour>
  </outline>
</glyph>
<glyph name="degree" format="2">
  <advance width="287"/>
  <unicode hex="00B0"/>
  <outline>
    <contour>
      <point x="22" y="572" type="curve" smooth="yes"/>
      <point x="22" y="572" type="line" smooth="yes"/>
      <point x="22" y="507"/>
      <point x="75" y="455"/>
      <point x="141" y="455" type="curve" smooth="yes"/>
      <point x="204" y="455"/>
      <point x="256" y="507"/>
      <point x="256" y="572" type="curve" smooth="yes"/>
      <point x="256" y="636"/>
      <point x="204" y="687"/>
      <point x="141" y="687" type="curve" smooth="yes"/>
      <point x="75" y="687"/>
      <point x="22" y="636"/>
    </contour>
    <contour>
      <point x="141" y="529" type="curve"/>
      <point x="141" y="529" type="line"/>
      <point x="118" y="529"/>
      <point x="100" y="547"/>
      <point x="100" y="570" type="curve" smooth="yes"/>
      <point x="100" y="593"/>
      <point x="118" y="612"/>
      <point x="141" y="612" type="curve" smooth="yes"/>
      <point x="164" y="612"/>
      <point x="183" y="593"/>
      <point x="183" y="570" type="curve" smooth="yes"/>
      <point x="183" y="547"/>
      <point x="164" y="529"/>
    </contour>
  </outline>
</glyph>
<glyph name="plusminus" format="2">
  <advance width="535"/>
  <unicode hex="00B1"/>
  <outline>
    <contour>
      <point x="208" y="582" type="line"/>
      <point x="208" y="458" type="line"/>
      <point x="88" y="458" type="line"/>
      <point x="88" y="337" type="line"/>
      <point x="208" y="337" type="line"/>
      <point x="208" y="215" type="line"/>
      <point x="335" y="215" type="line"/>
      <point x="335" y="337" type="line"/>
      <point x="455" y="337" type="line"/>
      <point x="455" y="458" type="line"/>
      <point x="335" y="458" type="line"/>
      <point x="335" y="582" type="line"/>
    </contour>
    <contour>
      <point x="88" y="183" type="line"/>
      <point x="88" y="61" type="line"/>
      <point x="455" y="61" type="line"/>
      <point x="455" y="183" type="line"/>
    </contour>
  </outline>
</glyph>
<glyph name="twosuperior" format="2">
  <advance width="408"/>
  <unicode hex="00B2"/>
  <outline>
    <contour>
      <point x="45" y="623" type="curve"/>
      <point x="85" y="531" type="line"/>
      <point x="99" y="553"/>
      <point x="137" y="575"/>
      <point x="166" y="575" type="curve" smooth="yes"/>
      <point x="202" y="575"/>
      <point x="218" y="554"/>
      <point x="218" y="509" type="curve" smooth="yes"/>
      <point x="218" y="437"/>
      <point x="117" y="373"/>
      <point x="62" y="346" type="curve"/>
      <point x="62" y="265" type="line"/>
      <point x="378" y="265" type="line"/>
      <point x="378" y="381" type="line"/>
      <point x="165" y="381" type="line"/>
      <point x="142" y="287" type="line"/>
      <point x="212" y="341"/>
      <point x="364" y="424"/>
      <point x="364" y="548" type="curve" smooth="yes"/>
      <point x="364" y="634"/>
      <point x="299" y="689"/>
      <point x="205" y="691" type="curve" smooth="yes"/>
      <point x="141" y="692"/>
      <point x="71" y="663"/>
    </contour>
  </outline>
</glyph>
<glyph name="threesuperior" format="2">
  <advance width="376"/>
  <unicode hex="00B3"/>
  <outline>
    <contour>
      <point x="163" y="260" type="curve" smooth="yes"/>
      <point x="262" y="260"/>
      <point x="326" y="328"/>
      <point x="326" y="413" type="curve" smooth="yes"/>
      <point x="326" y="496"/>
      <point x="256" y="533"/>
      <point x="199" y="533" type="curve"/>
      <point x="163" y="533"/>
      <point x="140" y="519"/>
      <point x="122" y="503" type="curve"/>
      <point x="212" y="476" type="line"/>
      <point x="315" y="680" type="line"/>
      <point x="57" y="680" type="line"/>
      <point x="57" y="580" type="line"/>
      <point x="196" y="580" type="line"/>
      <point x="167" y="600" type="line"/>
      <point x="92" y="474" type="line"/>
      <point x="99" y="462" type="line"/>
      <point x="106" y="466"/>
      <point x="120" y="470"/>
      <point x="139" y="470" type="curve" smooth="yes"/>
      <point x="172" y="470"/>
      <point x="200" y="455"/>
      <point x="200" y="407" type="curve" smooth="yes"/>
      <point x="200" y="364"/>
      <point x="175" y="350"/>
      <point x="147" y="350" type="curve" smooth="yes"/>
      <point x="114" y="350"/>
      <point x="89" y="380"/>
      <point x="79" y="392" type="curve"/>
      <point x="40" y="311" type="line"/>
      <point x="61" y="289"/>
      <point x="102" y="260"/>
    </contour>
  </outline>
</glyph>
<glyph name="acute" format="2">
  <advance width="317"/>
  <unicode hex="00B4"/>
  <outline>
    <contour>
      <point x="275" y="624" type="line"/>
      <point x="120" y="624" type="line"/>
      <point x="42" y="489" type="line"/>
      <point x="127" y="489" type="line"/>
    </contour>
  </outline>
</glyph>
<glyph name="micro" format="2">
  <advance width="584"/>
  <unicode hex="00B5"/>
  <anchor x="292" y="0" name="bottom"/>
  <anchor x="608" y="10" name="ogonek"/>
  <anchor x="294" y="457" name="top"/>
  <anchor x="507" y="437" name="topright"/>
  <outline>
    <contour>
      <point x="213" y="-21" type="curve"/>
      <point x="291" y="-21"/>
      <point x="346" y="16"/>
      <point x="376" y="71" type="curve"/>
      <point x="372" y="87" type="line"/>
      <point x="385" y="0" type="line"/>
      <point x="512" y="0" type="line"/>
      <point x="512" y="437" type="line"/>
      <point x="372" y="437" type="line"/>
      <point x="372" y="259" type="line"/>
      <point x="372" y="166"/>
      <point x="333" y="98"/>
      <point x="271" y="98" type="curve"/>
      <point x="230" y="98"/>
      <point x="214" y="123"/>
      <point x="212" y="162" type="curve"/>
      <point x="212" y="437" type="line"/>
      <point x="72" y="437" type="line"/>
      <point x="72" y="110" type="line"/>
      <point x="72" y="-201" type="line"/>
      <point x="212" y="-201" type="line"/>
      <point x="212" y="96" type="line"/>
      <point x="76" y="114" type="line"/>
      <point x="78" y="37"/>
      <point x="134" y="-21"/>
    </contour>
  </outline>
</glyph>
<glyph name="paragraph" format="2">
  <advance width="592"/>
  <unicode hex="00B6"/>
  <outline>
    <contour>
      <point x="205" y="431" type="curve"/>
      <point x="205" y="0" type="line"/>
      <point x="330" y="0" type="line"/>
      <point x="330" y="644" type="line"/>
      <point x="372" y="644" type="line"/>
      <point x="372" y="0" type="line"/>
      <point x="496" y="0" type="line"/>
      <point x="496" y="765" type="line"/>
      <point x="205" y="765" type="line" smooth="yes"/>
      <point x="112" y="765"/>
      <point x="39" y="691"/>
      <point x="39" y="598" type="curve" smooth="yes"/>
      <point x="39" y="505"/>
      <point x="112" y="431"/>
    </contour>
  </outline>
</glyph>
<glyph name="cedilla" format="2">
  <advance width="373"/>
  <unicode hex="00B8"/>
  <outline>
    <contour>
      <point x="93" y="-136" type="curve"/>
      <point x="50" y="-191" type="line"/>
      <point x="73" y="-215"/>
      <point x="108" y="-236"/>
      <point x="167" y="-236" type="curve" smooth="yes"/>
      <point x="246" y="-236"/>
      <point x="323" y="-201"/>
      <point x="323" y="-125" type="curve" smooth="yes"/>
      <point x="323" y="-63"/>
      <point x="264" y="-32"/>
      <point x="190" y="-34" type="curve" smooth="yes"/>
      <point x="176" y="-35"/>
      <point x="162" y="-36"/>
      <point x="148" y="-39" type="curve"/>
      <point x="174" y="-74" type="line"/>
      <point x="251" y="12" type="line"/>
      <point x="144" y="12" type="line"/>
      <point x="75" y="-39" type="line"/>
      <point x="94" y="-105" type="line"/>
      <point x="112" y="-100"/>
      <point x="133" y="-94"/>
      <point x="154" y="-94" type="curve" smooth="yes"/>
      <point x="198" y="-94"/>
      <point x="207" y="-112"/>
      <point x="207" y="-127" type="curve" smooth="yes"/>
      <point x="207" y="-151"/>
      <point x="175" y="-163"/>
      <point x="153" y="-163" type="curve" smooth="yes"/>
      <point x="128" y="-163"/>
      <point x="106" y="-152"/>
    </contour>
  </outline>
</glyph>
<glyph name="onesuperior" format="2">
  <advance width="283"/>
  <unicode hex="00B9"/>
  <outline>
    <contour>
      <point x="25" y="663" type="line"/>
      <point x="25" y="538" type="line"/>
      <point x="93" y="538" type="line"/>
      <point x="93" y="248" type="line"/>
      <point x="223" y="248" type="line"/>
      <point x="223" y="663" type="line"/>
    </contour>
  </outline>
</glyph>
<glyph name="ordmasculine" format="2">
  <advance width="373"/>
  <unicode hex="00BA"/>
  <outline>
    <contour>
      <point x="25" y="581" type="curve"/>
      <point x="25" y="484"/>
      <point x="92" y="426"/>
      <point x="187" y="426" type="curve"/>
      <point x="287" y="426"/>
      <point x="348" y="492"/>
      <point x="348" y="581" type="curve"/>
      <point x="348" y="670"/>
      <point x="286" y="735"/>
      <point x="188" y="735" type="curve"/>
      <point x="91" y="735"/>
      <point x="25" y="670"/>
    </contour>
    <contour>
      <point x="133" y="580" type="curve"/>
      <point x="133" y="616"/>
      <point x="156" y="643"/>
      <point x="186" y="643" type="curve"/>
      <point x="219" y="643"/>
      <point x="240" y="616"/>
      <point x="240" y="580" type="curve"/>
      <point x="240" y="545"/>
      <point x="219" y="518"/>
      <point x="186" y="518" type="curve"/>
      <point x="156" y="518"/>
      <point x="133" y="545"/>
    </contour>
  </outline>
</glyph>
<glyph name="guillemetright" format="2">
  <advance width="609"/>
  <unicode hex="00BB"/>
  <outline>
    <contour>
      <point x="584" y="244" type="curve"/>
      <point x="330" y="39" type="line"/>
      <point x="330" y="163" type="line"/>
      <point x="330" y="163"/>
      <point x="424" y="244"/>
      <point x="424" y="244" type="curve"/>
      <point x="424" y="244"/>
      <point x="330" y="323"/>
      <point x="330" y="323" type="curve"/>
      <point x="330" y="448" type="line"/>
      <point x="330" y="448"/>
      <point x="584" y="244"/>
    </contour>
    <contour>
      <point x="334" y="244" type="curve"/>
      <point x="80" y="39" type="line"/>
      <point x="80" y="163" type="line"/>
      <point x="80" y="163"/>
      <point x="174" y="244"/>
      <point x="174" y="244" type="curve"/>
      <point x="174" y="244"/>
      <point x="80" y="323"/>
      <point x="80" y="323" type="curve"/>
      <point x="80" y="448" type="line"/>
      <point x="80" y="448"/>
      <point x="334" y="244"/>
    </contour>
  </outline>
</glyph>
<glyph name="onequarter" format="2">
  <advance width="860"/>
  <unicode hex="00BC"/>
  <outline>
    <contour>
      <point x="693" y="698" type="line"/>
      <point x="563" y="698" type="line"/>
      <point x="156" y="0" type="line"/>
      <point x="286" y="0" type="line"/>
    </contour>
    <component base="onesuperior"/>
    <component base="foursuperior" xOffset="461" yOffset="-265"/>
  </outline>
</glyph>
<glyph name="questiondown" format="2">
  <advance width="452"/>
  <unicode hex="00BF"/>
  <outline>
    <contour>
      <point x="326" y="342" type="line"/>
      <point x="186" y="342" type="line"/>
      <point x="186" y="321" type="line"/>
      <point x="186" y="245"/>
      <point x="155" y="206"/>
      <point x="120" y="171" type="curve" smooth="yes"/>
      <point x="76" y="126"/>
      <point x="24" y="87"/>
      <point x="24" y="-22" type="curve"/>
      <point x="24" y="-153"/>
      <point x="113" y="-207"/>
      <point x="226" y="-208" type="curve"/>
      <point x="381" y="-209"/>
      <point x="443" y="-88"/>
      <point x="458" y="-40" type="curve"/>
      <point x="343" y="14" type="line"/>
      <point x="325" y="-31"/>
      <point x="299" y="-78"/>
      <point x="241" y="-78" type="curve"/>
      <point x="211" y="-78"/>
      <point x="173" y="-52"/>
      <point x="173" y="-9" type="curve"/>
      <point x="173" y="44"/>
      <point x="206" y="72"/>
      <point x="242" y="105" type="curve" smooth="yes"/>
      <point x="282" y="144"/>
      <point x="326" y="190"/>
      <point x="326" y="289" type="curve"/>
    </contour>
    <contour>
      <point x="256" y="553" type="curve"/>
      <point x="208" y="553"/>
      <point x="176" y="525"/>
      <point x="176" y="482" type="curve"/>
      <point x="176" y="441"/>
      <point x="209" y="409"/>
      <point x="256" y="409" type="curve"/>
      <point x="303" y="409"/>
      <point x="338" y="441"/>
      <point x="338" y="482" type="curve"/>
      <point x="338" y="525"/>
      <point x="304" y="553"/>
    </contour>
  </outline>
</glyph>
<glyph name="AE" format="2">
  <advance width="967"/>
  <unicode hex="00C6"/>
  <anchor x="563" y="0" name="bottom"/>
  <anchor x="673" y="756" name="top"/>
  <outline>
    <contour>
      <point x="486" y="736" type="line"/>
      <point x="486" y="0" type="line"/>
      <point x="912" y="0" type="line"/>
      <point x="912" y="140" type="line"/>
      <point x="631" y="140" type="line"/>
      <point x="631" y="297" type="line"/>
      <point x="857" y="297" type="line"/>
      <point x="857" y="437" type="line"/>
      <point x="631" y="437" type="line"/>
      <point x="631" y="596" type="line"/>
      <point x="898" y="596" type="line"/>
      <point x="898" y="736" type="line"/>
    </contour>
    <contour>
      <point x="501" y="565" type="curve"/>
      <point x="486" y="736" type="line"/>
      <point x="5" y="0" type="line"/>
      <point x="173" y="0" type="line"/>
      <point x="490" y="524" type="line"/>
      <point x="490" y="524"/>
      <point x="498" y="550"/>
    </contour>
    <contour>
      <point x="272" y="276" type="line"/>
      <point x="227" y="161" type="line"/>
      <point x="503" y="161" type="line"/>
      <point x="503" y="276" type="line"/>
    </contour>
  </outline>
</glyph>
<glyph name="multiply" format="2">
  <advance width="528"/>
  <unicode hex="00D7"/>
  <outline>
    <contour>
      <point x="287" y="296" type="curve"/>
      <point x="203" y="380" type="line"/>
      <point x="94" y="269" type="line"/>
      <point x="177" y="187" type="line"/>
      <point x="150" y="159"/>
      <point x="124" y="135"/>
      <point x="98" y="108" type="curve"/>
      <point x="133" y="73"/>
      <point x="169" y="38"/>
      <point x="206" y="2" type="curve"/>
      <point x="230" y="27"/>
      <point x="258" y="53"/>
      <point x="282" y="79" type="curve"/>
      <point x="309" y="52"/>
      <point x="337" y="27"/>
      <point x="363" y="0" type="curve"/>
      <point x="474" y="109" type="line"/>
      <point x="446" y="137"/>
      <point x="422" y="164"/>
      <point x="395" y="190" type="curve"/>
      <point x="419" y="216"/>
      <point x="446" y="244"/>
      <point x="470" y="268" type="curve"/>
      <point x="435" y="303"/>
      <point x="401" y="341"/>
      <point x="366" y="376" type="curve"/>
      <point x="338" y="348"/>
      <point x="314" y="324"/>
    </contour>
  </outline>
</glyph>
<glyph name="Oslash" format="2">
  <advance width="858"/>
  <unicode hex="00D8"/>
  <anchor x="429" y="0" name="bottom"/>
  <anchor x="429" y="736" name="top"/>
  <outline>
    <contour>
      <point x="771" y="675" type="line"/>
      <point x="681" y="759" type="line"/>
      <point x="76" y="60" type="line"/>
      <point x="168" y="-23" type="line"/>
    </contour>
    <component base="O"/>
  </outline>
</glyph>
<glyph name="Thorn" format="2">
  <advance width="636"/>
  <unicode hex="00DE"/>
  <anchor x="272" y="0" name="bottom"/>
  <anchor x="272" y="736" name="top"/>
  <outline>
    <contour>
      <point x="348" y="616" type="curve" smooth="yes"/>
      <point x="245" y="616" type="line"/>
      <point x="245" y="732" type="line"/>
      <point x="95" y="732" type="line"/>
      <point x="95" y="0" type="line"/>
      <point x="245" y="0" type="line"/>
      <point x="245" y="113" type="line"/>
      <point x="354" y="113" type="line" smooth="yes"/>
      <point x="546" y="113"/>
      <point x="601" y="247"/>
      <point x="601" y="368" type="curve" smooth="yes"/>
      <point x="601" y="519"/>
      <point x="530" y="616"/>
    </contour>
    <contour>
      <point x="338" y="254" type="curve" smooth="yes"/>
      <point x="245" y="254" type="line"/>
      <point x="245" y="476" type="line"/>
      <point x="339" y="476" type="line" smooth="yes"/>
      <point x="429" y="476"/>
      <point x="451" y="413"/>
      <point x="451" y="364" type="curve" smooth="yes"/>
      <point x="451" y="306"/>
      <point x="414" y="254"/>
    </contour>
  </outline>
</glyph>
<glyph name="germandbls" format="2">
  <advance width="626"/>
  <unicode hex="00DF"/>
  <outline>
    <contour>
      <point x="105" y="468" type="curve" smooth="yes"/>
      <point x="105" y="441" type="line"/>
      <point x="40" y="441" type="line"/>
      <point x="40" y="327" type="line"/>
      <point x="105" y="327" type="line"/>
      <point x="105" y="0" type="line"/>
      <point x="245" y="0" type="line"/>
      <point x="245" y="419" type="line" smooth="yes"/>
      <point x="245" y="508"/>
      <point x="263" y="556"/>
      <point x="330" y="556" type="curve" smooth="yes"/>
      <point x="374" y="556"/>
      <point x="400" y="536"/>
      <point x="400" y="496" type="curve" smooth="yes"/>
      <point x="400" y="467"/>
      <point x="379" y="447"/>
      <point x="345" y="447" type="curve"/>
      <point x="346" y="326" type="line"/>
      <point x="352" y="326" type="line"/>
      <point x="409" y="328"/>
      <point x="440" y="287"/>
      <point x="440" y="205" type="curve" smooth="yes"/>
      <point x="440" y="142"/>
      <point x="425" y="94"/>
      <point x="372" y="94" type="curve" smooth="yes"/>
      <point x="355" y="94"/>
      <point x="340" y="97"/>
      <point x="322" y="113" type="curve"/>
      <point x="268" y="29" type="line"/>
      <point x="281" y="13"/>
      <point x="322" y="-10"/>
      <point x="386" y="-10" type="curve" smooth="yes"/>
      <point x="503" y="-10"/>
      <point x="581" y="54"/>
      <point x="581" y="197" type="curve" smooth="yes"/>
      <point x="581" y="316"/>
      <point x="539" y="368"/>
      <point x="477" y="398" type="curve"/>
      <point x="522" y="423"/>
      <point x="541" y="475"/>
      <point x="541" y="527" type="curve" smooth="yes"/>
      <point x="541" y="607"/>
      <point x="465" y="670"/>
      <point x="329" y="670" type="curve"/>
      <point x="212" y="672"/>
      <point x="105" y="594"/>
    </contour>
  </outline>
</glyph>
<glyph name="ae" format="2">
  <advance width="849"/>
  <unicode hex="00E6"/>
  <anchor x="423" y="0" name="bottom"/>
  <anchor x="423" y="437" name="top"/>
  <outline>
    <contour>
      <point x="210" y="-11" type="curve"/>
      <point x="294" y="-11"/>
      <point x="359" y="19"/>
      <point x="399" y="73" type="curve"/>
      <point x="399" y="173" type="line"/>
      <point x="347" y="173" type="line"/>
      <point x="347" y="135" type="line"/>
      <point x="329" y="111"/>
      <point x="287" y="85"/>
      <point x="250" y="85" type="curve"/>
      <point x="215" y="85"/>
      <point x="192" y="101"/>
      <point x="192" y="131" type="curve"/>
      <point x="192" y="161"/>
      <point x="219" y="174"/>
      <point x="262" y="174" type="curve" smooth="yes"/>
      <point x="304" y="174"/>
      <point x="321" y="169"/>
      <point x="358" y="150" type="curve"/>
      <point x="380" y="230" type="line"/>
      <point x="350" y="247"/>
      <point x="287" y="264"/>
      <point x="229" y="264" type="curve" smooth="yes"/>
      <point x="130" y="264"/>
      <point x="38" y="212"/>
      <point x="38" y="128" type="curve"/>
      <point x="38" y="46"/>
      <point x="92" y="-11"/>
    </contour>
    <contour>
      <point x="334" y="227" type="line"/>
      <point x="469" y="281" type="line"/>
      <point x="469" y="301" type="line" smooth="yes"/>
      <point x="469" y="406"/>
      <point x="375" y="458"/>
      <point x="268" y="458" type="curve" smooth="yes"/>
      <point x="175" y="458"/>
      <point x="110" y="415"/>
      <point x="66" y="368" type="curve"/>
      <point x="136" y="280" type="line"/>
      <point x="155" y="308"/>
      <point x="195" y="344"/>
      <point x="248" y="344" type="curve" smooth="yes"/>
      <point x="269" y="344"/>
      <point x="334" y="328"/>
      <point x="334" y="263" type="curve"/>
    </contour>
    <component base="e" xOffset="296"/>
  </outline>
</glyph>
<glyph name="eth" format="2">
  <advance width="571"/>
  <unicode hex="00F0"/>
  <outline>
    <contour>
      <point x="273" y="-12" type="curve"/>
      <point x="448" y="-12"/>
      <point x="533" y="135"/>
      <point x="533" y="270" type="curve"/>
      <point x="533" y="473"/>
      <point x="420" y="686"/>
      <point x="259" y="789" type="curve"/>
      <point x="155" y="697" type="line"/>
      <point x="314" y="569"/>
      <point x="392" y="477"/>
      <point x="392" y="254" type="curve"/>
      <point x="445" y="224" type="line"/>
      <point x="445" y="328"/>
      <point x="377" y="458"/>
      <point x="252" y="458" type="curve"/>
      <point x="132" y="458"/>
      <point x="38" y="358"/>
      <point x="38" y="224" type="curve"/>
      <point x="38" y="76"/>
      <point x="142" y="-12"/>
    </contour>
    <contour>
      <point x="285" y="102" type="curve"/>
      <point x="224" y="102"/>
      <point x="179" y="154"/>
      <point x="179" y="223" type="curve"/>
      <point x="179" y="292"/>
      <point x="224" y="344"/>
      <point x="285" y="344" type="curve"/>
      <point x="350" y="344"/>
      <point x="392" y="292"/>
      <point x="392" y="223" type="curve"/>
      <point x="392" y="154"/>
      <point x="350" y="102"/>
    </contour>
    <contour>
      <point x="492" y="667" type="line"/>
      <point x="447" y="760" type="line"/>
      <point x="169" y="590" type="line"/>
      <point x="214" y="497" type="line"/>
    </contour>
  </outline>
</glyph>
<glyph name="divide" format="2">
  <advance width="510"/>
  <unicode hex="00F7"/>
  <outline>
    <contour>
      <point x="184" y="429" type="curve" smooth="yes"/>
      <point x="184" y="429" type="line" smooth="yes"/>
      <point x="184" y="385"/>
      <point x="220" y="357"/>
      <point x="256" y="357" type="curve" smooth="yes"/>
      <point x="289" y="357"/>
      <point x="326" y="385"/>
      <point x="326" y="429" type="curve" smooth="yes"/>
      <point x="326" y="470"/>
      <point x="289" y="502"/>
      <point x="256" y="502" type="curve" smooth="yes"/>
      <point x="220" y="502"/>
      <point x="184" y="470"/>
    </contour>
    <contour>
      <point x="184" y="114" type="curve" smooth="yes"/>
      <point x="184" y="114" type="line" smooth="yes"/>
      <point x="184" y="70"/>
      <point x="220" y="42"/>
      <point x="256" y="42" type="curve" smooth="yes"/>
      <point x="289" y="42"/>
      <point x="326" y="70"/>
      <point x="326" y="114" type="curve" smooth="yes"/>
      <point x="326" y="155"/>
      <point x="289" y="187"/>
      <point x="256" y="187" type="curve" smooth="yes"/>
      <point x="220" y="187"/>
      <point x="184" y="155"/>
    </contour>
    <contour>
      <point x="69" y="329" type="line"/>
      <point x="69" y="208" type="line"/>
      <point x="436" y="208" type="line"/>
      <point x="436" y="329" type="line"/>
    </contour>
  </outline>
</glyph>
<glyph name="oslash" format="2">
  <advance width="546"/>
  <unicode hex="00F8"/>
  <anchor x="273" y="437" name="top"/>
  <outline>
    <contour>
      <point x="518" y="426" type="line"/>
      <point x="448" y="484" type="line"/>
      <point x="42" y="24" type="line"/>
      <point x="109" y="-37" type="line"/>
    </contour>
    <component base="o"/>
  </outline>
</glyph>
<glyph name="thorn" format="2">
  <advance width="625"/>
  <unicode hex="00FE"/>
  <outline>
    <contour>
      <point x="349" y="-12" type="curve"/>
      <point x="488" y="-12"/>
      <point x="589" y="72"/>
      <point x="589" y="220" type="curve"/>
      <point x="589" y="369"/>
      <point x="499" y="459"/>
      <point x="377" y="459" type="curve"/>
      <point x="304" y="459"/>
      <point x="249" y="430"/>
      <point x="204" y="392" type="curve"/>
      <point x="215" y="362" type="line"/>
      <point x="215" y="789" type="line"/>
      <point x="75" y="789" type="line"/>
      <point x="75" y="-210" type="line"/>
      <point x="214" y="-210" type="line"/>
      <point x="214" y="85" type="line"/>
      <point x="214" y="41" type="line"/>
      <point x="247" y="5"/>
      <point x="297" y="-12"/>
    </contour>
    <contour>
      <point x="321" y="98" type="curve"/>
      <point x="270" y="98"/>
      <point x="230" y="125"/>
      <point x="215" y="168" type="curve"/>
      <point x="215" y="275" type="line"/>
      <point x="239" y="319"/>
      <point x="275" y="341"/>
      <point x="331" y="341" type="curve"/>
      <point x="393" y="341"/>
      <point x="447" y="288"/>
      <point x="447" y="218" type="curve"/>
      <point x="447" y="148"/>
      <point x="388" y="98"/>
    </contour>
  </outline>
</glyph>
<glyph name="aogonek" format="2">
  <advance width="621"/>
  <unicode hex="0105"/>
  <anchor x="311" y="0" name="bottom"/>
  <anchor x="633" y="10" name="ogonek"/>
  <anchor x="331" y="437" name="top"/>
  <outline>
    <contour>
      <point x="255" y="-12" type="curve"/>
      <point x="349" y="-12"/>
      <point x="395" y="47"/>
      <point x="417" y="65" type="curve"/>
      <point x="406" y="95" type="line"/>
      <point x="406" y="-26" type="line"/>
      <point x="422" y="-7" type="line"/>
      <point x="410" y="10" type="line"/>
      <point x="355" y="-12"/>
      <point x="325" y="-59"/>
      <point x="325" y="-103" type="curve" smooth="yes"/>
      <point x="325" y="-181"/>
      <point x="389" y="-232"/>
      <point x="471" y="-232" type="curve"/>
      <point x="517" y="-232"/>
      <point x="576" y="-201"/>
      <point x="606" y="-157" type="curve"/>
      <point x="556" y="-85" type="line"/>
      <point x="534" y="-118"/>
      <point x="511" y="-134"/>
      <point x="484" y="-134" type="curve"/>
      <point x="461" y="-134"/>
      <point x="440" y="-126"/>
      <point x="440" y="-92" type="curve" smooth="yes"/>
      <point x="440" y="-49"/>
      <point x="484" y="-25"/>
      <point x="546" y="0" type="curve"/>
      <point x="546" y="437" type="line"/>
      <point x="416" y="437" type="line"/>
      <point x="407" y="390" type="line"/>
      <point x="378" y="425"/>
      <point x="342" y="459"/>
      <point x="255" y="459" type="curve"/>
      <point x="144" y="459"/>
      <point x="42" y="366"/>
      <point x="42" y="218" type="curve"/>
      <point x="42" y="59"/>
      <point x="136" y="-12"/>
    </contour>
    <contour>
      <point x="295" y="102" type="curve"/>
      <point x="235" y="102"/>
      <point x="184" y="155"/>
      <point x="184" y="225" type="curve"/>
      <point x="184" y="295"/>
      <point x="235" y="345"/>
      <point x="295" y="345" type="curve"/>
      <point x="348" y="345"/>
      <point x="390" y="318"/>
      <point x="406" y="275" type="curve"/>
      <point x="406" y="168" type="line"/>
      <point x="383" y="124"/>
      <point x="348" y="102"/>
    </contour>
  </outline>
</glyph>
<glyph name="eogonek" format="2">
  <advance width="557"/>
  <unicode hex="0119"/>
  <outline>
    <contour>
      <point x="322" y="-232" type="curve" smooth="yes"/>
      <point x="368" y="-232"/>
      <point x="427" y="-201"/>
      <point x="457" y="-157" type="curve"/>
      <point x="407" y="-85" type="line"/>
      <point x="385" y="-118"/>
      <point x="362" y="-134"/>
      <point x="335" y="-134" type="curve" smooth="yes"/>
      <point x="312" y="-134"/>
      <point x="286" y="-115"/>
      <point x="286" y="-81" type="curve" smooth="yes"/>
      <point x="286" y="-16"/>
      <point x="370" y="-8"/>
      <point x="443" y="32" type="curve"/>
      <point x="381" y="136" type="line"/>
      <point x="353" y="118"/>
      <point x="325" y="107"/>
      <point x="294" y="107" type="curve"/>
      <point x="230" y="107"/>
      <point x="180" y="149"/>
      <point x="180" y="231" type="curve"/>
      <point x="180" y="303"/>
      <point x="220" y="349"/>
      <point x="283" y="349" type="curve"/>
      <point x="338" y="349"/>
      <point x="362" y="318"/>
      <point x="373" y="284" type="curve"/>
      <point x="402" y="297" type="line"/>
      <point x="156" y="214" type="line"/>
      <point x="187" y="138" type="line"/>
      <point x="527" y="246" type="line"/>
      <point x="503" y="383"/>
      <point x="419" y="458"/>
      <point x="294" y="458" type="curve"/>
      <point x="154" y="458"/>
      <point x="42" y="354"/>
      <point x="42" y="223" type="curve"/>
      <point x="42" y="85"/>
      <point x="131" y="-12"/>
      <point x="291" y="-12" type="curve"/>
      <point x="317" y="-12"/>
      <point x="385" y="7"/>
      <point x="404" y="32" type="curve"/>
      <point x="256" y="10" type="line"/>
      <point x="201" y="-12"/>
      <point x="171" y="-59"/>
      <point x="171" y="-103" type="curve" smooth="yes"/>
      <point x="171" y="-181"/>
      <point x="229" y="-232"/>
    </contour>
  </outline>
</glyph>
<glyph name="Hbar" format="2">
  <advance width="975"/>
  <unicode hex="0126"/>
  <outline>
    <contour>
      <point x="95" y="606" type="line"/>
      <point x="95" y="499" type="line"/>
      <point x="880" y="499" type="line"/>
      <point x="880" y="606" type="line"/>
    </contour>
    <component base="H" xOffset="92"/>
  </outline>
</glyph>
<glyph name="Iogonek" format="2">
  <advance width="285"/>
  <unicode hex="012E"/>
  <anchor x="188" y="10" name="_ogonek"/>
  <outline>
    <contour>
      <point x="153" y="-232" type="curve"/>
      <point x="199" y="-232"/>
      <point x="258" y="-201"/>
      <point x="288" y="-157" type="curve"/>
      <point x="238" y="-85" type="line"/>
      <point x="216" y="-118"/>
      <point x="193" y="-134"/>
      <point x="166" y="-134" type="curve"/>
      <point x="143" y="-134"/>
      <point x="122" y="-126"/>
      <point x="122" y="-92" type="curve" smooth="yes"/>
      <point x="122" y="-50"/>
      <point x="167" y="-26"/>
      <point x="235" y="0" type="curve"/>
      <point x="210" y="6" type="line"/>
      <point x="92" y="0" type="line"/>
      <point x="37" y="-22"/>
      <point x="7" y="-69"/>
      <point x="7" y="-113" type="curve" smooth="yes"/>
      <point x="7" y="-191"/>
      <point x="71" y="-232"/>
    </contour>
    <component base="I"/>
  </outline>
</glyph>
<glyph name="iogonek" format="2">
  <advance width="290"/>
  <unicode hex="012F"/>
  <outline>
    <contour>
      <point x="141" y="-232" type="curve"/>
      <point x="187" y="-232"/>
      <point x="246" y="-201"/>
      <point x="276" y="-157" type="curve"/>
      <point x="226" y="-85" type="line"/>
      <point x="204" y="-118"/>
      <point x="181" y="-134"/>
      <point x="154" y="-134" type="curve"/>
      <point x="131" y="-134"/>
      <point x="110" y="-126"/>
      <point x="110" y="-92" type="curve" smooth="yes"/>
      <point x="110" y="-48"/>
      <point x="151" y="-26"/>
      <point x="214" y="0" type="curve"/>
      <point x="188" y="10" type="line"/>
      <point x="80" y="10" type="line"/>
      <point x="25" y="-12"/>
      <point x="-5" y="-59"/>
      <point x="-5" y="-103" type="curve" smooth="yes"/>
      <point x="-5" y="-181"/>
      <point x="59" y="-232"/>
    </contour>
    <component base="idotless"/>
    <component base="dotaccentcomb" xOffset="24" yOffset="-10"/>
  </outline>
</glyph>
<glyph name="idotless" format="2">
  <advance width="284"/>
  <unicode hex="0131"/>
  <anchor x="130" y="0" name="bottom"/>
  <anchor x="300" y="10" name="ogonek"/>
  <anchor x="144" y="437" name="top"/>
  <outline>
    <contour>
      <point x="72" y="437" type="line"/>
      <point x="72" y="0" type="line"/>
      <point x="212" y="0" type="line"/>
      <point x="212" y="437" type="line"/>
    </contour>
  </outline>
</glyph>
<glyph name="kgreenlandic" format="2">
  <advance width="562"/>
  <unicode hex="0138"/>
  <outline>
    <contour>
      <point x="203" y="116" type="line"/>
      <point x="527" y="437" type="line"/>
      <point x="359" y="437" type="line"/>
      <point x="182" y="239" type="line"/>
    </contour>
    <contour>
      <point x="212" y="0" type="line"/>
      <point x="212" y="437" type="line"/>
      <point x="72" y="437" type="line"/>
      <point x="72" y="0" type="line"/>
    </contour>
    <contour>
      <point x="330" y="254" type="line"/>
      <point x="222" y="194" type="line"/>
      <point x="362" y="0" type="line"/>
      <point x="523" y="0" type="line"/>
    </contour>
  </outline>
</glyph>
<glyph name="Lslash" format="2">
  <advance width="640"/>
  <unicode hex="0141"/>
  <outline>
    <contour>
      <point x="411" y="494" type="line"/>
      <point x="5" y="368" type="line"/>
      <point x="35" y="255" type="line"/>
      <point x="441" y="381" type="line"/>
    </contour>
    <component base="L"/>
  </outline>
</glyph>
<glyph name="lslash" format="2">
  <advance width="315"/>
  <unicode hex="0142"/>
  <outline>
    <contour>
      <point x="300" y="413" type="line"/>
      <point x="15" y="346" type="line"/>
      <point x="15" y="225" type="line"/>
      <point x="300" y="292" type="line"/>
    </contour>
    <component base="l" xOffset="10"/>
  </outline>
</glyph>
<glyph name="Eng" format="2">
  <advance width="803"/>
  <unicode hex="014A"/>
  <outline>
    <contour>
      <point x="729" y="-30" type="line"/>
      <point x="733" y="4" type="line"/>
      <point x="733" y="736" type="line"/>
      <point x="587" y="736" type="line"/>
      <point x="590" y="277" type="line"/>
      <point x="622" y="263" type="line"/>
      <point x="76" y="765" type="line"/>
      <point x="70" y="765" type="line"/>
      <point x="70" y="0" type="line"/>
      <point x="217" y="0" type="line"/>
      <point x="214" y="450" type="line"/>
      <point x="171" y="474" type="line"/>
    </contour>
    <contour>
      <point x="733" y="30" type="line"/>
      <point x="594" y="163" type="line"/>
      <point x="594" y="8" type="line"/>
      <point x="594" y="-53"/>
      <point x="571" y="-95"/>
      <point x="531" y="-124" type="curve"/>
      <point x="611" y="-211" type="line"/>
      <point x="695" y="-167"/>
      <point x="733" y="-96"/>
      <point x="733" y="0" type="curve"/>
    </contour>
  </outline>
</glyph>
<glyph name="eng" format="2">
  <advance width="594"/>
  <unicode hex="014B"/>
  <anchor x="297" y="0" name="bottom"/>
  <anchor x="297" y="447" name="top"/>
  <outline>
    <contour>
      <point x="522" y="7" type="curve" smooth="yes"/>
      <point x="522" y="327" type="line"/>
      <point x="520" y="404"/>
      <point x="458" y="458"/>
      <point x="376" y="458" type="curve"/>
      <point x="295" y="458"/>
      <point x="240" y="421"/>
      <point x="209" y="366" type="curve"/>
      <point x="199" y="437" type="line"/>
      <point x="72" y="437" type="line"/>
      <point x="72" y="0" type="line"/>
      <point x="212" y="0" type="line"/>
      <point x="212" y="178" type="line"/>
      <point x="212" y="271"/>
      <point x="253" y="339"/>
      <point x="318" y="339" type="curve"/>
      <point x="363" y="339"/>
      <point x="380" y="314"/>
      <point x="382" y="275" type="curve"/>
      <point x="382" y="8" type="line" smooth="yes"/>
      <point x="382" y="-53"/>
      <point x="360" y="-95"/>
      <point x="320" y="-124" type="curve"/>
      <point x="400" y="-211" type="line"/>
      <point x="484" y="-167"/>
      <point x="522" y="-89"/>
    </contour>
  </outline>
</glyph>
<glyph name="OE" format="2">
  <advance width="1021"/>
  <unicode hex="0152"/>
  <anchor x="511" y="0" name="bottom"/>
  <anchor x="511" y="736" name="top"/>
  <outline>
    <contour>
      <point x="484" y="594" type="curve"/>
      <point x="529" y="731" type="line"/>
      <point x="499" y="739"/>
      <point x="467" y="744"/>
      <point x="434" y="744" type="curve" smooth="yes"/>
      <point x="227" y="744"/>
      <point x="59" y="570"/>
      <point x="59" y="367" type="curve" smooth="yes"/>
      <point x="59" y="160"/>
      <point x="227" y="-8"/>
      <point x="434" y="-8" type="curve" smooth="yes"/>
      <point x="466" y="-8"/>
      <point x="496" y="-4"/>
      <point x="526" y="4" type="curve"/>
      <point x="489" y="139" type="line"/>
      <point x="473" y="135"/>
      <point x="456" y="133"/>
      <point x="439" y="133" type="curve" smooth="yes"/>
      <point x="311" y="133"/>
      <point x="209" y="238"/>
      <point x="209" y="367" type="curve" smooth="yes"/>
      <point x="209" y="496"/>
      <point x="309" y="600"/>
      <point x="435" y="600" type="curve" smooth="yes"/>
      <point x="452" y="600"/>
      <point x="468" y="598"/>
    </contour>
    <contour>
      <point x="477" y="736" type="line"/>
      <point x="477" y="0" type="line"/>
      <point x="963" y="0" type="line"/>
      <point x="963" y="139" type="line"/>
      <point x="627" y="139" type="line"/>
      <point x="627" y="299" type="line"/>
      <point x="908" y="299" type="line"/>
      <point x="908" y="437" type="line"/>
      <point x="627" y="437" type="line"/>
      <point x="627" y="601" type="line"/>
      <point x="949" y="601" type="line"/>
      <point x="949" y="736" type="line"/>
    </contour>
  </outline>
</glyph>
<glyph name="Uogonek" format="2">
  <advance width="756"/>
  <unicode hex="0172"/>
  <outline>
    <contour>
      <point x="487" y="-232" type="curve"/>
      <point x="533" y="-232"/>
      <point x="592" y="-201"/>
      <point x="622" y="-157" type="curve"/>
      <point x="572" y="-85" type="line"/>
      <point x="550" y="-118"/>
      <point x="527" y="-134"/>
      <point x="500" y="-134" type="curve"/>
      <point x="477" y="-134"/>
      <point x="456" y="-126"/>
      <point x="456" y="-92" type="curve" smooth="yes"/>
      <point x="456" y="-44"/>
      <point x="495" y="-11"/>
      <point x="539" y="26" type="curve" smooth="yes"/>
      <point x="602" y="78"/>
      <point x="676" y="139"/>
      <point x="676" y="260" type="curve" smooth="yes"/>
      <point x="676" y="736" type="line"/>
      <point x="533" y="736" type="line"/>
      <point x="533" y="272" type="line" smooth="yes"/>
      <point x="533" y="202"/>
      <point x="466" y="133"/>
      <point x="377" y="133" type="curve" smooth="yes"/>
      <point x="295" y="133"/>
      <point x="225" y="202"/>
      <point x="225" y="272" type="curve" smooth="yes"/>
      <point x="225" y="736" type="line"/>
      <point x="80" y="736" type="line"/>
      <point x="80" y="269" type="line" smooth="yes"/>
      <point x="80" y="109"/>
      <point x="196" y="-8"/>
      <point x="377" y="-8" type="curve" smooth="yes"/>
      <point x="415" y="-8"/>
      <point x="450" y="-2"/>
      <point x="483" y="9" type="curve"/>
      <point x="467" y="69" type="line"/>
      <point x="426" y="10" type="line"/>
      <point x="371" y="-12"/>
      <point x="341" y="-59"/>
      <point x="341" y="-103" type="curve" smooth="yes"/>
      <point x="341" y="-181"/>
      <point x="405" y="-232"/>
    </contour>
  </outline>
</glyph>
<glyph name="uogonek" format="2">
  <advance width="590"/>
  <unicode hex="0173"/>
  <outline>
    <contour>
      <point x="449" y="-232" type="curve"/>
      <point x="495" y="-232"/>
      <point x="554" y="-201"/>
      <point x="584" y="-157" type="curve"/>
      <point x="534" y="-85" type="line"/>
      <point x="512" y="-118"/>
      <point x="489" y="-134"/>
      <point x="462" y="-134" type="curve"/>
      <point x="439" y="-134"/>
      <point x="418" y="-126"/>
      <point x="418" y="-92" type="curve" smooth="yes"/>
      <point x="418" y="-48"/>
      <point x="457" y="-25"/>
      <point x="515" y="0" type="curve"/>
      <point x="466" y="23" type="line"/>
      <point x="388" y="10" type="line"/>
      <point x="333" y="-12"/>
      <point x="303" y="-59"/>
      <point x="303" y="-103" type="curve" smooth="yes"/>
      <point x="303" y="-181"/>
      <point x="367" y="-232"/>
    </contour>
    <component base="u"/>
  </outline>
</glyph>
<glyph name="Schwa" format="2">
  <advance width="785"/>
  <unicode hex="018F"/>
  <outline>
    <contour>
      <point x="376" y="743" type="curve"/>
      <point x="296" y="743"/>
      <point x="170" y="692"/>
      <point x="114" y="635" type="curve"/>
      <point x="186" y="517" type="line"/>
      <point x="224" y="565"/>
      <point x="306" y="601"/>
      <point x="373" y="601" type="curve"/>
      <point x="473" y="601"/>
      <point x="581" y="516"/>
      <point x="581" y="377" type="curve"/>
      <point x="581" y="235"/>
      <point x="488" y="129"/>
      <point x="384" y="129" type="curve"/>
      <point x="288" y="129"/>
      <point x="233" y="200"/>
      <point x="210" y="294" type="curve"/>
      <point x="165" y="251" type="line"/>
      <point x="639" y="410" type="line"/>
      <point x="608" y="516" type="line"/>
      <point x="40" y="332" type="line"/>
      <point x="74" y="123"/>
      <point x="194" y="0"/>
      <point x="373" y="0" type="curve"/>
      <point x="569" y="0"/>
      <point x="735" y="164"/>
      <point x="735" y="385" type="curve"/>
      <point x="735" y="589"/>
      <point x="600" y="743"/>
    </contour>
  </outline>
</glyph>
<glyph name="florin" format="2">
  <advance width="366"/>
  <unicode hex="0192"/>
  <outline>
    <contour>
      <point x="97" y="515" type="curve" smooth="yes"/>
      <point x="97" y="439" type="line"/>
      <point x="23" y="439" type="line"/>
      <point x="23" y="305" type="line"/>
      <point x="97" y="305" type="line"/>
      <point x="97" y="115" type="line" smooth="yes"/>
      <point x="97" y="31"/>
      <point x="65" y="-18"/>
      <point x="-43" y="-26" type="curve"/>
      <point x="-43" y="-164" type="line"/>
      <point x="156" y="-159"/>
      <point x="243" y="-76"/>
      <point x="243" y="110" type="curve" smooth="yes"/>
      <point x="243" y="305" type="line"/>
      <point x="375" y="305" type="line"/>
      <point x="375" y="439" type="line"/>
      <point x="243" y="439" type="line"/>
      <point x="243" y="510" type="line" smooth="yes"/>
      <point x="243" y="594"/>
      <point x="275" y="642"/>
      <point x="383" y="650" type="curve"/>
      <point x="383" y="789" type="line"/>
      <point x="213" y="784"/>
      <point x="97" y="701"/>
    </contour>
  </outline>
</glyph>
<glyph name="Nhookleft" format="2">
  <advance width="828"/>
  <unicode hex="019D"/>
  <outline>
    <contour>
      <point x="729" y="-30" type="line"/>
      <point x="733" y="4" type="line"/>
      <point x="733" y="736" type="line"/>
      <point x="587" y="736" type="line"/>
      <point x="590" y="277" type="line"/>
      <point x="622" y="263" type="line"/>
      <point x="76" y="765" type="line"/>
      <point x="70" y="765" type="line"/>
      <point x="70" y="0" type="line"/>
      <point x="217" y="0" type="line"/>
      <point x="214" y="450" type="line"/>
      <point x="171" y="474" type="line"/>
    </contour>
    <contour>
      <point x="217" y="30" type="line"/>
      <point x="70" y="163" type="line"/>
      <point x="70" y="8" type="line"/>
      <point x="70" y="-53"/>
      <point x="47" y="-95"/>
      <point x="7" y="-124" type="curve"/>
      <point x="95" y="-211" type="line"/>
      <point x="179" y="-167"/>
      <point x="217" y="-96"/>
      <point x="217" y="0" type="curve"/>
    </contour>
  </outline>
</glyph>
<glyph name="Oogonek" format="2">
  <advance width="852"/>
  <unicode hex="01EA"/>
  <outline>
    <contour>
      <point x="425" y="-8" type="curve"/>
      <point x="496" y="-8"/>
      <point x="555" y="12"/>
      <point x="613" y="47" type="curve"/>
      <point x="481" y="0" type="line"/>
      <point x="426" y="-22"/>
      <point x="396" y="-69"/>
      <point x="396" y="-113" type="curve" smooth="yes"/>
      <point x="396" y="-191"/>
      <point x="460" y="-232"/>
      <point x="542" y="-232" type="curve"/>
      <point x="588" y="-232"/>
      <point x="647" y="-201"/>
      <point x="677" y="-157" type="curve"/>
      <point x="627" y="-85" type="line"/>
      <point x="605" y="-118"/>
      <point x="582" y="-134"/>
      <point x="555" y="-134" type="curve"/>
      <point x="532" y="-134"/>
      <point x="511" y="-126"/>
      <point x="511" y="-90" type="curve" smooth="yes"/>
      <point x="511" y="-38"/>
      <point x="588" y="-3"/>
      <point x="663" y="64" type="curve" smooth="yes"/>
      <point x="734" y="126"/>
      <point x="802" y="214"/>
      <point x="802" y="367" type="curve"/>
      <point x="802" y="570"/>
      <point x="630" y="744"/>
      <point x="425" y="744" type="curve"/>
      <point x="218" y="744"/>
      <point x="50" y="570"/>
      <point x="50" y="367" type="curve"/>
      <point x="50" y="160"/>
      <point x="218" y="-8"/>
    </contour>
    <contour>
      <point x="430" y="133" type="curve"/>
      <point x="300" y="133"/>
      <point x="200" y="238"/>
      <point x="200" y="367" type="curve"/>
      <point x="200" y="496"/>
      <point x="298" y="600"/>
      <point x="426" y="600" type="curve"/>
      <point x="553" y="600"/>
      <point x="652" y="496"/>
      <point x="652" y="367" type="curve"/>
      <point x="652" y="237"/>
      <point x="556" y="133"/>
    </contour>
  </outline>
</glyph>
<glyph name="oogonek" format="2">
  <advance width="579"/>
  <unicode hex="01EB"/>
  <outline>
    <contour>
      <point x="349" y="-232" type="curve" smooth="yes"/>
      <point x="405" y="-232"/>
      <point x="464" y="-201"/>
      <point x="494" y="-157" type="curve"/>
      <point x="444" y="-85" type="line"/>
      <point x="422" y="-118"/>
      <point x="399" y="-134"/>
      <point x="372" y="-134" type="curve"/>
      <point x="349" y="-134"/>
      <point x="328" y="-120"/>
      <point x="328" y="-92" type="curve" smooth="yes"/>
      <point x="328" y="-48"/>
      <point x="359" y="-29"/>
      <point x="406" y="1" type="curve" smooth="yes"/>
      <point x="484" y="51"/>
      <point x="537" y="128"/>
      <point x="537" y="224" type="curve"/>
      <point x="537" y="358"/>
      <point x="443" y="458"/>
      <point x="293" y="458" type="curve"/>
      <point x="144" y="457"/>
      <point x="42" y="357"/>
      <point x="42" y="224" type="curve"/>
      <point x="42" y="76"/>
      <point x="146" y="-12"/>
      <point x="291" y="-12" type="curve"/>
      <point x="300" y="-12"/>
      <point x="326" y="-2"/>
      <point x="332" y="2" type="curve"/>
      <point x="298" y="10" type="line"/>
      <point x="243" y="-12"/>
      <point x="213" y="-59"/>
      <point x="213" y="-103" type="curve" smooth="yes"/>
      <point x="213" y="-191"/>
      <point x="277" y="-232"/>
    </contour>
    <contour>
      <point x="289" y="102" type="curve"/>
      <point x="228" y="102"/>
      <point x="183" y="154"/>
      <point x="183" y="223" type="curve"/>
      <point x="183" y="292"/>
      <point x="228" y="344"/>
      <point x="289" y="344" type="curve"/>
      <point x="354" y="344"/>
      <point x="396" y="292"/>
      <point x="396" y="223" type="curve"/>
      <point x="396" y="154"/>
      <point x="354" y="102"/>
    </contour>
  </outline>
</glyph>
<glyph name="jdotless" format="2">
  <advance width="295"/>
  <unicode hex="0237"/>
  <anchor x="153" y="0" name="bottom"/>
  <anchor x="153" y="437" name="top"/>
  <outline>
    <contour>
      <point x="101" y="-211" type="line"/>
      <point x="189" y="-171"/>
      <point x="223" y="-104"/>
      <point x="223" y="0" type="curve"/>
      <point x="223" y="437" type="line"/>
      <point x="83" y="437" type="line"/>
      <point x="83" y="8" type="line"/>
      <point x="83" y="-53"/>
      <point x="60" y="-95"/>
      <point x="20" y="-124" type="curve"/>
    </contour>
  </outline>
</glyph>
<glyph name="schwa" format="2">
  <advance width="553"/>
  <unicode hex="0259"/>
  <outline>
    <contour>
      <point x="266" y="449" type="curve"/>
      <point x="218" y="449"/>
      <point x="161" y="432"/>
      <point x="114" y="405" type="curve"/>
      <point x="176" y="301" type="line"/>
      <point x="204" y="319"/>
      <point x="232" y="330"/>
      <point x="263" y="330" type="curve"/>
      <point x="327" y="330"/>
      <point x="377" y="288"/>
      <point x="377" y="206" type="curve"/>
      <point x="377" y="134"/>
      <point x="337" y="88"/>
      <point x="274" y="88" type="curve"/>
      <point x="219" y="88"/>
      <point x="195" y="119"/>
      <point x="184" y="153" type="curve"/>
      <point x="155" y="140" type="line"/>
      <point x="401" y="223" type="line"/>
      <point x="370" y="299" type="line"/>
      <point x="30" y="191" type="line"/>
      <point x="54" y="54"/>
      <point x="138" y="-21"/>
      <point x="263" y="-21" type="curve"/>
      <point x="403" y="-21"/>
      <point x="515" y="83"/>
      <point x="515" y="214" type="curve"/>
      <point x="515" y="352"/>
      <point x="426" y="449"/>
    </contour>
  </outline>
</glyph>
<glyph name="nhookleft" format="2">
  <advance width="594"/>
  <unicode hex="0272"/>
  <anchor x="297" y="0" name="bottom"/>
  <anchor x="297" y="447" name="top"/>
  <outline>
    <contour>
      <point x="93" y="-211" type="line"/>
      <point x="168" y="-167"/>
      <point x="215" y="-98"/>
      <point x="215" y="0" type="curve"/>
      <point x="215" y="38" type="line"/>
      <point x="75" y="38" type="line"/>
      <point x="75" y="8" type="line"/>
      <point x="75" y="-53"/>
      <point x="53" y="-95"/>
      <point x="13" y="-124" type="curve"/>
    </contour>
    <contour>
      <point x="199" y="437" type="line"/>
      <point x="72" y="437" type="line"/>
      <point x="72" y="0" type="line"/>
      <point x="212" y="0" type="line"/>
      <point x="212" y="178" type="line"/>
      <point x="212" y="271"/>
      <point x="253" y="339"/>
      <point x="318" y="339" type="curve"/>
      <point x="363" y="339"/>
      <point x="380" y="314"/>
      <point x="382" y="275" type="curve"/>
      <point x="382" y="0" type="line"/>
      <point x="522" y="0" type="line"/>
      <point x="522" y="327" type="line"/>
      <point x="520" y="404"/>
      <point x="458" y="458"/>
      <point x="376" y="458" type="curve"/>
      <point x="295" y="458"/>
      <point x="239" y="421"/>
      <point x="208" y="366" type="curve"/>
      <point x="210" y="359" type="line"/>
    </contour>
  </outline>
</glyph>
<glyph name="circumflex" format="2">
  <advance width="405"/>
  <unicode hex="02C6"/>
  <outline>
    <contour>
      <point x="259" y="489" type="line"/>
      <point x="385" y="489" type="line"/>
      <point x="196" y="673" type="line"/>
      <point x="195" y="673" type="line"/>
      <point x="10" y="489" type="line"/>
      <point x="136" y="489" type="line"/>
      <point x="215" y="573" type="line"/>
      <point x="181" y="563" type="line"/>
    </contour>
  </outline>
</glyph>
<glyph name="caron" format="2">
  <advance width="405"/>
  <unicode hex="02C7"/>
  <outline>
    <contour>
      <point x="136" y="673" type="line"/>
      <point x="10" y="673" type="line"/>
      <point x="199" y="489" type="line"/>
      <point x="200" y="489" type="line"/>
      <point x="385" y="673" type="line"/>
      <point x="259" y="673" type="line"/>
      <point x="180" y="589" type="line"/>
      <point x="214" y="599" type="line"/>
    </contour>
  </outline>
</glyph>
<glyph name="breve" format="2">
  <advance width="435"/>
  <unicode hex="02D8"/>
  <outline>
    <contour>
      <point x="218" y="470" type="curve"/>
      <point x="311" y="470"/>
      <point x="363" y="527"/>
      <point x="385" y="657" type="curve"/>
      <point x="292" y="657" type="line"/>
      <point x="280" y="600"/>
      <point x="265" y="563"/>
      <point x="218" y="563" type="curve"/>
      <point x="171" y="563"/>
      <point x="155" y="600"/>
      <point x="143" y="657" type="curve"/>
      <point x="50" y="657" type="line"/>
      <point x="72" y="531"/>
      <point x="124" y="470"/>
    </contour>
  </outline>
</glyph>
<glyph name="dotaccent" format="2">
  <advance width="238"/>
  <unicode hex="02D9"/>
  <outline>
    <contour>
      <point x="43" y="612" type="curve"/>
      <point x="43" y="570"/>
      <point x="82" y="542"/>
      <point x="120" y="542" type="curve"/>
      <point x="157" y="542"/>
      <point x="195" y="570"/>
      <point x="195" y="612" type="curve"/>
      <point x="195" y="653"/>
      <point x="157" y="683"/>
      <point x="120" y="683" type="curve"/>
      <point x="82" y="683"/>
      <point x="43" y="653"/>
    </contour>
  </outline>
</glyph>
<glyph name="ring" format="2">
  <advance width="289"/>
  <unicode hex="02DA"/>
  <outline>
    <contour>
      <point x="23" y="566" type="curve"/>
      <point x="23" y="503"/>
      <point x="71" y="461"/>
      <point x="135" y="461" type="curve"/>
      <point x="198" y="461"/>
      <point x="246" y="503"/>
      <point x="246" y="566" type="curve"/>
      <point x="246" y="630"/>
      <point x="198" y="670"/>
      <point x="135" y="670" type="curve"/>
      <point x="70" y="670"/>
      <point x="23" y="630"/>
    </contour>
    <contour>
      <point x="96" y="564" type="curve"/>
      <point x="96" y="592"/>
      <point x="111" y="606"/>
      <point x="135" y="606" type="curve"/>
      <point x="159" y="606"/>
      <point x="174" y="592"/>
      <point x="174" y="564" type="curve"/>
      <point x="174" y="539"/>
      <point x="159" y="523"/>
      <point x="135" y="523" type="curve"/>
      <point x="111" y="523"/>
      <point x="96" y="539"/>
    </contour>
  </outline>
</glyph>
<glyph name="ogonek" format="2">
  <advance width="384"/>
  <unicode hex="02DB"/>
  <outline>
    <contour>
      <point x="196" y="-232" type="curve"/>
      <point x="242" y="-232"/>
      <point x="301" y="-201"/>
      <point x="331" y="-157" type="curve"/>
      <point x="281" y="-85" type="line"/>
      <point x="259" y="-118"/>
      <point x="236" y="-134"/>
      <point x="209" y="-134" type="curve"/>
      <point x="186" y="-134"/>
      <point x="165" y="-126"/>
      <point x="165" y="-92" type="curve" smooth="yes"/>
      <point x="165" y="-53"/>
      <point x="217" y="-29"/>
      <point x="293" y="0" type="curve"/>
      <point x="135" y="10" type="line"/>
      <point x="80" y="-12"/>
      <point x="50" y="-59"/>
      <point x="50" y="-103" type="curve" smooth="yes"/>
      <point x="50" y="-181"/>
      <point x="114" y="-232"/>
    </contour>
  </outline>
</glyph>
<glyph name="hookabovecomb" format="2">
  <unicode hex="0309"/>
  <anchor x="193" y="530" name="_top"/>
  <anchor x="163" y="750" name="top"/>
  <outline>
    <contour>
      <point x="164" y="613" type="curve"/>
      <point x="193" y="576" type="line"/>
      <point x="240" y="601"/>
      <point x="280" y="634"/>
      <point x="280" y="686" type="curve" smooth="yes"/>
      <point x="280" y="726"/>
      <point x="256" y="774"/>
      <point x="193" y="774" type="curve" smooth="yes"/>
      <point x="151" y="774"/>
      <point x="108" y="751"/>
      <point x="85" y="702" type="curve"/>
      <point x="135" y="672" type="line"/>
      <point x="142" y="687"/>
      <point x="156" y="699"/>
      <point x="174" y="699" type="curve" smooth="yes"/>
      <point x="195" y="699"/>
      <point x="203" y="685"/>
      <point x="203" y="666" type="curve"/>
      <point x="203" y="643"/>
      <point x="187" y="629"/>
    </contour>
  </outline>
</glyph>
<glyph name="commaturnedabovecomb" format="2">
  <unicode hex="0312"/>
  <anchor x="129" y="437" name="_top"/>
  <anchor x="129" y="699" name="top"/>
  <outline>
    <contour>
      <point x="136" y="679" type="line"/>
      <point x="77" y="640"/>
      <point x="41" y="552"/>
      <point x="52" y="495" type="curve"/>
      <point x="174" y="494" type="line"/>
      <point x="165" y="541"/>
      <point x="179" y="603"/>
      <point x="208" y="631" type="curve"/>
    </contour>
  </outline>
</glyph>
<glyph name="horncomb" format="2">
  <unicode hex="031B"/>
  <anchor x="130" y="736" name="_topright"/>
  <anchor x="50" y="470" name="topright"/>
  <outline>
    <contour>
      <point x="56" y="736" type="curve"/>
      <point x="56" y="653" type="line"/>
      <point x="149" y="653"/>
      <point x="222" y="692"/>
      <point x="244" y="822" type="curve"/>
      <point x="141" y="822" type="line"/>
      <point x="129" y="765"/>
      <point x="103" y="736"/>
    </contour>
  </outline>
</glyph>
<glyph name="dotbelowcomb" format="2">
  <unicode hex="0323"/>
  <anchor x="120" y="0" name="_bottom"/>
  <anchor x="120" y="-179" name="bottom"/>
  <outline>
    <contour>
      <point x="56.4707" y="-109.16120000000001" type="curve"/>
      <point x="56.4707" y="-143.80700000000002"/>
      <point x="88.6418" y="-166.9042"/>
      <point x="119.988" y="-166.9042" type="curve"/>
      <point x="150.5093" y="-166.9042"/>
      <point x="181.8555" y="-143.80700000000002"/>
      <point x="181.8555" y="-109.16120000000001" type="curve"/>
      <point x="181.8555" y="-75.34030000000007"/>
      <point x="150.5093" y="-50.5933"/>
      <point x="119.988" y="-50.5933" type="curve"/>
      <point x="88.6418" y="-50.5933"/>
      <point x="56.4707" y="-75.34030000000007"/>
    </contour>
  </outline>
</glyph>
<glyph name="commaaccentcomb" format="2">
  <unicode hex="0326"/>
  <anchor x="146" y="0" name="_bottom"/>
  <anchor x="142" y="-194" name="bottom"/>
  <outline>
    <contour>
      <point x="122" y="-214" type="line"/>
      <point x="181" y="-175"/>
      <point x="217" y="-87"/>
      <point x="206" y="-30" type="curve"/>
      <point x="84" y="-29" type="line"/>
      <point x="93" y="-76"/>
      <point x="79" y="-138"/>
      <point x="50" y="-166" type="curve"/>
    </contour>
  </outline>
</glyph>
<glyph name="strokeshortcomb" format="2">
  <unicode hex="0335"/>
  <anchor x="182" y="371" name="_center"/>
  <outline>
    <contour>
      <point x="20" y="432" type="line"/>
      <point x="20" y="302" type="line"/>
      <point x="335" y="302" type="line"/>
      <point x="335" y="432" type="line"/>
    </contour>
  </outline>
</glyph>
<glyph name="Delta" format="2">
  <advance width="734"/>
  <unicode hex="0394"/>
  <outline>
    <contour>
      <point x="12" y="0" type="line"/>
      <point x="722" y="0" type="line"/>
      <point x="372" y="765" type="line"/>
      <point x="367" y="765" type="line"/>
    </contour>
    <contour>
      <point x="540" y="80" type="line"/>
      <point x="615" y="140" type="line"/>
      <point x="97" y="140" type="line"/>
      <point x="188" y="62" type="line"/>
      <point x="427" y="572" type="line"/>
      <point x="304" y="594" type="line"/>
    </contour>
  </outline>
</glyph>
<glyph name="pi" format="2">
  <advance width="444"/>
  <unicode hex="03C0"/>
  <outline>
    <contour>
      <point x="9" y="368" type="line"/>
      <point x="9" y="247" type="line"/>
      <point x="67" y="247" type="line"/>
      <point x="67" y="0" type="line"/>
      <point x="192" y="0" type="line"/>
      <point x="192" y="247" type="line"/>
      <point x="244" y="247" type="line"/>
      <point x="244" y="0" type="line"/>
      <point x="368" y="0" type="line"/>
      <point x="368" y="247" type="line"/>
      <point x="431" y="247" type="line"/>
      <point x="431" y="368" type="line"/>
    </contour>
  </outline>
</glyph>
<glyph name="Germandbls" format="2">
  <advance width="839"/>
  <unicode hex="1E9E"/>
  <outline>
    <contour>
      <point x="567" y="-8" type="curve"/>
      <point x="718" y="-8"/>
      <point x="799" y="91"/>
      <point x="799" y="203" type="curve"/>
      <point x="799" y="333"/>
      <point x="709" y="379"/>
      <point x="634" y="423" type="curve"/>
      <point x="588" y="452"/>
      <point x="537" y="478"/>
      <point x="537" y="530" type="curve"/>
      <point x="537" y="568"/>
      <point x="558" y="595"/>
      <point x="594" y="595" type="curve"/>
      <point x="615" y="595"/>
      <point x="630" y="587"/>
      <point x="639" y="580" type="curve"/>
      <point x="677" y="687" type="line"/>
      <point x="631" y="736"/>
      <point x="504" y="786"/>
      <point x="398" y="786" type="curve"/>
      <point x="207" y="786"/>
      <point x="95" y="637"/>
      <point x="95" y="421" type="curve"/>
      <point x="95" y="0" type="line"/>
      <point x="241" y="0" type="line"/>
      <point x="241" y="417" type="line"/>
      <point x="241" y="594"/>
      <point x="307" y="671"/>
      <point x="413" y="671" type="curve"/>
      <point x="479" y="671"/>
      <point x="542" y="649"/>
      <point x="592" y="597" type="curve"/>
      <point x="637" y="669" type="line"/>
      <point x="622" y="685"/>
      <point x="602" y="693"/>
      <point x="571" y="693" type="curve"/>
      <point x="463" y="685"/>
      <point x="393" y="620"/>
      <point x="393" y="506" type="curve"/>
      <point x="393" y="399"/>
      <point x="481" y="339"/>
      <point x="551" y="302" type="curve"/>
      <point x="602" y="274"/>
      <point x="648" y="247"/>
      <point x="648" y="203" type="curve"/>
      <point x="648" y="139"/>
      <point x="596" y="120"/>
      <point x="554" y="120" type="curve"/>
      <point x="502" y="120"/>
      <point x="430" y="146"/>
      <point x="379" y="184" type="curve"/>
      <point x="315" y="71" type="line"/>
      <point x="392" y="16"/>
      <point x="483" y="-8"/>
    </contour>
  </outline>
</glyph>
<glyph name="ohorntilde" format="2">
  <advance width="571"/>
  <unicode hex="1EE1"/>
  <outline>
    <contour>
      <point x="322.2800334" y="496.7779046" type="curve"/>
      <point x="371.2733191" y="496.7779046"/>
      <point x="410.05929219999996" y="550.5341629"/>
      <point x="397.811177" y="621.9828763999999" type="curve"/>
      <point x="339.97248859999996" y="621.9828763999999" type="line"/>
      <point x="342.0132912" y="595.4441936"/>
      <point x="340.6530311" y="564.8239056"/>
      <point x="319.55868830000003" y="564.8239056" type="curve"/>
      <point x="306.6300306" y="564.8239056"/>
      <point x="293.7013729" y="576.3914783"/>
      <point x="278.7310877" y="589.320136" type="curve"/>
      <point x="259.6783724" y="605.6515062"/>
      <point x="237.90348709999998" y="624.023679"/>
      <point x="210.6850867" y="624.023679" type="curve"/>
      <point x="146.7215158" y="624.023679"/>
      <point x="114.0596003" y="562.1017356"/>
      <point x="121.54474289999999" y="498.13898959999995" type="curve"/>
      <point x="179.38343129999998" y="498.13898959999995" type="line"/>
      <point x="176.6620862" y="522.63522"/>
      <point x="182.1056013" y="551.8952479"/>
      <point x="204.56102909999998" y="551.8952479" type="curve"/>
      <point x="216.80914429999999" y="551.8952479"/>
      <point x="228.376717" y="543.0490202999999"/>
      <point x="240.6248322" y="532.8425325999999" type="curve"/>
      <point x="261.0386325" y="516.5111624"/>
      <point x="284.1746028" y="496.7779046"/>
    </contour>
    <component base="ohorn"/>
  </outline>
</glyph>
<glyph name="endash" format="2">
  <advance width="519"/>
  <unicode hex="2013"/>
  <outline>
    <contour>
      <point x="102" y="286" type="line"/>
      <point x="102" y="165" type="line"/>
      <point x="409" y="165" type="line"/>
      <point x="409" y="286" type="line"/>
    </contour>
  </outline>
</glyph>
<glyph name="emdash" format="2">
  <advance width="714"/>
  <unicode hex="2014"/>
  <outline>
    <contour>
      <point x="101" y="286" type="line"/>
      <point x="101" y="165" type="line"/>
      <point x="613" y="165" type="line"/>
      <point x="613" y="286" type="line"/>
    </contour>
  </outline>
</glyph>
<glyph name="quoteleft" format="2">
  <advance width="192"/>
  <unicode hex="2018"/>
  <outline>
    <contour>
      <point x="100" y="745" type="line"/>
      <point x="51" y="715"/>
      <point x="7" y="654"/>
      <point x="22" y="579" type="curve"/>
      <point x="129" y="586" type="line"/>
      <point x="120" y="633"/>
      <point x="143" y="690"/>
      <point x="172" y="717" type="curve"/>
    </contour>
  </outline>
</glyph>
<glyph name="quoteright" format="2">
  <advance width="197"/>
  <unicode hex="2019"/>
  <outline>
    <contour>
      <point x="92" y="559" type="line"/>
      <point x="92" y="559" type="line"/>
      <point x="139" y="586"/>
      <point x="181" y="668"/>
      <point x="170" y="725" type="curve"/>
      <point x="63" y="718" type="line"/>
      <point x="72" y="671"/>
      <point x="49" y="614"/>
      <point x="20" y="587" type="curve"/>
    </contour>
  </outline>
</glyph>
<glyph name="dagger" format="2">
  <advance width="300"/>
  <unicode hex="2020"/>
  <outline>
    <contour>
      <point x="18" y="483" type="line"/>
      <point x="18" y="361" type="line"/>
      <point x="281" y="361" type="line"/>
      <point x="281" y="483" type="line"/>
    </contour>
    <contour>
      <point x="87" y="634" type="line"/>
      <point x="87" y="-29" type="line"/>
      <point x="213" y="-29" type="line"/>
      <point x="213" y="634" type="line"/>
    </contour>
  </outline>
</glyph>
<glyph name="daggerdbl" format="2">
  <advance width="300"/>
  <unicode hex="2021"/>
  <outline>
    <contour>
      <point x="0" y="304" type="line"/>
      <point x="0" y="182" type="line"/>
      <point x="301" y="182" type="line"/>
      <point x="301" y="304" type="line"/>
    </contour>
    <contour>
      <point x="18" y="483" type="line"/>
      <point x="18" y="361" type="line"/>
      <point x="281" y="361" type="line"/>
      <point x="281" y="483" type="line"/>
    </contour>
    <contour>
      <point x="87" y="634" type="line"/>
      <point x="87" y="-29" type="line"/>
      <point x="213" y="-29" type="line"/>
      <point x="213" y="634" type="line"/>
    </contour>
  </outline>
</glyph>
<glyph name="bullet" format="2">
  <advance width="488"/>
  <unicode hex="2022"/>
  <outline>
    <contour>
      <point x="80" y="306" type="curve" smooth="yes"/>
      <point x="80" y="306" type="line" smooth="yes"/>
      <point x="80" y="213"/>
      <point x="153" y="142"/>
      <point x="244" y="142" type="curve" smooth="yes"/>
      <point x="336" y="142"/>
      <point x="410" y="213"/>
      <point x="410" y="306" type="curve" smooth="yes"/>
      <point x="410" y="398"/>
      <point x="336" y="473"/>
      <point x="244" y="473" type="curve" smooth="yes"/>
      <point x="153" y="473"/>
      <point x="80" y="398"/>
    </contour>
  </outline>
</glyph>
<glyph name="ellipsis" format="2">
  <advance width="546"/>
  <unicode hex="2026"/>
  <outline>
    <contour>
      <point x="15" y="72" type="curve" smooth="yes"/>
      <point x="15" y="72" type="line" smooth="yes"/>
      <point x="15" y="28"/>
      <point x="51" y="0"/>
      <point x="87" y="0" type="curve" smooth="yes"/>
      <point x="120" y="0"/>
      <point x="157" y="28"/>
      <point x="157" y="72" type="curve" smooth="yes"/>
      <point x="157" y="113"/>
      <point x="120" y="145"/>
      <point x="87" y="145" type="curve" smooth="yes"/>
      <point x="51" y="145"/>
      <point x="15" y="113"/>
    </contour>
    <contour>
      <point x="202" y="72" type="curve" smooth="yes"/>
      <point x="202" y="72" type="line" smooth="yes"/>
      <point x="202" y="28"/>
      <point x="238" y="0"/>
      <point x="274" y="0" type="curve" smooth="yes"/>
      <point x="307" y="0"/>
      <point x="344" y="28"/>
      <point x="344" y="72" type="curve" smooth="yes"/>
      <point x="344" y="113"/>
      <point x="307" y="145"/>
      <point x="274" y="145" type="curve" smooth="yes"/>
      <point x="238" y="145"/>
      <point x="202" y="113"/>
    </contour>
    <contour>
      <point x="389" y="72" type="curve" smooth="yes"/>
      <point x="389" y="72" type="line" smooth="yes"/>
      <point x="389" y="28"/>
      <point x="425" y="0"/>
      <point x="461" y="0" type="curve" smooth="yes"/>
      <point x="494" y="0"/>
      <point x="531" y="28"/>
      <point x="531" y="72" type="curve" smooth="yes"/>
      <point x="531" y="113"/>
      <point x="494" y="145"/>
      <point x="461" y="145" type="curve" smooth="yes"/>
      <point x="425" y="145"/>
      <point x="389" y="113"/>
    </contour>
  </outline>
</glyph>
<glyph name="perthousand" format="2">
  <advance width="1169"/>
  <unicode hex="2030"/>
  <outline>
    <contour>
      <point x="196" y="294" type="curve"/>
      <point x="306" y="294"/>
      <point x="357" y="376"/>
      <point x="357" y="484" type="curve"/>
      <point x="357" y="591"/>
      <point x="306" y="673"/>
      <point x="196" y="673" type="curve"/>
      <point x="85" y="673"/>
      <point x="35" y="591"/>
      <point x="35" y="484" type="curve"/>
      <point x="35" y="376"/>
      <point x="85" y="294"/>
    </contour>
    <contour>
      <point x="157" y="484" type="curve"/>
      <point x="157" y="547"/>
      <point x="165" y="574"/>
      <point x="196" y="574" type="curve"/>
      <point x="227" y="574"/>
      <point x="234" y="547"/>
      <point x="234" y="484" type="curve"/>
      <point x="234" y="429"/>
      <point x="227" y="392"/>
      <point x="196" y="392" type="curve"/>
      <point x="165" y="392"/>
      <point x="157" y="429"/>
    </contour>
    <contour>
      <point x="614" y="-28" type="curve"/>
      <point x="724" y="-28"/>
      <point x="775" y="54"/>
      <point x="775" y="162" type="curve"/>
      <point x="775" y="269"/>
      <point x="724" y="351"/>
      <point x="614" y="351" type="curve"/>
      <point x="503" y="351"/>
      <point x="453" y="269"/>
      <point x="453" y="162" type="curve"/>
      <point x="453" y="54"/>
      <point x="503" y="-28"/>
    </contour>
    <contour>
      <point x="575" y="162" type="curve"/>
      <point x="575" y="225"/>
      <point x="583" y="252"/>
      <point x="614" y="252" type="curve"/>
      <point x="645" y="252"/>
      <point x="652" y="225"/>
      <point x="652" y="162" type="curve"/>
      <point x="652" y="107"/>
      <point x="645" y="70"/>
      <point x="614" y="70" type="curve"/>
      <point x="583" y="70"/>
      <point x="575" y="107"/>
    </contour>
    <contour>
      <point x="728" y="673" type="line"/>
      <point x="589" y="673" type="line"/>
      <point x="105" y="0" type="line"/>
      <point x="242" y="-2" type="line"/>
    </contour>
    <contour>
      <point x="973" y="-28" type="curve"/>
      <point x="1083" y="-28"/>
      <point x="1134" y="54"/>
      <point x="1134" y="162" type="curve"/>
      <point x="1134" y="269"/>
      <point x="1083" y="351"/>
      <point x="973" y="351" type="curve"/>
      <point x="862" y="351"/>
      <point x="812" y="269"/>
      <point x="812" y="162" type="curve"/>
      <point x="812" y="54"/>
      <point x="862" y="-28"/>
    </contour>
    <contour>
      <point x="934" y="162" type="curve"/>
      <point x="934" y="225"/>
      <point x="942" y="252"/>
      <point x="973" y="252" type="curve"/>
      <point x="1004" y="252"/>
      <point x="1011" y="225"/>
      <point x="1011" y="162" type="curve"/>
      <point x="1011" y="107"/>
      <point x="1004" y="70"/>
      <point x="973" y="70" type="curve"/>
      <point x="942" y="70"/>
      <point x="934" y="107"/>
    </contour>
  </outline>
</glyph>
<glyph name="guilsinglleft" format="2">
  <advance width="359"/>
  <unicode hex="2039"/>
  <outline>
    <contour>
      <point x="15" y="244" type="curve"/>
      <point x="269" y="39" type="line"/>
      <point x="269" y="163" type="line"/>
      <point x="269" y="163"/>
      <point x="175" y="244"/>
      <point x="175" y="244" type="curve"/>
      <point x="175" y="244"/>
      <point x="269" y="323"/>
      <point x="269" y="323" type="curve"/>
      <point x="269" y="448" type="line"/>
      <point x="269" y="448"/>
      <point x="15" y="244"/>
    </contour>
  </outline>
</glyph>
<glyph name="guilsinglright" format="2">
  <advance width="349"/>
  <unicode hex="203A"/>
  <outline>
    <contour>
      <point x="334" y="244" type="curve"/>
      <point x="80" y="39" type="line"/>
      <point x="80" y="163" type="line"/>
      <point x="80" y="163"/>
      <point x="174" y="244"/>
      <point x="174" y="244" type="curve"/>
      <point x="174" y="244"/>
      <point x="80" y="323"/>
      <point x="80" y="323" type="curve"/>
      <point x="80" y="448" type="line"/>
      <point x="80" y="448"/>
      <point x="334" y="244"/>
    </contour>
  </outline>
</glyph>
<glyph name="fraction" format="2">
  <advance width="586"/>
  <unicode hex="2044"/>
  <outline>
    <contour>
      <point x="542" y="698" type="line"/>
      <point x="412" y="698" type="line"/>
      <point x="5" y="0" type="line"/>
      <point x="135" y="0" type="line"/>
    </contour>
  </outline>
</glyph>
<glyph name="foursuperior" format="2">
  <advance width="409"/>
  <unicode hex="2074"/>
  <outline>
    <contour>
      <point x="379" y="437" type="line"/>
      <point x="111" y="437" type="line"/>
      <point x="129" y="387" type="line"/>
      <point x="241" y="551" type="line"/>
      <point x="211" y="543" type="line"/>
      <point x="211" y="265" type="line"/>
      <point x="331" y="265" type="line"/>
      <point x="331" y="687" type="line"/>
      <point x="243" y="687" type="line"/>
      <point x="30" y="393" type="line"/>
      <point x="32" y="359" type="line"/>
      <point x="379" y="359" type="line"/>
    </contour>
  </outline>
</glyph>
<glyph name="colonsign" format="2">
  <advance width="697"/>
  <unicode hex="20A1"/>
  <outline>
    <contour>
      <point x="552" y="818" type="line"/>
      <point x="426" y="818" type="line"/>
      <point x="96" y="-75" type="line"/>
      <point x="222" y="-75" type="line"/>
    </contour>
    <contour>
      <point x="732" y="818" type="line"/>
      <point x="606" y="818" type="line"/>
      <point x="276" y="-75" type="line"/>
      <point x="402" y="-75" type="line"/>
    </contour>
    <component base="C"/>
  </outline>
</glyph>
<glyph name="lira" format="2">
  <advance width="672"/>
  <unicode hex="20A4"/>
  <outline>
    <contour>
      <point x="468" y="498" type="line"/>
      <point x="103" y="498" type="line"/>
      <point x="103" y="368" type="line"/>
      <point x="468" y="368" type="line"/>
    </contour>
    <contour>
      <point x="468" y="330" type="line"/>
      <point x="103" y="330" type="line"/>
      <point x="103" y="200" type="line"/>
      <point x="468" y="200" type="line"/>
    </contour>
    <contour>
      <point x="173" y="560" type="curve" smooth="yes"/>
      <point x="173" y="213" type="line" smooth="yes"/>
      <point x="173" y="144"/>
      <point x="159" y="140"/>
      <point x="120" y="140" type="curve" smooth="yes"/>
      <point x="75" y="140" type="line"/>
      <point x="75" y="0" type="line"/>
      <point x="495" y="0" type="line" smooth="yes"/>
      <point x="589" y="0"/>
      <point x="637" y="53"/>
      <point x="637" y="132" type="curve" smooth="yes"/>
      <point x="637" y="213" type="line"/>
      <point x="511" y="212" type="line"/>
      <point x="511" y="179" type="line" smooth="yes"/>
      <point x="511" y="152"/>
      <point x="496" y="140"/>
      <point x="467" y="140" type="curve" smooth="yes"/>
      <point x="270" y="140" type="line"/>
      <point x="298" y="139" type="line"/>
      <point x="321" y="158"/>
      <point x="318" y="256"/>
      <point x="318" y="217" type="curve" smooth="yes"/>
      <point x="318" y="193" type="line"/>
      <point x="318" y="504" type="line" smooth="yes"/>
      <point x="318" y="570"/>
      <point x="349" y="597"/>
      <point x="414" y="597" type="curve" smooth="yes"/>
      <point x="505" y="597"/>
      <point x="512" y="544"/>
      <point x="516" y="555" type="curve"/>
      <point x="621" y="627" type="line"/>
      <point x="585" y="696"/>
      <point x="510" y="737"/>
      <point x="411" y="737" type="curve" smooth="yes"/>
      <point x="269" y="737"/>
      <point x="173" y="656"/>
    </contour>
  </outline>
</glyph>
<glyph name="naira" format="2">
  <advance width="853"/>
  <unicode hex="20A6"/>
  <anchor x="427" y="0" name="bottom"/>
  <anchor x="407" y="736" name="top"/>
  <outline>
    <contour>
      <point x="450" y="443" type="line"/>
      <point x="450" y="346" type="line"/>
      <point x="838" y="346" type="line"/>
      <point x="838" y="443" type="line"/>
    </contour>
    <contour>
      <point x="420" y="346" type="line"/>
      <point x="420" y="443" type="line"/>
      <point x="15" y="443" type="line"/>
      <point x="15" y="346" type="line"/>
    </contour>
    <contour>
      <point x="754" y="-30" type="line"/>
      <point x="758" y="-30" type="line"/>
      <point x="758" y="736" type="line"/>
      <point x="612" y="736" type="line"/>
      <point x="615" y="277" type="line"/>
      <point x="647" y="263" type="line"/>
      <point x="101" y="765" type="line"/>
      <point x="95" y="765" type="line"/>
      <point x="95" y="0" type="line"/>
      <point x="242" y="0" type="line"/>
      <point x="239" y="450" type="line"/>
      <point x="196" y="474" type="line"/>
    </contour>
  </outline>
</glyph>
<glyph name="peseta" format="2">
  <advance width="671"/>
  <unicode hex="20A7"/>
  <outline>
    <contour>
      <point x="540" y="535" type="line"/>
      <point x="540" y="438" type="line"/>
      <point x="656" y="438" type="line"/>
      <point x="656" y="535" type="line"/>
    </contour>
    <contour>
      <point x="133" y="438" type="line"/>
      <point x="133" y="535" type="line"/>
      <point x="15" y="535" type="line"/>
      <point x="15" y="438" type="line"/>
    </contour>
    <component base="P"/>
  </outline>
</glyph>
<glyph name="won" format="2">
  <advance width="1023"/>
  <unicode hex="20A9"/>
  <outline>
    <contour>
      <point x="65" y="473" type="line"/>
      <point x="65" y="376" type="line"/>
      <point x="958" y="376" type="line"/>
      <point x="958" y="473" type="line"/>
    </contour>
    <component base="W"/>
  </outline>
</glyph>
<glyph name="dong" format="2">
  <advance width="631"/>
  <unicode hex="20AB"/>
  <outline>
    <contour>
      <point x="331" y="746" type="line"/>
      <point x="331" y="649" type="line"/>
      <point x="612" y="649" type="line"/>
      <point x="612" y="746" type="line"/>
    </contour>
    <contour>
      <point x="90" y="97" type="line"/>
      <point x="90" y="0" type="line"/>
      <point x="556" y="0" type="line"/>
      <point x="556" y="97" type="line"/>
    </contour>
    <contour>
      <point x="264" y="150" type="curve"/>
      <point x="333" y="150"/>
      <point x="385" y="179"/>
      <point x="427" y="217" type="curve"/>
      <point x="416" y="247" type="line"/>
      <point x="416" y="162" type="line"/>
      <point x="556" y="162" type="line"/>
      <point x="556" y="789" type="line"/>
      <point x="417" y="789" type="line"/>
      <point x="417" y="524" type="line"/>
      <point x="421" y="565" type="line"/>
      <point x="388" y="601"/>
      <point x="334" y="621"/>
      <point x="282" y="621" type="curve"/>
      <point x="155" y="621"/>
      <point x="62" y="537"/>
      <point x="62" y="389" type="curve"/>
      <point x="62" y="240"/>
      <point x="148" y="150"/>
    </contour>
    <contour>
      <point x="310" y="268" type="curve"/>
      <point x="253" y="268"/>
      <point x="204" y="321"/>
      <point x="204" y="391" type="curve"/>
      <point x="204" y="461"/>
      <point x="253" y="511"/>
      <point x="310" y="511" type="curve"/>
      <point x="361" y="511"/>
      <point x="401" y="484"/>
      <point x="416" y="441" type="curve"/>
      <point x="416" y="334" type="line"/>
      <point x="394" y="290"/>
      <point x="361" y="268"/>
    </contour>
  </outline>
</glyph>
<glyph name="euro" format="2">
  <advance width="765"/>
  <unicode hex="20AC"/>
  <outline>
    <contour>
      <point x="50" y="501" type="line"/>
      <point x="50" y="388" type="line"/>
      <point x="439" y="388" type="line"/>
      <point x="439" y="501" type="line"/>
    </contour>
    <contour>
      <point x="51" y="343" type="line"/>
      <point x="51" y="230" type="line"/>
      <point x="439" y="230" type="line"/>
      <point x="439" y="343" type="line"/>
    </contour>
    <component base="C" xOffset="68"/>
  </outline>
</glyph>
<glyph name="kip" format="2">
  <advance width="719"/>
  <unicode hex="20AD"/>
  <outline>
    <contour>
      <point x="35" y="449" type="line"/>
      <point x="35" y="309" type="line"/>
      <point x="593" y="309" type="line"/>
      <point x="593" y="449" type="line"/>
    </contour>
    <component base="K" xOffset="20"/>
  </outline>
</glyph>
<glyph name="peso" format="2">
  <advance width="657"/>
  <unicode hex="20B1"/>
  <outline>
    <contour>
      <point x="469" y="588" type="line"/>
      <point x="469" y="491" type="line"/>
      <point x="642" y="491" type="line"/>
      <point x="642" y="588" type="line"/>
    </contour>
    <contour>
      <point x="489" y="457" type="line"/>
      <point x="489" y="360" type="line"/>
      <point x="642" y="360" type="line"/>
      <point x="642" y="457" type="line"/>
    </contour>
    <contour>
      <point x="159" y="360" type="line"/>
      <point x="159" y="457" type="line"/>
      <point x="15" y="457" type="line"/>
      <point x="15" y="360" type="line"/>
    </contour>
    <contour>
      <point x="159" y="491" type="line"/>
      <point x="159" y="588" type="line"/>
      <point x="15" y="588" type="line"/>
      <point x="15" y="491" type="line"/>
    </contour>
    <component base="P"/>
  </outline>
</glyph>
<glyph name="rupeeIndian" format="2">
  <advance width="508"/>
  <unicode hex="20B9"/>
  <outline>
    <contour>
      <point x="75" y="234" type="line"/>
      <point x="158" y="234" type="line"/>
      <point x="354" y="234"/>
      <point x="420" y="367"/>
      <point x="420" y="488" type="curve"/>
      <point x="420" y="639"/>
      <point x="317" y="696"/>
      <point x="132" y="696" type="curve"/>
      <point x="242" y="596" type="line"/>
      <point x="493" y="596" type="line"/>
      <point x="493" y="736" type="line"/>
      <point x="75" y="736" type="line"/>
      <point x="75" y="596" type="line"/>
      <point x="158" y="596" type="line"/>
      <point x="260" y="596"/>
      <point x="270" y="514"/>
      <point x="270" y="483" type="curve"/>
      <point x="270" y="441"/>
      <point x="245" y="374"/>
      <point x="157" y="374" type="curve"/>
      <point x="75" y="374" type="line"/>
    </contour>
    <contour>
      <point x="306" y="0" type="line"/>
      <point x="475" y="0" type="line"/>
      <point x="293" y="284" type="line"/>
      <point x="120" y="280" type="line"/>
    </contour>
    <contour>
      <point x="82" y="429" type="line"/>
      <point x="490" y="429" type="line"/>
      <point x="490" y="551" type="line"/>
      <point x="82" y="551" type="line"/>
    </contour>
  </outline>
</glyph>
<glyph name="liraTurkish" format="2">
  <advance width="686"/>
  <unicode hex="20BA"/>
  <outline>
    <contour>
      <point x="628" y="324" type="curve"/>
      <point x="477" y="286" type="line"/>
      <point x="479" y="272"/>
      <point x="480" y="258"/>
      <point x="480" y="242" type="curve" smooth="yes"/>
      <point x="480" y="167"/>
      <point x="415" y="141"/>
      <point x="293" y="141" type="curve"/>
      <point x="306" y="59" type="line"/>
      <point x="306" y="736" type="line"/>
      <point x="161" y="736" type="line"/>
      <point x="161" y="0" type="line"/>
      <point x="306" y="0" type="line"/>
      <point x="485" y="0"/>
      <point x="630" y="66"/>
      <point x="636" y="239" type="curve" smooth="yes"/>
      <point x="637" y="269"/>
      <point x="633" y="298"/>
    </contour>
    <contour>
      <point x="443" y="497" type="line"/>
      <point x="68" y="288" type="line"/>
      <point x="124" y="200" type="line"/>
      <point x="499" y="409" type="line"/>
    </contour>
    <contour>
      <point x="389" y="624" type="line"/>
      <point x="15" y="417" type="line"/>
      <point x="71" y="329" type="line"/>
      <point x="445" y="536" type="line"/>
    </contour>
  </outline>
</glyph>
<glyph name="manat" format="2">
  <advance width="786"/>
  <unicode hex="20BC"/>
  <anchor x="393" y="-20" name="bottom"/>
  <anchor x="143" y="-103" name="bottomleft"/>
  <anchor x="229" y="726" name="ogonek"/>
  <anchor x="393" y="736" name="top"/>
  <outline>
    <contour>
      <point x="330" y="831" type="line"/>
      <point x="330" y="0" type="line"/>
      <point x="456" y="0" type="line"/>
      <point x="456" y="831" type="line"/>
    </contour>
    <contour>
      <point x="546" y="464" type="curve" smooth="yes"/>
      <point x="546" y="0" type="line"/>
      <point x="691" y="0" type="line"/>
      <point x="691" y="467" type="line" smooth="yes"/>
      <point x="691" y="629"/>
      <point x="559" y="744"/>
      <point x="394" y="744" type="curve" smooth="yes"/>
      <point x="394" y="744" type="line" smooth="yes"/>
      <point x="228" y="744"/>
      <point x="95" y="629"/>
      <point x="95" y="467" type="curve" smooth="yes"/>
      <point x="95" y="0" type="line"/>
      <point x="238" y="0" type="line"/>
      <point x="238" y="464" type="line" smooth="yes"/>
      <point x="238" y="534"/>
      <point x="305" y="603"/>
      <point x="394" y="603" type="curve" smooth="yes"/>
      <point x="476" y="603"/>
      <point x="546" y="534"/>
    </contour>
  </outline>
</glyph>
<glyph name="ruble" format="2">
  <advance width="626"/>
  <unicode hex="20BD"/>
  <outline>
    <contour>
      <point x="15" y="192" type="line"/>
      <point x="15" y="64" type="line"/>
      <point x="325" y="64" type="line"/>
      <point x="325" y="192" type="line"/>
    </contour>
    <contour>
      <point x="15" y="366" type="line"/>
      <point x="15" y="238" type="line"/>
      <point x="315" y="238" type="line"/>
      <point x="315" y="366" type="line"/>
    </contour>
    <component base="P"/>
  </outline>
</glyph>
<glyph name="numero" format="2">
  <advance width="1358"/>
  <unicode hex="2116"/>
  <outline>
    <contour>
      <point x="878" y="233" type="line"/>
      <point x="878" y="111" type="line"/>
      <point x="1285" y="111" type="line"/>
      <point x="1285" y="233" type="line"/>
    </contour>
    <component base="N"/>
    <component base="o" xOffset="787" yOffset="294"/>
  </outline>
</glyph>
<glyph name="trademark" format="2">
  <advance width="586"/>
  <unicode hex="2122"/>
  <outline>
    <contour>
      <point x="449" y="619" type="line"/>
      <point x="449" y="477" type="line"/>
      <point x="536" y="477" type="line"/>
      <point x="536" y="747" type="line"/>
      <point x="396" y="597" type="line"/>
      <point x="408" y="597" type="line"/>
      <point x="269" y="747" type="line"/>
      <point x="269" y="477" type="line"/>
      <point x="352" y="477" type="line"/>
      <point x="352" y="615" type="line"/>
      <point x="320" y="592" type="line"/>
      <point x="402" y="480" type="line"/>
      <point x="481" y="592" type="line"/>
    </contour>
    <contour>
      <point x="40" y="736" type="line"/>
      <point x="40" y="656" type="line"/>
      <point x="91" y="656" type="line"/>
      <point x="91" y="477" type="line"/>
      <point x="181" y="477" type="line"/>
      <point x="181" y="656" type="line"/>
      <point x="232" y="656" type="line"/>
      <point x="232" y="736" type="line"/>
    </contour>
  </outline>
</glyph>
